<mxfile host="Electron" modified="2024-04-22T03:56:45.040Z" agent="Mozilla/5.0 (Macintosh; Intel Mac OS X 10_15_7) AppleWebKit/537.36 (KHTML, like Gecko) draw.io/24.1.0 Chrome/120.0.6099.109 Electron/28.1.0 Safari/537.36" etag="7L5QyZGJ0Zu4lXBFRY3l" version="24.1.0" type="device">
  <diagram name="Page-1" id="PqccMR3XEKHKRWEfeaKS">
    <mxGraphModel dx="1026" dy="1843" grid="1" gridSize="10" guides="1" tooltips="1" connect="1" arrows="1" fold="1" page="1" pageScale="1" pageWidth="850" pageHeight="1100" math="0" shadow="0">
      <root>
        <mxCell id="0" />
        <mxCell id="1" parent="0" />
        <mxCell id="nPFasPomJ1m4DBFbavHR-6" value="" style="shape=stencil(lVnLchs5DPwaXVEEwefZm/2PVMWJVeu1U46zSf4+YFQciz2e9voma9AjEkA3Hj7Zzbe7j19vTzF8e356/Of2x/nT893J/jrFeH64u306P/unk3042c3nx6fbL0+P3x8+Xf7++nFYjk//Pv433vDzgotBrAxUDL8u3wTR/ueLvy/29+eHa/sqfbWPUtKxvTWxsNgnKeXYPmVpcbHP0uOxfY6SVvsqgby/BKkK9jkT+yqpLvZdMvFPNSnrfZv0cGzfgoQE5ylK7IvU1f9Fsh3b94Lv7xLIeXqXYou9ZqnEQQ5oeU2IKK0dAzSEeYKJsDCdfPQTYb2zZ1UjQei7JE3utjcAkHVJlB2pSIIwmBgDuBchT4N0dqQsYQ1E7VIJ07pJXiPtuZJY6nWkmruhkFA3ldrW3HiJ5etsCFJWRG/0J9yLseOZlACy6wXwM0smR0obfzdAom5KioxzTxuRGMsoAT2KEU47hRMcKUgjodZNU64BRCVVp+heATqRDc9WULEmiZwoSl9V1XUtkbBFCWte1EB9usuj4iJDXBqmwzc+uy4TegaJO8FQ4lAvkut5Rp0j/nGarBE27v9dVYiec0QtdpLqqs3KlE1SvVSRRtzjb7P1PF5GmX1FzriDWfr44wD2rEvw/LHVnyqd1BxvOnSVukS7BM9/7eCfwrqiTXP+X5fg9mE9j8ZZUF4H2KxfGyDR8jEcskZYC22ktCPFXGWYjzzG0RAQWVIk7BSU917uE7x0nrc6kjmgsRrNI3WVgjsE2q75YwPhoonnJ4LEy7S99ivn9f2uc0Qn3Kdgr7RcjiRAIrPS5FmRkJiJlTLFwqG8btjsdjdhnA3AEZGh0GQqRP4YSmuj7bXbx7Wd8AhmQhs/UIQApKllR9JVgPqFlr4YcAIZ6srE7r0AZxVUp7eI6QDo+V0AGc88bOuRzGhBGAAYGz1RORGgmU1tcvsIUNcjeSvJSrJfOkHNTHO2PQKU1a01zeHzKDXyHkDiMOamsgMQOlhBza6Zzjlpk58N0Cggu/6sgfOxxVgDX9FLYyQm2epeBwlzAGteqkqDZlapiDWPQ0UAa6/rbsnhsxVrHx2QFX+hkEuPK0IcEtUlfx/MzKVSxrWtg9r40KcbXgcY5lKOVAQcAE1SypTTLc3asalGpW1Y21YVmy51icxLde4RrpYXdGaOOJWPgkVyyfkFPYxXDFZxy66tinw+LWEugK7uENlsZ9JghceHkVRxKB/NIrmDa3WGPqzSnZApKt/YOrG+IWNquJ4r71ZBBLyw05Gn4MjsADbiDbkHQKCbiFGyYCinM54mHGrb1Noje8jVQjVm2K/syZQ84zywluNLiJ1wx7mxOnIoDJFKZySPGKynAt01eUp0A3uaQh2HZr78evdq/U17//Cyx/98vr+//Bvg+jnu/f2ry/8M7MNv);lineShape=1;strokeColor=default;" vertex="1" parent="1">
          <mxGeometry x="95.7260081758302" y="144.79875803009816" width="43.37056777002681" height="36.48519598491316" as="geometry" />
        </mxCell>
        <mxCell id="nPFasPomJ1m4DBFbavHR-7" value="" style="shape=stencil(lVfLctswDPwaXTEkwAd4TtP/yEyc2lPXzjhum/x9oapKDdLepjdFWZhYYBeEJrl72T48byYOL+fT8evm5+7xvJ3k08S8O2w3p93Znia5n+Tu6XjafDkdvx8el7+fH2bk/PTt+GP+hdclrpDUOYjD2/IiU+TfLz4v8P3ucAGPiUJy+EQF4JlJmsMLxQLwjbQ4fKSst/FSqarDBwrhNj5VSuzwTDHfxudE6vNXUpBPEQoeHwMJSKgGqr6gMRODAA3EnrFRbiClZhUPvgUB9qBlquIDEomAgErNn5AiFZRSI/EccqSUgOzCe1vXiMJQGHZEjS6gCjXQ6aaUPWs11iCnVqj4lBpj1qlvhJ35Ry3XAyKJ53BRh+viMBLcH8ERBBQKsSfRgKGtKCH3ZSpATcqkXuDV6opO4J6DtbpVECDryLpQk6IqJcp+yJhekYWsSp2YzBEZOELbKp0LzzFSH6+WfHd1owxIm5g6zwmvrG6ZlH3jRGGnTTnNXw02POGgaf2szEoV6btR6zxqVUIpNQq+0xopYNLS+SHA6TqX1U+m2eboBCb2jZsnD1JroyR9ALTo1QBQpWp3Yu5JZxBQKqnv9OxpkFKxC6TztHUGSCPbZPTSqIUYVCnl3g9FV8F/cBGwqRGARcdNw1glYNFxlTF5K+Aw7krZtg9U1mEXK6tBrhepn6yGRxe7DATsSgQ3HA9z1SoEehD73ce6WIHuQs83YXMOO4BN4QjyH/Bc1wn1sXyMkQIJDXxjgbveUM9oaxL4/aFfCk02ygHK8z83/3/C7eHvR8bTbr9fvlEu/99/lNir5YNG7n8B);lineShape=1;strokeColor=default;" vertex="1" parent="1">
          <mxGeometry x="101.85072619094103" y="153.4069072903518" width="33.734851457110835" height="8.360722561139937" as="geometry" />
        </mxCell>
        <mxCell id="nPFasPomJ1m4DBFbavHR-8" value="" style="shape=stencil(lVfZctswDPwavWJIgudzjv/ITJxaU9fOOE7a/n2hasgKiL2dvMkmViCwi0MT373tn153U3Bvl/Pp++7n/HzZT3w/hTAf97vzfJGniR8mvns5nXffzqf34/P6+/VpsVyefpw+ljf8WnGFSl1Awf1e//CBsv/7z+Nqf5iPG3s5jkUDCgUGgEY1KUBw1ICHUMlH7aFSS7cBnMlVeyWutwGRqegYMlVgnzwlEwIMOXvKrC9ELt62L4HYK3tHCdhXTz4Ze+cABW6cd0CqVIGH1ijrDBVPEXDQKkVNWg2QtJYtoAXyAQCYqr6S+HRAR83348GCw3mqorysXRQojJoo67yKUwhgysGmKYOo5TgGS4RDHkYWN1Qj5gRQdNBR6qkAQKSgAZxgOVShWtendB2XAaCRN4CRhutUh37jAfBUGgBEqjqGIDEguZZ+PIKWK4GgRZyt6bQGSiCtUnLN1GiE0hBA1R6ytD0EGG10aKlhQLE8CDOM02qmyVLmgGkpl2YADRInF3DNAlBvXcRnSlT0iwpIjjVAXoH6zFJApkQTedRmPpVoliaAgr4GKMBDqZR0loroF4gvV8qah5L7jLw+EkdT2QAC0FKsnddtloCH6LtyBg8yAUDFMVMzgEQMxCdT3xfroQAtyVphKk4mcURjtOtg07wZ8BYpGZ5jX56uh2z3ANEFqk+pNj1zhcYE3u9sdSamBDLqejsZPa9AnX5aS4R0BhS7XuqjCUt+4Puj3sNkt0xoubX5lLmD3h+sgGRTdaAImKLZSCKczRKdzqds3wHwm7u6hr1sooCvry7//7eXh39fGi/z4bB+qGzP7ZeJ/LV+1fDDHw==);lineShape=1;strokeColor=default;" vertex="1" parent="1">
          <mxGeometry x="102.90020459978314" y="161.98264451656064" width="34.13847998144638" height="7.790969534240844" as="geometry" />
        </mxCell>
        <mxCell id="nPFasPomJ1m4DBFbavHR-9" value="" style="shape=stencil(lVlJchw5DHxNXxHcl7OXfzjC8qhjZMkhy7P8fpLTge4iWJ0l37QgiyDWBHiKH34+fvnxcAru59vry58Pf5+/vj2e4sdTCOfnx4fX8xt+OsVPp/jh28vrwx+vL7+ev15+//FlSI6fvr/8Nb7wzwXnnRPnBiy4fy9/chLT/3/4fAE8nZ83gN4l9kneSyxEvunnVD5ICkS+SJj1idIjkY/i6iRfxHki7ySUSb5JJfdtVcqsjw+q4T4gSw0zoOiR+4AkfT4BLmiNArIxaZbO7pAkzjaKXjw/IcxOjoVGxQDkCZC8fuIuIM4A+I34uUXJs5Wyk8JU8lLnS+csngBqkzZfOnfquJolz54uQSq5dA1S5tgrWRJTCclpTqhqt11AaerXKwD5RzyN7yWTPl08yZ9SNNQUcFPy3gmlWUDjdzAVqXpqJZzQ5+CDoUOlAG9OiJoh+4AsZY7WmqQwQLJVqSK8MwEEG0u10rpakF8G0LiVnKQ5vGunVkL0twXQiEq5aX5dS6uTTDwNQDa12EshVsrVJlALWm33AcUWARQez1Qq+u8rAL5nJ+RFJWQISSAA2hx8aDGNVA2olObwbk1r4T2AVQk5zcyabPAB0MkJqdti3D0tAiju0VtAIX5I0TquB/HESrFJn6MVzCCQyoeOlqsFsEtHMI3ZrB1FgKgUugbzFZDppUFdTNsFG2L5AG5kyn2/Vtt9ACrpHN7gZyxFfV8u3Wk++GYTCIBKqoZfQwNlhtQlv4YGopWd4GzGbVjvft+V6pYTiKeTtv2tPKnFQXvy9srEz07qalPitYXTQz4T/Z02go18Ivp4Wy/GVECCIkpZXBwYydCvbeQZdeuW3w55FqRBW+U7D/BZ9d3egESQr3ZMGiZigKZZsvUBz0yfLSCzvEGmL4BKvIA7rGHUmJWSpXojD9gdvLTF0SzR2jJbHWTyMowd1Iqo5Hd7ZaKQXwpw1+p0J9PW6simGGd5ZO+09/+uPHjv0g8S43hL0FXJpOFUzcNNR8uksqCLG3tmqj8iyCoEMsOCOumYuWn7NAuK5f79SgT2i3tYYsLTmINRzUoCADaOwErFWNVpIu172e8AWAEGOTJ+ACNkC4CEwDPcn5NUAMpcIA9ocLpOje8k2gCYrnBA5SNS1xBtPizEZWNwMI4AYNJzDDzErFDJTKpjpCKhAd5sqAWGNraTSAi+ZAGB3AFUvs/ROgZP5oemk+92tGXcv1m+NoZnplK3/GWM5yTjBsDM83wBAJWSUYmvGAAw/f9gibFzaZ7T2dk7FLQ2Ns9HuzYEgO0kxqQ6N8PSaBEY47k5odKhrSzEcyzEGDGMtp+MlRtbk2B4nvNhLPXYmqTbffVYG5JohV9NTh8sJgGos0oHq88dAF+uroCD9W1deNjBghiAPgffwQp6pMt8wsGSGwBzwlijk2i9pfxmUU/vUC3Xa5QI1G6jO9N8Qy+wW3fa4Fq0a8ygNeTuu4GxEN/RZ33oUHlHhza01+VliGVOW9ZOILvMPtUyAKfNbl++68POTZ6VL1CcbPVhXaQH2wn5aDHWRcv3mXy2U/CBPkt8Oso7x0vbYn/2/W63TY7my21HsYkHunb5zafFdwDww+0l89v56enyELr9v335xJ8ur6bx038=);lineShape=1;strokeColor=default;" vertex="1" parent="1">
          <mxGeometry x="73.27033335098417" y="145.56706000216286" width="20.167493477612425" height="436.9623477956238" as="geometry" />
        </mxCell>
        <mxCell id="nPFasPomJ1m4DBFbavHR-10" value="" style="shape=stencil(pZrZbhw3EEW/Rq8E9+XZcf7DgOVIiCIZspzl71OM0KPpy5nTEvKm5ZJNFmu5tdykTz/uvny/vYn+x8vz0++3f91/fbm7Sb/cxHj/eHf7fP9iP92kzzfp07en59vfnp9+Pn59/f37l4mcP/3x9Ofc4e/Xdd75PBdF/8/rH4pL/r8//PoKf7h/JHh2pSE87eDJdd7dCzwmhNcdPLqC8BB28OA6nj0VgWfcvVWBp3AdftrsDV5AMtG15ez1OjzrYaJLcPbmahA47R6Cm//bvVPKgC8rvg7ADxebqk0E4SQXquAbXDfWTU/e8AXeKg6XVS8D7J+CG1HkSfdNWTUzot6n6nwXbWgF8M11VWVShzRc2p/fu9FB27zLXfB032yfr4LPcP4cndfzRLBcw5cs+ADva/hRBO/BGLOpy1A86Gc2c1T5RDpPdSMInrxssevp+wY4f8kuDcE3OE/pKh/TT/AP1cxjCL4SvrqeBD/gPHW4qv6B5N+Cnt/wIM+WVP6GB31uRfUtofxbVXs8wLctUL0T3zdxn50f7LeZvx2Kp3AxXNufx94L3rf7zd2cxReIF4Zf9I1oQzf1zXoe0J9u11v0AfxPz7o/85Ju8UXln0B/eld7MQdD5xmuLPEU3nec3MdZfITzjMU/m0GA/A0/NJ4OOP+IGl8SxpcRV31GfFp55AB9M3zZ47PzoD+G713xJE/zt03wEfyV4YU/ZORXo6g+ZJfBv426uY8zFk/yrK7q/pXet23u9Q3fSH+ay7o/xSPDj6HnIfl35W95CyDX8K0onuQ/NP4eyMf4pJ6/gf80fNckjfxz8EsiVbYvXvuAGHB1mS8sAaAjYTJ8EYLiWUMXBhoSq8RQlQumVCTTvnCO4CrdoasTjRWjqi2I4uUC0lZTa6GJRtwD21nc+0VjpokNv+0vnQdLqeoXjDsSlTNXNETzOsYyW1D3qlFNSuzs8v4djG6iNy1bIn5aUDbturZA0rHaMT80fy18zhgkJRwjqy4ZZWv0cFkzYuMkGPKzVl6MNFBOPGPa/g6Dk+KRtCRhynIQNevei5n+Us1jLGmWmVTiuL8u6OT30hb3TgsGu5mkDzd988Ed8rKAjySxYTpnMqCklaS5gL8gbOQsXlxd4ZdP8EPEsixg7YthERP5GTOw9eXIgi4tQAuyIy2XRpZ0SgrOF7AyxeWpqQ4y32ERayZPZrqxiPVowaLfB0cqH7205EZzwUdt9ODhLhg1q0ZZxHqgfGUR64F659Ue+A5aoXmHjX7UDcTlqQ8cjfCZKSa+RFj0+8BZXjBqVqYPL1Cj7kdPHbMuwFxs9ZUHRDRtMe20oBzphmpf2uqvVwPv/h0mF+B3kHSgHyRAWV3f5DNkEFnv0LgkZwsk4zBOhmK1HFoWFGbfZavpn/HKwFRXeWVwgb8grs+4MT5c0TqksW/0lVXdRj61Lq4tkC/MDIJTb0nVLUfB2sfSe0iB6XpXm555FilfVwI0e2mc+knKMXNFuvTJR5xlowcFAb/ku1QBtAXilxpWMCd+f6LKid9QV1zYTy4VkIIdiOkUdf9CAloqOIVZQ9MKTmHrb9oxKsx7qvL6slGta3iv8olsybkqnuxyySjNO9H58/b591WIxqkA/FaBGge8UCtonff3ikd9i65KYYIraFHJy0EFM2hZInNBLCibyuxHvaZ5Gd3orODreagjODsEel/yurMDoR0L7NDY84hbx457T2pf3IGYHRrFUyCbHaAFzx0m6UBz8cLwQeVD+jA7XkuHBvY3vHCDhKMps2OnHRq676WOIMnzUscR8Rc6moi/0DEle7zUkaX7zo6vdoAK6OfsKOt5KMJPqrd0WOE8syOuHU2q4M+Ouw7kUAexXJhVqnDfXFUfAk88LB1NjylyXnJqv40MXcP7ZYKBJkjiVns/2x/4w5wI0QkMmoDJQWmrx45gXvw5U/s5MaPyJ36SmtpL2BT2Mr6qv4pYJJ8TRapvDfRnTiypfQWw9zkRpf6B3mtOXGmHjPjJOtGVMXlbJ8Yy8uFQlG9nnGgJQZMS7ii3dQCAKt2nWv4bHKWjZCmi8INWDSNyGa+hLqIqeG0pRawteG0CHI14VvXjPEBalNbyeGrVrIKHX4smLZTULVMX3IT1WknllGthPGXTimvwqHBwyMvwazl41biklwz/2GGCJk98VYmdR4L0H3umJfNjJfh/89UKtx/eRrm/3T88vE6Cn/9fR7/tT69j4+nzvw==);lineShape=1;strokeColor=default;" vertex="1" parent="1">
          <mxGeometry x="90.62800424633588" y="115.82356458615743" width="743.5984014321932" height="512.9835460859748" as="geometry" />
        </mxCell>
        <mxCell id="nPFasPomJ1m4DBFbavHR-11" value="" style="shape=stencil(lVrZchw3DPwavbII3nx2nP9wleVIFUVyycr19wGzxdGiKfas3+R1YwYAcTTAuYuffjx8+X5/F/yPt9eX3+//fvz69nAXf7kL4fH54f718U3/uouf7+Knby+v97+9vvz5/PXy7+9fBnL89cfLX+MJ/1zkxOU6hIL/9/JDcDX//8OvF/jT47OBp2jgxYXG4DEZeHdSGTxYZURcCRQfLD650Cneai/FNWptyBbfXeZ4cKa4zu0tFp9do+4EfYY/uX+svTG44n/CnzG7wu0FfHMSKV4MPsmJP8WGT1L/FIb31j+pOy97vHfdPj8HlxPDN6t/Lk6IP72r3uJVHxIPHpOxhHmCt/lH8Z7Egz4N8NEV4k/NJqt/UXvJeVWM59J5/oqr1qE18gSortqIq80lIqAJJTYkWnSeCMToxNrQKrU56SHbQ+veJXLIqbpkVeqqEjmFHDGse3KdCVTXuxUoLpI41bCBwOuVJrLGQQ8owE66qpc6ClSiUk1OBAUiyc1aZuRcGZ3YG/pHbiUn3dQGGxrj4IiXWsB6p6HRST3S2MxWoDWuUsKKpNHKKkw7+vUhkKlbVQFvT3ooSYJPTRRbNJqyAGJDDy7a0NCcrsRLekwFqoa2BdL2RyBYo7XMCHtDdc0Wynqc/ccCqjFU1kY7f+8uWhtKpa1WBcBozcFKMk4F4OBKpqExbLD5oN0hk/BWAbTBU/KoAt4mUG7crRXdqg2XReuoQjaWcuJGq4CtfFm4DXVG/zXHYMGn5d6eQyrzl50AdKAUKWtTAW+NVloV2cFp9QZeWCev3wlA9Y5pUomdQIE3aGjwNySgzpUHX8HRIvCmqAJii4DSIVqXsutW4IT9q0Bbxgs27qgAsBlR+sMFoAgog2J9WgWSPTilS6zwaTOwNhfKlhQPE0bgh5BxYgjzhy3enrJMg7Z4a6+nA96wtwL+JCYS4hl1U3xuiOf+L6h/YKmvEYTPp6UiY2PT+OH+BFIlvNMueB04WZ3I83iOOnHmfyxElB8NvCUjaQb49ryglM4fbsyvNJn0jfmVKDEfeA/2Np7vkC/xLH6WfGSzy5rvwst6XjY6k3Rv7bX660jM9U+IP6mHOQPe8+cXxFPimJFD+angNv4D4DuPz4b+pKzxZ/FluuM9PtmCYDRVq3/l9a3ghqCf0QKYDeSYFnYC2RogiVPMhanISYssWHJHzWVntrCtcMKrK9Lk0YU5Y4SsH3tBppLSPfuGGHidq5gH8ajE2wkKClfjnbvOQn5FYukU2DD0UppW7QTAS+nYV23nGxhX/JzPtwIwTBzbpJ0AtI+c6VZkzGg2lnSCovNNx9lgzGisIvVJIK6mQNZyxHusGTqZ0mDqy6DZ+TTRZ0ZeCXSWEA2ZeBXOxCvus2rg83vBRlIzZy4JB83Kd+U94Jqwea6S/2DVWdi2aRnH29GOdssj6M6t0pMe6ynYNh17j+0CDJZ4nKCOFRsIRLquVSdCx32fGbZrQnhDpUv5qvXe5oOGY2FvWFedfTalG5epV0l46762z65060a4z3jc7pzrYjV5w9hqJ/Qri41U8e7xnf1tN/Ow4A30dmHs/u0bWqcZNG4XYP2aqYDUSRWulqPsBmlcgNoc1fCii/aZLleFjJGNhF1USyubSAIWmcKvR2RpDnleun2I90upz5Rxr81HqL1LkcyNXqF6vHLNmWb/sT+42iey9umX7WCjpMQvA2eelwwbPOSx0ipGSTy2/5Mr3RXPr4w9DtgnV9KL/idX3h7XsydX6h77eIiU463Pl5P4BP11vGA9dvGPFDrB+2V8iXSi8kggxVMiv7TLg+Nu4NBn8uTQu+qA6yimjCBhkZOnw02Un/eiOzjO7qxtLx8zeHoTLUhUPHXk8uWMp4srwbLJ9yayrjHZrKUlNYDf2TwqmFNCL2IFOZ/MJeVt8HDyzc9PfuB0Atc/3r+l+vb49HT5FOv6//HbK/3p8t1W/Pwf);lineShape=1;strokeColor=default;" vertex="1" parent="1">
          <mxGeometry x="65.13604071845725" y="577.515296319169" width="754.7478269163935" height="109.43557068408995" as="geometry" />
        </mxCell>
        <mxCell id="nPFasPomJ1m4DBFbavHR-17" value="" style="shape=stencil(pZ3ZsuzEEUW/5r4qVINqeMb2fxABmBvGQACe/t5ZvqhP9946S5zw2+VQu6WaMneO+lS++vX7r3/+9lPef/3tl5/+9u2/Pn/z2/efyp8+5fz5x++//eXzb/GvT+XPn8pX3/30y7d//eWnf/z4zZf//vnrNXL96+8//XP9wr+/4PattQXK+3++/CEdW0v/+8tfvoz/4fOPND7+MudHxret9w+ML/ljv1/GNg4cP1/G17Idlcb//raP8XOrmcb//vRz/HFsveH48TK+xRvC+6St5NfxZWvwPulcvcf4vs39/fF5q+llfN+3DOuft1Fex+etwP6WLdfX8XXbYb7lXI3H+GM74PfrVvbX8X0rcB7qNmS+Y9thfY4tHzYe7kvsftL3mbBfbUtVx/++wu+Mb0XHt/H++L7t2cbDfPtWh44/4DyPLWddnwLvM87b8Rg/twTrE7fv9T6OfUvwPmnfSlLAgAOdku7wiDtHT8g65QDQFqRyzvAJMOEMBWC8XuKRt51eqW6HP4Fe6dj2ooBOq3TouQgAyd0AjG5zIEHXtmqTPuiV2jaLAegJcbarAuguBECE9QjlQcs6bJUO3od57usDEH+hSc9tvALmjmcpFM7xukqTT+vSOK9zmPmUsdeA+N9VAZ1eqZwS+glAOj+Edn0V8jOuFAEO1WoBKCBVQ6yWqYBKgL7loYCDVinUhgPgAgVANO0CgCYMUSlC4OaVSmh6WyWadABmMwCcpRIywjaOrmiQP6Ffk29cKXpFA0B8toTksyeQuC9NGdjNaS39FFt/8AItBiuvlHBZa6hAmfSOorKmc1+fxEyFVar5XPUHYCDNe2PVD0A/L+01wIjbaCg1AjCzAjIBDhP3B6qsAMxdAcR9qh2NABQgM7WfXPMBqMgOq6usise7ji3ZE/CVht64UXnjpin2er7kNSM2E2a9ElHorDZMAHa4D0fd+mEA2OkjuIYD4AIdQ6VGMIEB9+GYKgQWdSBen+xolNM0uAZkW9Z8zuoaEC8gzDghM27V7nTaEs3hUC0a3DvDxrWmpzWsAdJxAegCGCj5wvrNrxsX9gwR3QCMrAA6Gm2czOIBaHgfAjCqAuh4t6k7HTbxoCfMrQ8FkBOjGxMIK528BgFQM7Si2d3TeSEfgHJyg/cAooECQDu9/BCHvlKmJ5RzTZ4ApB+6+w7Y17MOggDaKamuASZm4vBVmvRU91b8RALZGjdYd3qcHrVrQD7dTc8GO7zSEoxFAY0AVV1oITUqvVKsuki+hObxaKZF08mVrwFdyfoSlfSErm6rBSA3SGyTeR3oLAXAn0COwGB4yQB0lgLQTD8QMw7S6auUQS4FwJ05JMimeUsDQGImiLPYon3ixgVA7/REHbe4vF0gOkvLGBa51E8z6hpQLlyCiSZd1PBbgoee8BCMT4Isg9oNQBO5VNELNw89GiGeGz3hUK7RM5LEAExzROMqPdbkAUinE+w9gBDd0HokZmZXX3eoemL3ARBncbCPBFJjji2/TjooF5n4ARDpHaSODL851VfZ2EcWTxCjaXFlWtZxMrwHoKB5PM3FvGwWWiVz24XtmOjw9dMT8wAkvg/9dGU+APvJZN87S8KXykSzbDa9QGXc3Thh96Xx4QuG9zrpwmwmACK9S9hdJL2rzaHyKpXT3H4A2IO1ROUwAEtv0XEB6PSErLx1eZxYoVSbww1AV6mghTKNeweAKFwARKEUdtsFE9B9yKiygpyIMA5AZkCWJzB1GN1eiW9ccL75utN53pFEsR/yQIWyvEmvG5c5tDYshpIbWlmLGRcF4ByqsvtcMToQZF3OUuYrGoD91eDI5WTj79kPYoCvEDI94RGeeAKQeTzMc5JvztIjwv0AsMHR7T6kiVKjDzXAU9wQUChvlPAJQPqhm4WSOrpPgxIKdUjMKru5T1M7yfV75rGEdlcMEIRxf2jlJ0ClVSoqvQOAcygqvdPD/f+eE0F8AgvAbgqddD1l4XuAlAxAG7erQknsm2lT5dIC3PiXbJVICLgHKwAZTuvykdnRIDuudXX23xyNABx2NMhR3poGUtOBFnsAJC4a9+HGGyr2w7pAtKxVXfGpsUc3m5jp7Iqfau2GICMT/2hqT4dsJTFzZF3WUCh0geo8OeSzjiNAV+oQapfmUA+1H0Kxk7ivD9L5RB1oWauTxB2TWuquCR4BIPM4rAUl6zsKgQAoM+a8vWJm2WJkFAweNmmOWnpcNABEHUpXH1kASLaWpvb0CkBTuLmpxR4Aij8Ucz2uZaVXOk6r7QlAGihMJMnXWLyVAEUDFouGUkC7qJM5N0zZKubyWqySljXpTmc2y9YiGucjp1oxT+KSS5zrIBb7ymOFJ2TzhgaAuEYA8odk60rweBUzwfmItwZAwmsh7jGrZSgzThx/yGZlhVIkwy93NQeWYidA06ORHlGV9wC7LGvBw5ctCJkKOtVyVQ20MvxoWav6yBK7i7I5aFeWIj0hW6INZyNZFu9AGysnJXADzfWc1IgbZ1rp9XjLuuYk2HW1uo6H+S7zK+v7UObfVF01cP0v8vg4769bTgR6KJfpJRk/SCXj2jbJmEOJnezSTJS/i77recNs0Go2yY4HIq6gGPWJMwOS3YAANMo3NSWVODEyueXG2Q3rkhsAT9Fu9DyhO3NJhaoAmvS0RUooTN3QyxwtNjuPk/2HvX/Ge9OVBqeMxSLdzMiCtkI7T/EfVAVNHUMxnuSiscFUkLZY7mFcJFIc1VQZp4sVMyAP9BeWC7McVaXGem7M+CtvCq1POp1kz0Y8XXrNEYnxXGzUzQdGudC7/X7HnN1d0yxDEA+Y766JPYkTDnc1VxYXwt9XSpoxL243HyEXW5gjdaCdvGsad0fLZteQcMN8HuMcx83aSNZJO+tA3hkuFkrHkGJSXjzQrkxq6b6Vsbw3Xi5uxlzYh2Z7EiS09JattS4iVuVNO/jknnDN2FFRWMgrsY27K39bjIsv4qHvT0Hs3ahARc1+dRFZ8GQRDDsSyt35OXl8d5X7HT03u1bmNLRGds1UOtBg++DwpDq04rubiqho25kG4rRGU3D8MqY/K6o3q5OpqE1M+1dM761K1irajFUFYEV3yGF1upwJrJrkg8SuYIjQeCPTOqOlhRPndCEL3m0j1QW3yTg7r7uZBBVDCG5yVC6JM8nNOSBuNFXMm19WmdRT40FIWctIDvYEZNVUfEmW4arLn28sY8mEYMbrwQle/8MoMmZ2L8/Bq+bZ0U+69GSR8ZTt656PnffLPCs7kjr33HCofnmG9P3JInDP0205pRQgJCwHX54zMeHQ4s7JTOI7T6F6YvA8L0EpfnDMqs/FgjboSVrSSeUD5Ru+KZ23+3tX2VlkPOUYZMuja+zpbMpGOItumQFGpbhutJknleY73JAgZrfsDPX8UQRs/Zww38SuXStGSRkzVZYr0Rz4dCRW7NSMlZvo0fEha6W4edMw9h8A7ZrC21YefrIHYCKRLEUnvQQdrZL1CMgJTcAVWBRARhO2HOoNWPyV5nAoK3ujpNeApkXUuXLYr1mywIGn1UPImfNIPEi9mCwBLAy+JNKHAu2rBwhtnIXyb2TYShawlArijCsdoX9kDivhoSiAUltqsdTHym1dDi1RyI/yxWuAJd9nLiCoFkNaLiHqBGOtb0IIEFc7rDx4eRU4PUfdIpwa36y2JO1YwtYs1smBp3ZYrSKnklmSVP9gFlbHZGlP8xr8/pZHNtDh7olqA4uhPROOi4E81W5g9yfP5RtccWjJgtwdy7MRB67/SndU+kLm3MqnLB8Zb7kpTHe6tYvisopulU+T83KrRZC4XVc/NDFlBQkpgbRp+6EAUMrFKgYTCySjidC7em6W85GeMCxLMKNLbuVHm9zC1HkPfBTct5FU4SwSSZHIZKEebrcyspZxBwALMrPmXaWKPuZRLDpUMSVv9SSwnNabegG5DamjuBuHBZQ4cWEcRi129o019ZDmhHGWVbdhqWAUk1ylt1kBlDyyOplIZlfheuOhPrXlsqMCA2v+EADaOK/QyRzY8xqgRbWpFsuqjDL3yZnpgszf1LlqXi4X7M+spv+NufDW9Ol5lajaq9jRqHj4pnkvVv8/WqWqki/zFV2FsWIuNEyCDUCTVeqYgzGbzaGjzp3NiPBAX/0ql7QUVaz77io1Chu3c6hhGAY1BcZXnau4XTvaSAEQ8zmMIEqNnFNDbPVAT08AxGdwcCPCOdW1GwYE6Ye075rf2W5qDafOOggmbrVJss4ZOl4/3Ll3j+/cTcPPdTasqQaWP1qVdRAciomsOm4hrTu24plNqcC4LS2XTIjVLoLL473XIend6c2vMu+0xfdGZgVRNVd4ERxuUyBqdHAsdlrv2MHlXkujJAXgfTA33Whclm3u+dHuqnu1JVLn422pFKMj+V6t32TSA4ux5m421sCc7YvGIAM37qL1CLtLL5qbcALwap9iAKpLWizRlpUCZ6sFzKEAcjU60x1cVrHa2Fi7Ocre9HLgcTCXttKQUbH94rDy+HFTDpzUnh5ci756AVlLVTpLqyWSSI2MJkq3Vp5vJch/0MZfJcg3jaOsUQ7ph24dUhfgpvmVvRLW3rofJ6G7dDXw8g5HtEq7tUnOGLltVmu4VNZNGarpOHK9t6HOw7dmVe9696wnMaVqrGZwMumC4d4AaPfpgmy9NWtdyN0fWtNA0ajIQ9thcolTKpordo4GtKL2QEg+ir8187WEbM0ESOoJGYMbPE61mgJAMcTD2vMuq586Qlo7ocE1GRdNKrnX4VGsI+REpXhY86vlJrhp5SmdalnMrMY71tqWJJ+3I51sP3jD0wCQo2+1VE32SgTwfr7c+ny1hU0KwGU9tLvo5CSdWpXzTXYar+a5DqCOwUWDjquxDa2SMYFZ8MZV63szmTrU3VzxBwqBYib7cnVwI2adQ0ezbLV6Lgogp0CxNmdz4H24aFc9uOW2N8Tm4vWLltvjrgu41hoO9LVctA0faCleNCYfH219PlAIXDRXH2geX7RvH8iMLxrE30zaW9AP7orvTe4Hp+54G/3JuWimdif77VbuWVcArtKunRPmxMSala4n4bL9JoHQyqzjESQr0zDB1Li2wryVN03rV+2CzPoRfXoPIEldq9HlTf2nNXzHtF5niRNvUDKdtWx8/iCIfkGko/V68Y2Szl8y8q+gdK5i9e+sdDQgLr7kwq7yi2/FDIz5Ja+QYnk/LV4+kC8N9W0u2ooVnZKuODjg1420Mo921ykfo2ZGIruWvOM+e5bcb8oJLP6ZG05IOYyj85GzwukYj8lfqs3XJwmwZESNvcrfnjDDKiMZzsojbzwZ+aLBO37JSNPtO1dQJvv8FFfgWKZb5wroXfOZGreP3619akGv4a7rE3ZlxvHiu11BJR7/+j5hCfDn9eQ8F04I8vF3n+/TXn13nwfU8XefH9SOJ3efN9QUCy7JsjYyiePuu/VH4VSa3QpB+dsxXijIn+UyfZS4i/huecx346tlM/H7aGeUu/lqptHdekoGwO1+ify5PQ//5+c0bXz84+3bnd99/uGHL5/+fP7/+q3P+NOX74SWP/8X);lineShape=1;strokeColor=default;" vertex="1" parent="1">
          <mxGeometry x="161.6192140786773" y="154.85219659919784" width="658.2608483341348" height="53.475718932793484" as="geometry" />
        </mxCell>
        <mxCell id="nPFasPomJ1m4DBFbavHR-18" value="Home" style="text;strokeColor=none;align=center;fillColor=none;html=1;verticalAlign=middle;whiteSpace=wrap;rounded=0;" vertex="1" parent="1">
          <mxGeometry x="190.79999999999998" y="163.07999999999998" width="60" height="30" as="geometry" />
        </mxCell>
        <mxCell id="nPFasPomJ1m4DBFbavHR-19" value="Connect" style="text;strokeColor=none;align=center;fillColor=none;html=1;verticalAlign=middle;whiteSpace=wrap;rounded=0;" vertex="1" parent="1">
          <mxGeometry x="290.8" y="166.58999999999997" width="60" height="30" as="geometry" />
        </mxCell>
        <mxCell id="nPFasPomJ1m4DBFbavHR-20" value="Messages" style="text;strokeColor=none;align=center;fillColor=none;html=1;verticalAlign=middle;whiteSpace=wrap;rounded=0;" vertex="1" parent="1">
          <mxGeometry x="380.8" y="173.97000000000003" width="60" height="31.77" as="geometry" />
        </mxCell>
        <mxCell id="nPFasPomJ1m4DBFbavHR-21" value="Careers" style="text;strokeColor=none;align=center;fillColor=none;html=1;verticalAlign=middle;whiteSpace=wrap;rounded=0;" vertex="1" parent="1">
          <mxGeometry x="480.8" y="173.97000000000003" width="60" height="31.77" as="geometry" />
        </mxCell>
        <mxCell id="nPFasPomJ1m4DBFbavHR-29" value="&lt;b&gt;&lt;font style=&quot;font-size: 23px;&quot;&gt;Page 1&lt;/font&gt;&lt;/b&gt;" style="text;strokeColor=none;align=center;fillColor=none;html=1;verticalAlign=middle;whiteSpace=wrap;rounded=0;" vertex="1" parent="1">
          <mxGeometry x="335" y="60" width="180" height="50" as="geometry" />
        </mxCell>
        <mxCell id="nPFasPomJ1m4DBFbavHR-32" value="" style="shape=stencil(pZrZbhw3EEW/Rq8E9+XZcf7DgOVIiCIZspzl71OM0KPpy5nTEvKm5ZJNFmu5tdykTz/uvny/vYn+x8vz0++3f91/fbm7Sb/cxHj/eHf7fP9iP92kzzfp07en59vfnp9+Pn59/f37l4mcP/3x9Ofc4e/Xdd75PBdF/8/rH4pL/r8//PoKf7h/JHh2pSE87eDJdd7dCzwmhNcdPLqC8BB28OA6nj0VgWfcvVWBp3AdftrsDV5AMtG15ez1OjzrYaJLcPbmahA47R6Cm//bvVPKgC8rvg7ADxebqk0E4SQXquAbXDfWTU/e8AXeKg6XVS8D7J+CG1HkSfdNWTUzot6n6nwXbWgF8M11VWVShzRc2p/fu9FB27zLXfB032yfr4LPcP4cndfzRLBcw5cs+ADva/hRBO/BGLOpy1A86Gc2c1T5RDpPdSMInrxssevp+wY4f8kuDcE3OE/pKh/TT/AP1cxjCL4SvrqeBD/gPHW4qv6B5N+Cnt/wIM+WVP6GB31uRfUtofxbVXs8wLctUL0T3zdxn50f7LeZvx2Kp3AxXNufx94L3rf7zd2cxReIF4Zf9I1oQzf1zXoe0J9u11v0AfxPz7o/85Ju8UXln0B/eld7MQdD5xmuLPEU3nec3MdZfITzjMU/m0GA/A0/NJ4OOP+IGl8SxpcRV31GfFp55AB9M3zZ47PzoD+G713xJE/zt03wEfyV4YU/ZORXo6g+ZJfBv426uY8zFk/yrK7q/pXet23u9Q3fSH+ay7o/xSPDj6HnIfl35W95CyDX8K0onuQ/NP4eyMf4pJ6/gf80fNckjfxz8EsiVbYvXvuAGHB1mS8sAaAjYTJ8EYLiWUMXBhoSq8RQlQumVCTTvnCO4CrdoasTjRWjqi2I4uUC0lZTa6GJRtwD21nc+0VjpokNv+0vnQdLqeoXjDsSlTNXNETzOsYyW1D3qlFNSuzs8v4djG6iNy1bIn5aUDbturZA0rHaMT80fy18zhgkJRwjqy4ZZWv0cFkzYuMkGPKzVl6MNFBOPGPa/g6Dk+KRtCRhynIQNevei5n+Us1jLGmWmVTiuL8u6OT30hb3TgsGu5mkDzd988Ed8rKAjySxYTpnMqCklaS5gL8gbOQsXlxd4ZdP8EPEsixg7YthERP5GTOw9eXIgi4tQAuyIy2XRpZ0SgrOF7AyxeWpqQ4y32ERayZPZrqxiPVowaLfB0cqH7205EZzwUdt9ODhLhg1q0ZZxHqgfGUR64F659Ue+A5aoXmHjX7UDcTlqQ8cjfCZKSa+RFj0+8BZXjBqVqYPL1Cj7kdPHbMuwFxs9ZUHRDRtMe20oBzphmpf2uqvVwPv/h0mF+B3kHSgHyRAWV3f5DNkEFnv0LgkZwsk4zBOhmK1HFoWFGbfZavpn/HKwFRXeWVwgb8grs+4MT5c0TqksW/0lVXdRj61Lq4tkC/MDIJTb0nVLUfB2sfSe0iB6XpXm555FilfVwI0e2mc+knKMXNFuvTJR5xlowcFAb/ku1QBtAXilxpWMCd+f6LKid9QV1zYTy4VkIIdiOkUdf9CAloqOIVZQ9MKTmHrb9oxKsx7qvL6slGta3iv8olsybkqnuxyySjNO9H58/b591WIxqkA/FaBGge8UCtonff3ikd9i65KYYIraFHJy0EFM2hZInNBLCibyuxHvaZ5Gd3orODreagjODsEel/yurMDoR0L7NDY84hbx457T2pf3IGYHRrFUyCbHaAFzx0m6UBz8cLwQeVD+jA7XkuHBvY3vHCDhKMps2OnHRq676WOIMnzUscR8Rc6moi/0DEle7zUkaX7zo6vdoAK6OfsKOt5KMJPqrd0WOE8syOuHU2q4M+Ouw7kUAexXJhVqnDfXFUfAk88LB1NjylyXnJqv40MXcP7ZYKBJkjiVns/2x/4w5wI0QkMmoDJQWmrx45gXvw5U/s5MaPyJ36SmtpL2BT2Mr6qv4pYJJ8TRapvDfRnTiypfQWw9zkRpf6B3mtOXGmHjPjJOtGVMXlbJ8Yy8uFQlG9nnGgJQZMS7ii3dQCAKt2nWv4bHKWjZCmi8INWDSNyGa+hLqIqeG0pRawteG0CHI14VvXjPEBalNbyeGrVrIKHX4smLZTULVMX3IT1WknllGthPGXTimvwqHBwyMvwazl41biklwz/2GGCJk98VYmdR4L0H3umJfNjJfh/89UKtx/eRrm/3T88vE6Cn/9fR7/tT69j4+nzvw==);lineShape=1;strokeColor=default;" vertex="1" parent="1">
          <mxGeometry x="929.9980042463359" y="115.82356458615743" width="743.5984014321932" height="512.9835460859748" as="geometry" />
        </mxCell>
        <mxCell id="nPFasPomJ1m4DBFbavHR-33" value="&lt;b&gt;&lt;font style=&quot;font-size: 23px;&quot;&gt;Page 2&lt;/font&gt;&lt;/b&gt;" style="text;strokeColor=none;align=center;fillColor=none;html=1;verticalAlign=middle;whiteSpace=wrap;rounded=0;" vertex="1" parent="1">
          <mxGeometry x="1174.37" y="70" width="180" height="50" as="geometry" />
        </mxCell>
        <mxCell id="nPFasPomJ1m4DBFbavHR-36" value="" style="shape=stencil(lZzZkhy3EUW/Zl4rsBS2Z0r+D0aIMidMkQyKtqW/N+CJ6qnKiz7ofpslbxUqAeRyM4GX+OHPzx+/f3oJ7s+fP77969N/X3/7+fkl/vISwuvXz59+vP7sP73EX1/ih9+//fj0zx/f/v31t7ffv38ckuOnP779Zzzhrzdc3EIboOD+fvuD26L7/x/+8Sb+5fXrVTxdxP3mPIl7fxEP2w5PD1u9DmbfaibxvF/E65YbiUcz9n3zgeTddTRdN7Xcl/fHf2/yddsjyed6kY958yifrp+799mA8fttN/Jt8zvJx+t4UtwyqN9bfaZ8zN89+et4Ut3aM/LZbeGZ8eS+OFE/sVj5xOO56ieHLcDi7/LNyjecX/v8uJX6zPh3XP9dPl/l05Z5/EafeUs8HiNfVs8381u3wvox8m1rzzy/eNzvKt/nl7/XyMdjRu7Jx6v8fsz4g/Lp+MuD48lb4P1u5MtKP8nKt6fG3+eX12e4yrdtZ3l3Nf/usNh35I2r6/KJ58s836/m6+rsaljYZ6OfLr/Q51X/Na7slXGP3d89pZ99K2hvgxl/WsyXv9qfmrcdn++DlW84X+5qP2tZPN+Z+aq4v9wxOyd5sucq33A87rBmJ/mWSN7EG80dHv+efLXyjeWv66F5nN/+NGflyb+rfI8OYf2Lfro8rQeV7/sFos+Z/GL81/XZ9m3n8Yj8YvzX/dX6/sL1oPK8X4oTeXh+2IpZbz1ehfnarT3s8qSf7q3k+QXke3Rtnl82B+P37gjHTwB08GHzxQJoh/m+wLIFoIvZjwjpBMj0DWny0YWcTLZZzADQR2eblnRApTCrHFHwGUBauo34DCAt1ck8NNjJHZCeBbRdhkS+rE3eQIC+O32SIdFuc6KlujnKhr1oqR7vvAcwCWUHUMDSAVZLFdmCke43AdCQ4uQbaMcF3XEVnVQHGK/cAQm8eDdjyQkANlBIm5NvoD3dAVkAlAh1SxlladAWDd0wRgHQWiri++vhveaAKmptzAw5G212ALEf0W81WkAAqxGjLL6G8XtMNqBtHLDFHo9mAcDii/UI2E+ABFra3bHlzwCYh12SlhUgiENZAOKzgB4VhacASXZcwy2654OnehRQJhNHoeHeLJczZhrekNxh3M+LD4xAChIJtGM5zgG7Te/GjoPlnbL46YpOMdWDLjwbMlje2R1829kYU8TnDzt39kCw43KUaKZizp93y0APt0tD2o/Y5UHHnpNNywcAJq4DbBxdkBfJeRI6UGLeAdUJAMxMLofWzwBYGh1Q9KMJMAvWF4DJPNA3tEl0T2FocQcb8uBMFz8JdMkpliCGbAHYZQNxZFzSJFin6L6UyTxkWK2lzXIgysrcVuUbAqh1sGTyBooEahSHUjDWqLutWvXMkpiPqkaASxs1iX/IGGDVLEHiEmDZngWgTNJ1Wku1Shi6ALSDjngQ0Jw4lHxwUvcA1szwRzfhYAcA3G6Tot0AwFpqGi9lNMaDpMoCoDdo3Joxfxg0lag1g5lpu2WeO4CY5EFUBQHQkJKtNQ0ADSlJJJAxImu3WumD7NJ4ntJRYATet/wZQN9QJH/ImHAM0yuLL5Baq6W4B4C0VI8E5gQgEuE9kTyRgmT5RpQqLGIhtTYJ4RLSFBPAzvuhiZZuUeCjgMgbqIn1jlhqngACZoqTIXmMWydv8NhrMdJtM9PusFT3lkaTegNa73qY3hOg8PIuUqEg+nQAdgugEuwAZAvwi/1wtXyjKMNvaAKoi6WRLYAY3bHjpE5EadnIPJ99g/FA62/I7iktNcnY3coI2EDXHV91FyCLLzHAMrpuZcisbV3shybBiUMKeGxRecPKCAQBkOWr4uMcpmUD4CyA8oex42Qe0O3OAESEtFtXwQngGFB1eS/UKjsODZlM3ANbVN/A1vtpgA3hHHd3ua5FqeeSR5kjsAI5QbBfnCGWrrc1C1g4dwtYhg+W+14GKBawDIEUkNk2adJBvUAT65fZEDQhpTJ2Q0x8dWG1VjGXBcnBd97tBKDy1Pi3DAkjfE0JuCA8STqWb7BpTTmohbuJk3wDhkCamt3U8GjyV46ZuZteypACOcYoq7VgaWc0csiQEBBkTy++IUzYROLvB5Ggb6AhKVWxmGklQxZvULqlYMw0IXQWAKWMeEgTUmoBUNqrYE49IdZYraNpTUhacnP11pT+OEAJTjICg+CUiSMypAap+hX0cYOk1ZICcd9tQpaTay9FvqFipjWobO0VgG8YZLkUj8gYT+h4Lv1PCH8u/U9KChXnYVK0qBiVTcoilSs1ddaNQNWmYnO5AaB6VhEGqGIf36Q8VXE/jAKYNHmQERglNmnyIEM2iniiJTL3o0yoAHrDPimm0mrN0ba/jsVHb/DCbXAbySjXJgugskjSPqyGezrdgs4TgMz9KGrLG4hoHmXzYAHEric3Kf0Tt7E38Q987GAvwpMxGaLtC6csZ46QDoklQpowlgjp81gigtXUEiHdKkuENMSsENpzs0TM2nqoMX80DskiJCp1tCbJEiGWfTQ/ySKkOu9or5I3ZFiEo4FLW2IIUKSdnNt6RhOaaImimtEQrN1S9IZkDwSu3pA2JwDsHtyF82tYdQqa2nBPWYiT5ifq+h4tkwqgZsAw6ceicw/h2c674Ccmc9GJaj1RO2ZmDnBi9hf9iU7qKRWby/2tg+zByMxXab+vRyR1D6Ctq9gsPuvHovjVl0lITau1AzR+RcpPO+8qkgle07OKa8lrZwU3KftdeixvYcscECdt0J4+OkzmgRzKOHgg6Rl2VkgUVI7yxzySE//DJ5+0H6YgOxjkpEg5pnH+wZJC5MVJmiRlbXKHbtLPQ5GucsZ8MmYmzydvTH1gebJH5fnkkPWcq5NJKs8nn2wmvTpZpfJ8csu62dXJMJXnk2fWfaxOttmu6tXJOXuykCN6Jycj2Yc7235ZK3YtOdv/X9kmOmtDK7NuzkYIlfu0nOUNu/zi+UafCe2hs3Tv6LfD8RgXUHekYZz1kzUuvtfYwxqxxVGO8tSwGI/h9KtHds5ZVrUuT3YmK08n5+SkZlmeZDUnyznYcjZjXpwsl5O1i5PrKs/VMJXnk/cqzyf7VZ5vDlB5vplA5fnmA5Ff3Kwg87W4uUHl+WYI4WgWN0/IYYvFzRayPhc3Z8jJ2sXNHCrPN3/oePhmEf1evrlE9c83ozhbLVvcvCLyy5tdTHyV2L94G2+Mm2nolKztGNz5bJm3ac+4WYdvFrmOZ9zcg/LGf72fXb4jb/zFsNh4k4fZvz0JoqNAQeIN7CYItoi9ozcKBwF7Gz3TC5ZdYN8VrC9yi9TFHOp3eGY92J3rFldEGUPlMC+Kdt1zo1K0Ya1bXLZlVv2C5rRZ7OrpXp6OYw9WkayZYBVJeo+H+zuJ89Pt2GnNPH8nGov3H96vX/v99cuXt9vbzv+317X1P71d9RZ//R8=);lineShape=1;strokeColor=default;" vertex="1" parent="1">
          <mxGeometry x="909.6257545034307" y="145.55881516604256" width="722.732774751126" height="529.7004716220159" as="geometry" />
        </mxCell>
        <mxCell id="nPFasPomJ1m4DBFbavHR-44" value="" style="shape=stencil(pZ3ZsuzEEUW/5r4qVINqeMb2fxABmBvGQACe/t5ZvqhP9946S5zw2+VQu6WaMneO+lS++vX7r3/+9lPef/3tl5/+9u2/Pn/z2/efyp8+5fz5x++//eXzb/GvT+XPn8pX3/30y7d//eWnf/z4zZf//vnrNXL96+8//XP9wr+/4PattQXK+3++/CEdW0v/+8tfvoz/4fOPND7+MudHxret9w+ML/ljv1/GNg4cP1/G17Idlcb//raP8XOrmcb//vRz/HFsveH48TK+xRvC+6St5NfxZWvwPulcvcf4vs39/fF5q+llfN+3DOuft1Fex+etwP6WLdfX8XXbYb7lXI3H+GM74PfrVvbX8X0rcB7qNmS+Y9thfY4tHzYe7kvsftL3mbBfbUtVx/++wu+Mb0XHt/H++L7t2cbDfPtWh44/4DyPLWddnwLvM87b8Rg/twTrE7fv9T6OfUvwPmnfSlLAgAOdku7wiDtHT8g65QDQFqRyzvAJMOEMBWC8XuKRt51eqW6HP4Fe6dj2ooBOq3TouQgAyd0AjG5zIEHXtmqTPuiV2jaLAegJcbarAuguBECE9QjlQcs6bJUO3od57usDEH+hSc9tvALmjmcpFM7xukqTT+vSOK9zmPmUsdeA+N9VAZ1eqZwS+glAOj+Edn0V8jOuFAEO1WoBKCBVQ6yWqYBKgL7loYCDVinUhgPgAgVANO0CgCYMUSlC4OaVSmh6WyWadABmMwCcpRIywjaOrmiQP6Ffk29cKXpFA0B8toTksyeQuC9NGdjNaS39FFt/8AItBiuvlHBZa6hAmfSOorKmc1+fxEyFVar5XPUHYCDNe2PVD0A/L+01wIjbaCg1AjCzAjIBDhP3B6qsAMxdAcR9qh2NABQgM7WfXPMBqMgOq6usise7ji3ZE/CVht64UXnjpin2er7kNSM2E2a9ElHorDZMAHa4D0fd+mEA2OkjuIYD4AIdQ6VGMIEB9+GYKgQWdSBen+xolNM0uAZkW9Z8zuoaEC8gzDghM27V7nTaEs3hUC0a3DvDxrWmpzWsAdJxAegCGCj5wvrNrxsX9gwR3QCMrAA6Gm2czOIBaHgfAjCqAuh4t6k7HTbxoCfMrQ8FkBOjGxMIK528BgFQM7Si2d3TeSEfgHJyg/cAooECQDu9/BCHvlKmJ5RzTZ4ApB+6+w7Y17MOggDaKamuASZm4vBVmvRU91b8RALZGjdYd3qcHrVrQD7dTc8GO7zSEoxFAY0AVV1oITUqvVKsuki+hObxaKZF08mVrwFdyfoSlfSErm6rBSA3SGyTeR3oLAXAn0COwGB4yQB0lgLQTD8QMw7S6auUQS4FwJ05JMimeUsDQGImiLPYon3ixgVA7/REHbe4vF0gOkvLGBa51E8z6hpQLlyCiSZd1PBbgoee8BCMT4Isg9oNQBO5VNELNw89GiGeGz3hUK7RM5LEAExzROMqPdbkAUinE+w9gBDd0HokZmZXX3eoemL3ARBncbCPBFJjji2/TjooF5n4ARDpHaSODL851VfZ2EcWTxCjaXFlWtZxMrwHoKB5PM3FvGwWWiVz24XtmOjw9dMT8wAkvg/9dGU+APvJZN87S8KXykSzbDa9QGXc3Thh96Xx4QuG9zrpwmwmACK9S9hdJL2rzaHyKpXT3H4A2IO1ROUwAEtv0XEB6PSErLx1eZxYoVSbww1AV6mghTKNeweAKFwARKEUdtsFE9B9yKiygpyIMA5AZkCWJzB1GN1eiW9ccL75utN53pFEsR/yQIWyvEmvG5c5tDYshpIbWlmLGRcF4ByqsvtcMToQZF3OUuYrGoD91eDI5WTj79kPYoCvEDI94RGeeAKQeTzMc5JvztIjwv0AsMHR7T6kiVKjDzXAU9wQUChvlPAJQPqhm4WSOrpPgxIKdUjMKru5T1M7yfV75rGEdlcMEIRxf2jlJ0ClVSoqvQOAcygqvdPD/f+eE0F8AgvAbgqddD1l4XuAlAxAG7erQknsm2lT5dIC3PiXbJVICLgHKwAZTuvykdnRIDuudXX23xyNABx2NMhR3poGUtOBFnsAJC4a9+HGGyr2w7pAtKxVXfGpsUc3m5jp7Iqfau2GICMT/2hqT4dsJTFzZF3WUCh0geo8OeSzjiNAV+oQapfmUA+1H0Kxk7ivD9L5RB1oWauTxB2TWuquCR4BIPM4rAUl6zsKgQAoM+a8vWJm2WJkFAweNmmOWnpcNABEHUpXH1kASLaWpvb0CkBTuLmpxR4Aij8Ucz2uZaVXOk6r7QlAGihMJMnXWLyVAEUDFouGUkC7qJM5N0zZKubyWqySljXpTmc2y9YiGucjp1oxT+KSS5zrIBb7ymOFJ2TzhgaAuEYA8odk60rweBUzwfmItwZAwmsh7jGrZSgzThx/yGZlhVIkwy93NQeWYidA06ORHlGV9wC7LGvBw5ctCJkKOtVyVQ20MvxoWav6yBK7i7I5aFeWIj0hW6INZyNZFu9AGysnJXADzfWc1IgbZ1rp9XjLuuYk2HW1uo6H+S7zK+v7UObfVF01cP0v8vg4769bTgR6KJfpJRk/SCXj2jbJmEOJnezSTJS/i77recNs0Go2yY4HIq6gGPWJMwOS3YAANMo3NSWVODEyueXG2Q3rkhsAT9Fu9DyhO3NJhaoAmvS0RUooTN3QyxwtNjuPk/2HvX/Ge9OVBqeMxSLdzMiCtkI7T/EfVAVNHUMxnuSiscFUkLZY7mFcJFIc1VQZp4sVMyAP9BeWC7McVaXGem7M+CtvCq1POp1kz0Y8XXrNEYnxXGzUzQdGudC7/X7HnN1d0yxDEA+Y766JPYkTDnc1VxYXwt9XSpoxL243HyEXW5gjdaCdvGsad0fLZteQcMN8HuMcx83aSNZJO+tA3hkuFkrHkGJSXjzQrkxq6b6Vsbw3Xi5uxlzYh2Z7EiS09JattS4iVuVNO/jknnDN2FFRWMgrsY27K39bjIsv4qHvT0Hs3ahARc1+dRFZ8GQRDDsSyt35OXl8d5X7HT03u1bmNLRGds1UOtBg++DwpDq04rubiqho25kG4rRGU3D8MqY/K6o3q5OpqE1M+1dM761K1irajFUFYEV3yGF1upwJrJrkg8SuYIjQeCPTOqOlhRPndCEL3m0j1QW3yTg7r7uZBBVDCG5yVC6JM8nNOSBuNFXMm19WmdRT40FIWctIDvYEZNVUfEmW4arLn28sY8mEYMbrwQle/8MoMmZ2L8/Bq+bZ0U+69GSR8ZTt656PnffLPCs7kjr33HCofnmG9P3JInDP0205pRQgJCwHX54zMeHQ4s7JTOI7T6F6YvA8L0EpfnDMqs/FgjboSVrSSeUD5Ru+KZ23+3tX2VlkPOUYZMuja+zpbMpGOItumQFGpbhutJknleY73JAgZrfsDPX8UQRs/Zww38SuXStGSRkzVZYr0Rz4dCRW7NSMlZvo0fEha6W4edMw9h8A7ZrC21YefrIHYCKRLEUnvQQdrZL1CMgJTcAVWBRARhO2HOoNWPyV5nAoK3ujpNeApkXUuXLYr1mywIGn1UPImfNIPEi9mCwBLAy+JNKHAu2rBwhtnIXyb2TYShawlArijCsdoX9kDivhoSiAUltqsdTHym1dDi1RyI/yxWuAJd9nLiCoFkNaLiHqBGOtb0IIEFc7rDx4eRU4PUfdIpwa36y2JO1YwtYs1smBp3ZYrSKnklmSVP9gFlbHZGlP8xr8/pZHNtDh7olqA4uhPROOi4E81W5g9yfP5RtccWjJgtwdy7MRB67/SndU+kLm3MqnLB8Zb7kpTHe6tYvisopulU+T83KrRZC4XVc/NDFlBQkpgbRp+6EAUMrFKgYTCySjidC7em6W85GeMCxLMKNLbuVHm9zC1HkPfBTct5FU4SwSSZHIZKEebrcyspZxBwALMrPmXaWKPuZRLDpUMSVv9SSwnNabegG5DamjuBuHBZQ4cWEcRi129o019ZDmhHGWVbdhqWAUk1ylt1kBlDyyOplIZlfheuOhPrXlsqMCA2v+EADaOK/QyRzY8xqgRbWpFsuqjDL3yZnpgszf1LlqXi4X7M+spv+NufDW9Ol5lajaq9jRqHj4pnkvVv8/WqWqki/zFV2FsWIuNEyCDUCTVeqYgzGbzaGjzp3NiPBAX/0ql7QUVaz77io1Chu3c6hhGAY1BcZXnau4XTvaSAEQ8zmMIEqNnFNDbPVAT08AxGdwcCPCOdW1GwYE6Ye075rf2W5qDafOOggmbrVJss4ZOl4/3Ll3j+/cTcPPdTasqQaWP1qVdRAciomsOm4hrTu24plNqcC4LS2XTIjVLoLL473XIend6c2vMu+0xfdGZgVRNVd4ERxuUyBqdHAsdlrv2MHlXkujJAXgfTA33Whclm3u+dHuqnu1JVLn422pFKMj+V6t32TSA4ux5m421sCc7YvGIAM37qL1CLtLL5qbcALwap9iAKpLWizRlpUCZ6sFzKEAcjU60x1cVrHa2Fi7Ocre9HLgcTCXttKQUbH94rDy+HFTDpzUnh5ci756AVlLVTpLqyWSSI2MJkq3Vp5vJch/0MZfJcg3jaOsUQ7ph24dUhfgpvmVvRLW3rofJ6G7dDXw8g5HtEq7tUnOGLltVmu4VNZNGarpOHK9t6HOw7dmVe9696wnMaVqrGZwMumC4d4AaPfpgmy9NWtdyN0fWtNA0ajIQ9thcolTKpordo4GtKL2QEg+ir8187WEbM0ESOoJGYMbPE61mgJAMcTD2vMuq586Qlo7ocE1GRdNKrnX4VGsI+REpXhY86vlJrhp5SmdalnMrMY71tqWJJ+3I51sP3jD0wCQo2+1VE32SgTwfr7c+ny1hU0KwGU9tLvo5CSdWpXzTXYar+a5DqCOwUWDjquxDa2SMYFZ8MZV63szmTrU3VzxBwqBYib7cnVwI2adQ0ezbLV6Lgogp0CxNmdz4H24aFc9uOW2N8Tm4vWLltvjrgu41hoO9LVctA0faCleNCYfH219PlAIXDRXH2geX7RvH8iMLxrE30zaW9AP7orvTe4Hp+54G/3JuWimdif77VbuWVcArtKunRPmxMSala4n4bL9JoHQyqzjESQr0zDB1Li2wryVN03rV+2CzPoRfXoPIEldq9HlTf2nNXzHtF5niRNvUDKdtWx8/iCIfkGko/V68Y2Szl8y8q+gdK5i9e+sdDQgLr7kwq7yi2/FDIz5Ja+QYnk/LV4+kC8N9W0u2ooVnZKuODjg1420Mo921ykfo2ZGIruWvOM+e5bcb8oJLP6ZG05IOYyj85GzwukYj8lfqs3XJwmwZESNvcrfnjDDKiMZzsojbzwZ+aLBO37JSNPtO1dQJvv8FFfgWKZb5wroXfOZGreP3619akGv4a7rE3ZlxvHiu11BJR7/+j5hCfDn9eQ8F04I8vF3n+/TXn13nwfU8XefH9SOJ3efN9QUCy7JsjYyiePuu/VH4VSa3QpB+dsxXijIn+UyfZS4i/huecx346tlM/H7aGeUu/lqptHdekoGwO1+ify5PQ//5+c0bXz84+3bnd99/uGHL5/+fP7/+q3P+NOX74SWP/8X);lineShape=1;strokeColor=default;" vertex="1" parent="1">
          <mxGeometry x="1009.9992140786774" y="162.52219659919785" width="658.2608483341348" height="53.475718932793484" as="geometry" />
        </mxCell>
        <mxCell id="nPFasPomJ1m4DBFbavHR-45" value="Home" style="text;strokeColor=none;align=center;fillColor=none;html=1;verticalAlign=middle;whiteSpace=wrap;rounded=0;" vertex="1" parent="1">
          <mxGeometry x="1039.18" y="170.75" width="60" height="30" as="geometry" />
        </mxCell>
        <mxCell id="nPFasPomJ1m4DBFbavHR-46" value="Connect" style="text;strokeColor=none;align=center;fillColor=none;html=1;verticalAlign=middle;whiteSpace=wrap;rounded=0;" vertex="1" parent="1">
          <mxGeometry x="1139.18" y="174.26" width="60" height="30" as="geometry" />
        </mxCell>
        <mxCell id="nPFasPomJ1m4DBFbavHR-47" value="Messages" style="text;strokeColor=none;align=center;fillColor=none;html=1;verticalAlign=middle;whiteSpace=wrap;rounded=0;" vertex="1" parent="1">
          <mxGeometry x="1229.18" y="181.64000000000004" width="60" height="31.77" as="geometry" />
        </mxCell>
        <mxCell id="nPFasPomJ1m4DBFbavHR-48" value="Careers" style="text;strokeColor=none;align=center;fillColor=none;html=1;verticalAlign=middle;whiteSpace=wrap;rounded=0;" vertex="1" parent="1">
          <mxGeometry x="1329.18" y="181.64000000000004" width="60" height="31.77" as="geometry" />
        </mxCell>
        <mxCell id="nPFasPomJ1m4DBFbavHR-85" value="" style="shape=stencil(lVhdUxsxDPw1edVYlmVbz5T+D2YIJVNKmAD9+PfVNXNHrLss07cjaM+WVruWbyc3r493L/tdTq9vp+P3/a/D/dvjTr7scj48P+5Phzd/2sntTm4ejqf9t9Px/fn+/PfL3RQ5Pf04/pze8PuM0049Taic/px/aVT6vx++nuOfDs+X8UzVhnhOlACgKPU2AjJJug6QRlxHQCUuAJCpBICR6nXAlOK4paykFQAKJR0A4kmDHHIiG6sqhRRUyVNUGQCFycCWuJDkEeCvAFtioTrm4FRag4A2Mq2NDPDgAOsDoAoVAQAlHqtUOxVAHHeyMYfmaxrgoUbieoJMO025jAClDFZwmiSs0EgZCCgRj8T1PtdtG9ApjTx0g0xXT1oioADivIisEYAU15k0x6QbIM5TDIrrdc5qE2ApdqvzIIA4E0or4hiU1fx9PQIU6MHcNXLMAVml9VnBF1XqQA9m1EvkoaAtWdSDMWW8goyKs0yGAIvkF0CZ67YNcF7HKnmhUfM5cU0jAGnaVoqbAGBLXsTUV1sCAnKa2FZJgyp553SNZe2AuMlURol6VowBEgTkrQFsxnszB4BLFFVp6c3L9kYm4N0afMkFhJjOG96Kkvaq1xwBnzRfOLI8B0bt3TeMTFAORjVUyVUOeOC0TAoL1Yu3XV1ipVGYdY/zj2sKitrLxFEQyO+3AUgQbkMBYHBgamXlZDZzuX3ILSbxMYfimcynF61xCWTHflLn1Z7QGVQkKsKpyYBqH3XDSe2V7miurGTBXQVaWeZ5ernsPjyT2co30DnKTCkAhDKokmc4tkazeeDfLtLsQkt8mYuwGZ/iEVcbnHNX+pymVvj+PMZPYzGgIMXJXpfpabugJCNjZRlir9SnhZtDgsdhozrWXxTqhlcJ++WnAmn6PUDHFfx6BQF1tqsFwPPNYLurJQIYy0B4dRrOfnNtqg9Ngf3OKYr3vXkc3bYWie6VYM+pRj9NsEC63AU/4j/xxhb3g/L1O8l6/8itU5zOGdbH43sP8Q1ouHI8AvM8OlyLb+N+BH4xmOJH3y34CsbxcqGQX8+3jfuv0EPVYn0q/Frw3195Po33h49PSg+Hp6fzF6nL/8dPUP7T+fOV3P4F);lineShape=1;strokeColor=default;" vertex="1" parent="1">
          <mxGeometry x="1693.1717721970776" y="161.82483200904267" width="40.47771711818177" height="55.079544253722815" as="geometry" />
        </mxCell>
        <mxCell id="nPFasPomJ1m4DBFbavHR-86" value="" style="shape=stencil(lVfLctswDPwaXzEEQYLkOU3/IzNxak9dO+O4r78vXJeOCEnbyc2WsCIeiwW4kYe33dPrdhPD2+V8+rr9uX++7DbyaRPj/rjbnvcX+7WRx408vJzO2y/n0/fj8+3/69PV8vrr2+nH9Qu/brgYKPAVFcPvf08ohb8PPt/sD/vj1D6SxMFeqQmwz8RtsGemVACgUiwjQEnqOkCYoo4RMLUIAIlaHQGFMnBJKlUZAPYJzuuAJFTzAEhMta0DslUhDAB7EkEMOVMdY8iVFNRNmcp4gipFUDgtJGkAlEic1gH22sVQlBI4oTTSkXrVsgSCrpnyGHTVzsZFQOPO5Q5ogbICgBHBARIldELrr++ATAlkicOs1E0h++wI10HmpQIy2eswdlAzboAOakZXB7CwAL9ro8Ye0AD7rHI6B4AYjAlJPKCAQpRCNXgAA5dKptB8liIDgMxiKLghhJI7QXvtlwGJyigbxr6GXCpe+qyUMK2BygyAOqgmrzMtdvVco4Znq/QJs0a+mDwgIYB2oZtkiVGP1j4OJj0aUD8YN12WtEe1BphTQ4D02WvfQJUEiYB5POsHNCBM+mL1gIIKZ6oxkm8iVcuI2D84OaIC2SjzQrQ+ZNZ61AtTpYxGykcBNgTZAWz/AWlSG4IjNyqWDZvLbgZV6aN4GRA9N6zNFWQpWWEdQKBLyVRlDNqGPeMFyClZbjCttpPpSNd85+Py1pf8Gppid3J5jirVsQ6SoRqzLa5u0bWpiKTP181W3wJ2h9y/du+f0jfZ5Rx5IpmHEYgME48pLb0oi+azNSPCPT347o+wXqEvFHfnSUFu2O/DDGez+C0sdDqtZD5HZ458t02BnXlAvt838Yk9cN7KqDN7VNfkNSvA2XFlvjj7ArqdZ0S2VkT+ty6A7/YFXdg+eoP8r739eL+uvuwPh9ttd/reX2/t0e1qLI9/AA==);lineShape=1;strokeColor=default;" vertex="1" parent="1">
          <mxGeometry x="1733.3278031456625" y="152.31984115494163" width="16.711528824294874" height="63.14692598115175" as="geometry" />
        </mxCell>
        <mxCell id="nPFasPomJ1m4DBFbavHR-87" value="" style="shape=stencil(lVbLbhsxDPyavRIi9aLOafofAeLUi7p24Lht8vfldqGNScsselvLHJEzfGmKD2/7p9fdROHtcj593/2eny/7KX6ZiObjfneeL/I1xccpPryczrtv59PP4/P6+/VpsVy+fpx+LTe8r7gUIdUFReFjPcnQ8t+Dr6v9YT5e2xfAqOyRIcX7gBwgFAWIwfWQJQBSAImxlfuAglAMhQLZAzQg7aGUHuQQwGg51AJc7wMwCOugEI0g8n1EaxBRA1KnNQZIIpoGFKgeIHQVNwD33I9ZJ0CtqwSZHQ4iSta6XukwzgQDR+vCYy255mZJlORUU+nVuQGqG1KOEMgmonkeCILxQFCcahIPOWtAgIQOoELSITH3k7FKEUh74ALNIV23AK4AwQmpMqAuJs7Ajkryd2nWg0daRCQTUnVlXfKaNKBB8gDNzo0mk8SRVQBsSkMmk8dBEnfTo+jkQUg3MzaqO/t4m3RXDUTNSVwDRAvwyrsixGQB7E3XZIelALzpmtkmTkgXv0WtStnvOGlRtolzl9b/AmKFavoh9GE4BBD3dtl2kAwyp5YIoemQRDdyVEJpSA1IWw+OawmybodIfU+OOUPWxY2yw5ws3KzE4jZPsDMsu7cjVK1ndDd0gqSDIchOftnWNLoDGMluwuBWNNZbe/SKgWy5+XuWau/xT3tyxIyD+9nZ/LHY+7GPyrH64l7vzNiX6NieIOliSG47Dl+1Dt9/v4Ll4/MJ/TIfDusL/Pp/++SWo/W5Hh//AA==);lineShape=1;strokeColor=default;" vertex="1" parent="1">
          <mxGeometry x="1755.0012825179797" y="178.99801464544942" width="9.196176964530878" height="31.13237190246673" as="geometry" />
        </mxCell>
        <mxCell id="nPFasPomJ1m4DBFbavHR-88" value="" style="shape=stencil(1VfLctswDPwaXTEkwec5Tf8jM3FqT10747ht8vcFq8o1IGmTdNpDb7LMFfHYXYID3zxt7x43Q3BP59Px8+b77v68HfjDEMLusN2cdmd5Gvh24JuH42nz6XT8ergffz/e9ZX96cvxW//C84hrkbh0VHAv45tYyeWfbz6OgP3ucAWoiSorQI4U0zogBXJRAVqa3iwDHPlkAbWuA6KnmDWgUC3rAA6U/AwAcghsk5aQSlsH+ETNADxVkHSjoHOumYIHOZNvan2RLzAIiJz+fvHE4PuOnNNdDtTAek9eVzRFSgHFz3p9zJTB+kYxqPXcKANO+Exes44jOdAxichpIbCbarwIyMI63YJQ4A5FSKRzlqx+VXlZatGyjnFRG1M0VWUYUquUNS0SY167OTESjqkQ686VAuXf3CT2ixTKZAjLZfLWwsTUCuBGbtPfF0CDO6RZDgJAZYqJguZGE3oDeUpjm8lBCg30JlwzgqgOCkgsLBrfFk2BPnSAVpCUISPALCTRdARHSU9a94HLJMK1shrXEI2iHXrjdNISJAPJ5UtfrwANJN3JZ3II0Fg7vfUO4mQNkG8uIDkg0Qm9pFFPCQhibgPiVTCJmdGIVyG6diszCpIzGLS6sG2EBOlR58SOdSOu6vBGA38N0ScTM2j8g8kkzACvTCaz6aqCHP6PyQQY2eJkAtb/lckExP8nk8nsVEfMfvdkIoBsQrockcusk+NKA3qQqMcSgKEp1kG2OojQ82QKqXq9GBiexZomBRZycZYUjgKIv9TJ3S7HwmSAa5ckM32KZoBliwSdMS9PGRmwDF06YV/hCNPdU0cU0nQJWgPY4ZMpIJ8olLSQhSXoyvDuq+cbAPLw+6b7sNvvx4vy9f/2Ziyvxls13/4A);lineShape=1;strokeColor=default;" vertex="1" parent="1">
          <mxGeometry x="1753.1061536186162" y="154.9603504940285" width="6.009605468160771" height="6.357213066935969" as="geometry" />
        </mxCell>
        <mxCell id="nPFasPomJ1m4DBFbavHR-89" value="" style="shape=stencil(nVfZbtswEPwavS7I5f2cpv8RIE5t1I0Dx73+visIVLUraZz2TbY41B4zw+UQHt6PT2+Hgd377Xr5evh5er4dh/BpYD69Hg/X002ehvA4hIeXy/Xw5Xr5/vo8/X57GleOT98uP8Ydfk24UCmEEcXu9/SPjxSnfz5PgPPpdQkIxNkCct0HcKEUFYA9efAFZnI6JNmitn2AL+R0SCFRZQColJoCxNKz2gNUHVLKFBzIIZErCpC5l2G7rExBh5TnrDYBMdgqFSZO+4DE5J0GSKfBF1Kj4jWgUCj7AIm4NAuIIKTqLTVy62XYBkjEzlaJQVmrhJQ0IJMHOTRv6S0ABvRukVKyISVQ1lb6foukK/pCI69DKtJ7QD7vXH8/IzIl/AnT6uqgIJrYhgEEyqDVLVHTSdTce7kNYGo6h1qJPWh162xeAJBtVAmpWgBkH1ONNoeC2Oe6XmZAJA+MqdTuW4s+VJC0AIJmn0jOg5BKI6e/IGRKICQJoBj2ud77bUCwSYsgKnKBTNmI+g41nHWyUdQgpCYprmzDIUDuvrXQKJKc6CFrahQPySeKM1wqiQJSXKNm/F5CQoqb2T9zibEJ5BW9038AgLkK+6t2DdkCcUlOKGPfC2/bPoPErTW/x0qDmOQgr9kCAshaRoXgbBJIcjJise7cyEcQEjcravE25MYyUBmNSiPQ0e59P3GWRztIOlu7H00ATVidmovxp4H9VweWTCsVtNn1o2Ae4EKXx876qLUgEyIaA0Qpen++4zDk9f4+w3zlddaAeYfteGL3qzkByIhxStcywLJZXwMcHCaDuFE06xHhoreHs+8D8vb6uf1zA8gBjUn7azH1QfyMcmfR+cY+4W+vT7b+uTPqg+vFBED91/G0bksfzFckjWbzdUE9w4Fto2My4YGSrikhF0NGN8l/vnreB8jD35vuy+l8ni7Ky/f2Zix/Tbfq8PgH);lineShape=1;strokeColor=default;" vertex="1" parent="1">
          <mxGeometry x="1769.0918025328178" y="166.83322009962637" width="31.067074316244543" height="29.51027776034539" as="geometry" />
        </mxCell>
        <mxCell id="nPFasPomJ1m4DBFbavHR-90" value="" style="shape=stencil(lVfZbhsxDPwavxKibj2n6X8EiFMbdePAca+/7ywWclbc9RR5k2XNihwOD+3Cw/vh6W2/8+79ejl/3/8+Pl8Pu/Bl5/3x9bC/HK9Y7cLjLjy8nC/7b5fzz9fn+ffb03RyWv04/5q+8GfGaRUfJpR3f+cdL3Xe+DqfPx1fF+e9kxSH8+pElQCC5PECzRITARRJxiIvjQCCl1BGQJNSCKCIjoCQJfv7gOjF1QGAHd8IAC4aQJZEfEhBYhsACV6RG7JK0BHQJBKnc5M8AjJMyvcBBT6MkS5KpVERptHpAqKJD7WJG+NQVTzxod20eQOkTvQ2ADe4AdCChHgfoM6tEFEqoQlXpNHrBuJIQrQiZQw1diqxaTJgjFyrneltgJOWRwASgkUO8rdJfePhXqyN/BrPuVI7KQuAIxlRkoRkaWrEiYIUyjYQiQF8/94i1IxX3FC9VRMrZUghN/IKBbNiWVpX5w2gvfRsxwEGGLm6Xkm2AaWHaQEITEyofWoBhQGS5Gp9yEzf1dbvKc9ZGWirOESa1RPAmJSkEXnDJNODID5WjqfvGZMqdxoJZACNqrXWrpwFoBGWII2yuoE5DfGZTt0apRXy9sk6HVg+hN7IF7Q60ng/D1Appgi4Xm6322Kx9R4tJZN6j8ZbxhRF00rEpIQmONIK3lgCofOb8o1KlYk0YpI6spSxQyId1dZ7eMUAIUky00YSR1jCBJZH8cVK5e1XPkTEngTOq+jIUqh9nNhu7Vl0vCEoHeIw2JoE8lE8k4ZtQFqoz8F6gBtZh0NLHoWEDCdBW00y0BXpPRjs7XFlk5JVhPZxcTtcVtOux3tbobZLOT4N27kQbxJW3nsN+TjOhh2FTlbnmXAwYzprPdGNps70ghxmT149qWgLhwxNR/Y8Uz75Jvz/eSw+HqAvx9Npfr8u/7cPVmzNj93w+A8=);lineShape=1;strokeColor=default;" vertex="1" parent="1">
          <mxGeometry x="1795.0704921327438" y="122.05908008845745" width="21.136724368849627" height="59.43905958181983" as="geometry" />
        </mxCell>
        <mxCell id="nPFasPomJ1m4DBFbavHR-91" value="" style="shape=stencil(rVfLbhsxDPwaXwlJlETqnKb/ESBOYzSNA8fp4+/LrbOOyV1PUaC3fXBEkRyOqA3fvD7evWw3Jb0eD/uv2x+7++Pjhj9tStk9P24Pu6M9bfh2wzcP+8P2y2H/9nx/en+5myynp2/779MKP0+41inphCrp1+mLUup/Pnw+2T/tni/tCxVx9llIynVAHZQ9oDSSDABMLTkAK1WwJfs9mgNUmX2uAxoVdoBWicGWOJH6LfVMAjxYiM1nVRI1AMiDhs+SDKoNAISaj0EyjQpjkOEBTKqgDpm6D1oaVQBoBuge0KkCanSmEgBCfVwHSFmkdcxLrALUqOGD1kIJeBglBm2ADuowWkyr1rmj1gFKpXpAp4I8DOqhQy0qkFYDDJ/WkUkBvQ2QAqBSRx5kARCoGrZe9jFYGhQB0iwqZ8AgBVlS20CNAJQl5dhAUxqQB+vgFoNmABCd2X+R1oHofV7vDDC1BYUzQPWqoQMKmW1JfOGMfO+EXw86UwoeKgxaF5W2BhIQtBUubqlQRmzNVDkCGJMvqPdUe0zvQA1t8AQy5rCvtEWFKp1TouT3ZIxXIN/monqdGQyPUQtCQ0N0yA1TshLoqrDUVoix6FEkG6ZbcXb4yMN/QvQRCWthNzTQLOR1Ej9Qu5ZmmbioBKITG8OD0lhbAw82PYSD1Mjxzvl1OtmREwircHooUSynngP2C7YKVrJG7HPaOzync15MZDYJALLa+JPDzDegaljI3Yds8w0DIk1zcHYAZtgO9jscu8UaBHgwXoRJwOqIYqgmEV4DKpyvpgnO9wLPdV+3L1EyMjxzqx0F3j7RQPtf3DUSFTSBSswo7n2jgEq0xwOrpGCPGrlxjDfDPrZbhXgKFcig1qI9z6Rdt++z+3PXzOJ3zT4MJH2ep6/Z/9vd8K/29vBxEX3YPT2d7rGX/+PF1T6dLr18+xs=);lineShape=1;strokeColor=default;" vertex="1" parent="1">
          <mxGeometry x="1809.9364877955218" y="136.8656709489885" width="26.941652619112574" height="34.19092636382868" as="geometry" />
        </mxCell>
        <mxCell id="nPFasPomJ1m4DBFbavHR-92" value="" style="shape=stencil(7VnLbhw3EPyavTZINp9nx/4PAZajRRTJkOXE/vsUseBo2JythY4BdJN2WTtsdld1Neekn3483H2/PwX34/Xl+a/7f89fXx9O+scphPPTw/3L+RV/nfTzST99e365//Pl+efT18v/3+/6yv7X38//9F/4dcE1ybGDgvt9+UBFLx98uSx/PD/tlnsnrk3rixS23kvz03ofpWQCUCkG0MYjjwFJkk6AEEULAZQFsB3CMQBf1/mMkrh6HRCWoLVJIzFgxzFPgBglewIoEuYnxCaBHCtCrGECpEiPVYOEMgOqVCUAxOAmQFb+hCJtzkNu4xgOAdGJn2u1qFSSuKji58SVKp5sKSapcww1SCZBxyo6H2vNlA/JSZ0T17xoIgA/NrABtswcA8L4vQ0ASpNjBSDPlG5REoshLFtKUlgMweahZWmBBq1z8TUUCwvaSTBbQrWSLSFxda6l1iQ5AgDjqgU0BkhWWb2DeDJEHF/vHlGJCsQgcdkTU+/oxWd7TJkkolPO20TkG6SeCYFyjWRLAOhcfRUdhaRaUTpz0FWHLhwDkhVXqEBkMUSpRjZuaKUO7d0pWWFaCY4a6cMmSR46YFHjwuXbiCv03pOehRgMqdFREmEQTsk0OVRXIzqDxKX5lPCJ53pvGrVCDDmBTB7QJys5JciGyQPsD4shIYY5DwFqTLaEHqjeAiIp71yHlO7sDIuhQI1N0ChvkrhSbGfvxUIA1dniU07RuvABSsWEDE1TZ8b14iMEqnW0g628C81Dc1Y1sh8MOQbAvBiKZho0emAyztjTFtSbprEzSQIRMkhvmftDycMGHgPaYpjK2OQ1gOF0aXxLzcp93Q766pbmxN1wWK3YU6oQYyKV/VhNf0i07SLTyVkAoygcm1cLUBJ0r9ZgY2AuES3QtF1QivVpbMC0LByrZwRKwxPuEhc5IJvSqKMcr3E6m2pFVCyGaj0c+EAJ5Kz5BsCxWlqkEo2dGdeWrCPrT2DFhxAXAJua4L+K2lNiXgMEsqoBC8fG3TfXuU81I0RbCBFGWNeCCIslY40a9t8Y104IdkxxeQKnXFtG8E5qxtE2CLaXDVau7wagoyxqzNx69XaiLttPHHf2ZhmUC+276B9t3lIO9HYGfNF5S3BESjKNHhjmJ6CzZ/IE+B9TGv0qhBwrnHOZ8wDfyLaUFxXozpSNr0vP6nac1FLaTOTuwohNHMnZTGsTR0gdF62MSv0PxlejlW/e9xiQbQw3Jo4OMPc/mfKhj+CmvD1NHCrH3Gygfhkf0mL6qqdmo987mK64jacftzMftzPePuL/djtTl9vHPKK6NrNHk2pskt8KmGKCD4zsCcHOiuAoK6bQ7LFCBSq7+i6WEIXP7Bi403xK6DGZBI2R3ox+GC5ZuYaFEGijjBC+DO3dAIEOZj5a+QZFmOnzYekogQpTs3KvZfzCsROwZ6SeWr5kW2LIVFl1pGhbD+vB3hvZexafqUF09o1LpURYTLfSaN14obTtfgx0V5ZHc28ljr1Us3cZnr/kG3wayx2dVsO6nLVxtVc3iJ21Jztsc5nOthE4esdY7AWgG9w/tuQSTNFQA1ItCf3wqlcotWSVqcg7X93eXI4/3t4Sfzs/Pl5eMu+/t2+V8dHljbR+/g8=);lineShape=1;strokeColor=default;" vertex="1" parent="1">
          <mxGeometry x="1841.9262083403655" y="100.92744881183887" width="43.04576943530992" height="58.645244333287906" as="geometry" />
        </mxCell>
        <mxCell id="nPFasPomJ1m4DBFbavHR-93" value="" style="shape=stencil(lVjLUhsxEPwaX6f0HElnQv4jVYHgCgEKyOvv0xuXFs/suhNuZu1G0kxPd2sP+erl7tPTzSGFl9fnx683P4+fX+8O+cMhpePD3c3z8RWfDvn6kK9uH59vvjw/fn/4fPr76dPyy+XTt8cfy3/4dcKlKqMvqBR+n55olpj/Pvl4AtwfH84AOYpWCwgyEgF0acEAapMeLwNKlW5XqEUiASxfW0AZEsgZNEpWCyjzyT6gSXWAIKESQJeUDSBn0UZXaMMA0rrmPiBJTxYQpXRSJZXWDCDqLPR+H4ZUu6VYpQQCiDKCB1TSuJw8NVKYZdgFpCzdAVQGAcQuOdo+RKnkDAAUB+gS2ApNiu0D+NtI4wCobh6yDAboohYA/rJ5ABGiJd8bu/YBVaLtdCv00Gico0ZDGQoBDFE7QD1IJSNamiQ70z1O/l4SgWSr1EEWJgJJQrEAfuiG+cp+hUIGqI3Z17MzMOXDBhw1UKVEqNGb73TrMsiWRtgBFLKlATdQD2hE7gcMxa0waB9G91tClZQBxmTOWR+YA8UAsXZ1VaqVWKJYV+zcUXCIYFVgxKk8l8rU7AqodCD8HmkK3Qoo1Kix41E9IBN+oyaj+S39g67ORrFJNhA9Tf9YAUEK4zeK6BrXqe8C4OjaK18BKmD1Hk8GoQa41pwwBWqjKKsTJgxEJhaExkW7JYwc8yxUPbYNgLG1StDNltg8QN2bPzTzLAyQ2xLqFplsbNiKxikHNNfpPgt9aUR1Qz5lAN0AYHtMXN8LQBGbVTIUmqVEWJDLP4sYslgJgMtwb2K476NJtPglGouJ1UddHKKSzuW2OYTyG8TGtCBMjaSNlLzxLjpDyhTL9LQz9rEVwFanGpHSWyeX14GrdOAgvLYJOnio9EEat7hEFCDM1c+uWCw3bAwUF6ZB6hO8leQ6Y/J+x/ylMnVqbuqzW+KROCafcKNStVgq6hgxc83+7zepvtDfYwjcvTvQHFZQD/97OsbVWy2SJCGcbhJ9ksyyLbbrbgCSWHjuM92sDchTaC75rL/qRaqNmNhqO4YpLSwgYQQtidCUyIx5zU9rjzMvUve0rrxr0PexmUtWVq3SbVlrp7kTXzt510jzfI0bKaoz6+4zdXOJ0U6TbdbZ15VKYa55yQ/coVvi99sxL6crIM9XRpemeWwAVC7UByRsiQnqcuVOHsAEAJbgAhLIohwQqi8ryzuY+GJdU/kAAZDsGXRVqUsAN3HKnR+Abn0W5GNsxaH9u5JCZQYyrZv3n8xp3/3C9D8A+PD2fvb2eH9/er17/r1/n4tHp3fB+foP);lineShape=1;strokeColor=default;" vertex="1" parent="1">
          <mxGeometry x="1878.017460942649" y="97.79964527295738" width="35.116651849219124" height="41.49548996903957" as="geometry" />
        </mxCell>
        <mxCell id="nPFasPomJ1m4DBFbavHR-94" value="" style="shape=stencil(7VjLbhsxDPwaXwlJlETpnLb/ESBOYzSNAyd9/X25dVc2ud4xfC16cxyNKZLDIakN37093b9uNym8vR/2X7Y/dg/vTxv+sElp9/K0Peze9dOGP2747nF/2H4+7L+9PBz/fr2fTk6fvu6/T7/w84iLkVKcUCn8On6TEpX+55tPR8Dz7uUc0KkkC6hUASAJRTYADpR4HcCZUrMAplrXAbl4H7hTbOuAor9nLeRMGQBqoBYsoFMXAFg4XQrFtA6QRM2GVW0KuJIIZQeolEFYG5NYHyabCNCIrQ+TTXClrkEUA2iZegSARsVeqWlYwZW6ks9mukfiDNgaAgVroqvXyIlxgwFQtwoEsE1EL5Ab6nW07OsCnehaYM6HRhmUnN74b70MQMcWks+cAhoouR4oWsBZpC+zSeawn5kQEKZWSLIHRATghYUGhaap18EnIiBApODoF6iCuIqG3V5JK4JB5kT/beMqqlWghCRQ71YGZJbPNWUSpxtxvuRlgPYD60OJJKAgiqapeHWNwIdSSVyHEKogDyVTsfzmCEuuJM+lpD0DA5z2ad8TkLgytHQA4pyZtSglm7hxx8tpiFSsCxGSuy6YFK7xwmkxrmclXvXnMyIqExd3f9RMpMyqO3JMAZ2vvqcXCkDB9LzTea0b5G/1rO4wnlrJ2eVL1QOV/qDwACTY0Gv3rS0yReByLdSyBySQs7oktYoBGnvCXFVnTjMq/eaj1OfSvnxe/PQp80Swdr7a84UY/X7z6siwcU5Dmu0Icabh5fPsG0KggnJcfRVoVYIxUjmxqErI6jQPEqf7w6rJnkJplo21qnH+DllarUqr7BWrRPV8aLhdlrkTneYWmIDbAYPwAyBwoVJAsC5MnEM5UKGwOdaiQf11GiEsQFesjCyUefgbWcNjtjQ/I+QGxU5ntWyjpJWKfGhjMhvESHMYLk+o0et1xYKtU7sb7jQMFVkQ6rYWdD5Egv1/3RmBu33dwXvnv7HuFA+4fd0BXt+87uj2Umxz6Lgbqhr7B4AGH2JUyqLNnF4yAPZpP0wWINgHVQmn39ryEuigOgGwjZLahIM8U7cFcbJ5+blqpGloH7aQk5eyaQMDeeDiO0QW6LRORc2tbPHaK2Bw03mDbJ3eGS01rvSg5HWJA1xTox//U4fqHRYbYYM750IBpskT5GAhxKnC+wdPimlDhb/vql8nKzT8x8V5hpRgr9ppiOZlkvrXRbXY0TLi11M9L0hQKSzPo97pB3O9PxKK2x/CrwP0w+nd/XH3/Hx8tj//v3+n16+Ob/z88Tc=);lineShape=1;strokeColor=default;" vertex="1" parent="1">
          <mxGeometry x="1910.803320137391" y="80.89343511917764" width="31.08261124746332" height="45.70862166645975" as="geometry" />
        </mxCell>
        <mxCell id="nPFasPomJ1m4DBFbavHR-95" value="" style="shape=stencil(lVjLUhtBDPwaX1UzmveZkP+gChNcIZgy5PX36YlrzI523Qk3s6a9Gkndas0u3Lw+3r3sd+pe307Hr/ufh/u3x134tFM9PD/uT4c3fNqF2124eTie9l9Ox+/P9+e/X+76f/ZP344/+i/8OuO0Sawdpe73+UnyUtPfJ5/PgKfD8wIQoqQZEKtovQ6IXjTPAJXgCCBK8xMglBHkNqCM37sAVHK5Dng/4gBoFhcIIIufQ1L8hCcAFTe/wRfpf5JDhzlLPkghISEnaQ7J49CNAJyUuXA+iScA5MRne2hH0qoIwGSp0Dqok9hs4VLkgDID6niyCfBNmunWOJ5sA4q0OSSUMpEs+WpbIzUJpNIIyc+tkUEpwgccus3tnZtkQlENEuIEKFEiS2sbAVwAbbxzu5eSpLkONUjOVATSHFLNEhlgVbhaKCCt+NABJEs5ja8vgMupNgHFSzMApYcudZXWIoWEhCRGnQGB6hIiVlNpL4F0a70Q8gJwouTQzY2sL5qvEAK1MLp/AWgkSy3ZtCIkpq2tiptboyjV1raaceCDIyF558SZykEMCYPwijTLBopPY6p2ZlU3hGQbkEVN93kqTCiEKTXaNbE3IO1qAazUtdosARBIM3WCeXsGppVdVWYAhKmQOiAAM1FAuUqUDAA1vZGkcIAZEIVLX4W6m/6Gd2AczSPiBSESq0OzaQXlKiM1ylRXANatcApqQ2Jq3MoYOItDs7SCQN7ZtEZO6hZs4diQA6AaQKFmAxQ1fCiNE+jDAEyU1VRUAngfmgMA0iY2UeDY5m5tkQoZlNFkCaVkIwhj1JwBaWjMfKM15jcs5PaaF/CzkvVacrdhHBMAbEeB7SwGkKn7hjc2RhRyy4woTJwZEGBtZL4yWRPX1ZMxSJxhXKVSmVbSqtTz4Vsz15EicmJndTIjBSSlq5Gb4sjAtd83ayX3ezqM0WINZY2NSWK20Mxt+mqnhEun+bfbVaT2s1rNxuahrIG8bVHPzSQ6zvgqvlv1ZczsVjxBySo2NlKi8FgyDO3/IRNw42r+P7ClHl+big03fU24TH7SENdtZQw2P5W6I4xUb4QxUHHvC4m5AuBWu6wcHo7AOIzNNK9uVjwDOGunwBp2nZSypQ3K6ElXJG95GbGBs9shHeNoISyN3XBhSTMbfaVLVReGuXAJYvyhzgaAmZ0QBlMWACYWKJO5dOtvIK0R3PCkC4BnbG7D9S6yxMwOut/sIyAU47+WVeEy3UcAMDM2Jbpvd4A5Q+QXVlgmjATA/LMhUletwa8mP3wf+x8AfHi//n04PD2db4+X39vrYjw6XzWH2z8=);lineShape=1;strokeColor=default;" vertex="1" parent="1">
          <mxGeometry x="1942.8725903940144" y="63.874952611559024" width="36.09770868545138" height="49.21077958281535" as="geometry" />
        </mxCell>
        <mxCell id="nPFasPomJ1m4DBFbavHR-96" value="" style="shape=stencil(lVlJchsxDHyNrigCIAnynOUfrooTq+LYKcfZfh9MVBwPMZp2ctPC1mBpAA3qpG++3d18vT1J+vb89Pj59uf5w/PdSd+eRM4Pd7dP52d/ddJ3J33z8fHp9tPT4/eHD5f3X2+Wk8urL48/ll/4dcH1Rq0vKEm/L5+0RL3+/eT9BXB/ftgCKkmdAFapKgAoFZ4BQlwAIBHnCVAr9XYMaJV4NqkyMQIw1TYBSibrxwB3sc9Ryo0yAggVmQH+ST4GVKMyP0HdqwQAQpomgHToQzHi+QmSiQ0AhLJNAO4QkDul2SSulIBJ2ZkzR4kzqQBApjr7wEoMyOdR78EHwQAmDU/gEberAG1kM5c4QfLp3umEn+BOpwjIgEsqJBoBFdS0pis+GCCfU01KjFICiROjahFgoAlIHWnaZFpA4pzMZe4aXEgBW0WozX2JGzEDAMe+JCtZrgK8XELncyMNUGMxYI6SNFJgktdXaAJOFsQlr6/Q7p2/qN171ENYs5IiwK4vZYOZdqr1mUvejBGX+hg3a7dP1EA5tJgF77Vo/hjJXJ+WKYNiKFTmpDWF9ufRHsZ5H3iGkkx9tqd3aigDw9rNeZRijz/H8xnYk8bkW883ElBoaeevd0AQ/zSit573qgHx3J+XMSX+0R6PP7Q/+Ns65E+K+WoN8oFHtNfzRhl1id3vr9rhet+KfHB7FLXeISM2/lYQH2f7XL+dIX80qjVXiKi+dOig9XyBvy+xxXUbkvXgfJn7ifPZ0KShFPjTh5w8yFeJwzUNoXQASLZ7ACRoEBSLA7CAxXYBAg6nXYILnHspykBPMJrEaYzdDYEUBDSNb7cEhQVpoUF7AQB/mWQeea8U2P+elxh/c+WO5Bm1maDGUMOWKP+qSydgTx0aYx3APiBBw7I4gEvC+xmVmT+u+xF/etzOFlEO+LNozzkBi8ZGE1WiJFgkM2rRSj0sW77/IVFThgErQIdkPlJyoesyntq8cnijd1EWlt8LTxDog/O6hUEDtwj3MG7VI8zXz/vXIajQAeedhqUDal3nUegr3jjQ2rTbgnCbVo07/npxcf28cyKH8xmVve0WFGhPXt17iSdaE72qQl/UUajXz2tU9oUSyG8uUZjVMQmPbgP6zOgGyz73cVew2VrRHUuR2Ei9rtFg9T4YpL1XHQJUGUp1s/GhBa62XetKcJaZxCp2miQQVbNR5JsFDqWtSVxCl0AD3rUad/tSoA+utwOgMlSAvgAEyVXr6B1Hl5QtXFL6johM6rEXGSb3iyTbAJBoWZY2joCOnxB0vrnT6Ga2j/a5AgzO/Y0OXRHOx1ceYRHQ0OVvj4PTtQ6qUQeEJtwSvHTsu+uAlmCNLtvtzI3Gr6U66LWGr5cdkPYAFNb/voR/HeAvXu78P57v7y9/GWy/j/8R+EeX/xf03R8=);lineShape=1;strokeColor=default;" vertex="1" parent="1">
          <mxGeometry x="1545.5420061791397" y="115.64343828029087" width="174.8736051834935" height="44.05641110697377" as="geometry" />
        </mxCell>
        <mxCell id="nPFasPomJ1m4DBFbavHR-97" value="" style="shape=stencil(lVfLbhsxDPyavRJ6ktI5Tf8jQJzaqBsHjvv6+1I1NjUpe9Lc1rsaU+QMh9KS7163Dy+bJYXX0/HwdfNz93jaLvnTktLuebs57k76tOT7Jd89HY6bL8fD9+fH8++Xh7FyPH07/Bj/8OuMS5ESD1QKv89vhFr+++Lzef1+93y5PtD4drE+durhNkA/l2oASQEFABqlZgC5U0gAIFTsloqQIAATFwOoTAKSjpWk2yIFajhCiAbQIkWBgGJpaB1G6CRufaYKaEiZcrAp1JWYq4CciG0ExkSXRDFbQKHWAaATW95YqwqUUZuvaq3EIAILZUd0ogSSFqHkIkSojK60sgcwqFLP1JvfUgA5dKZqq1Tz+uY6oFHpvkoCytr7WsQ3QKMagVhDoGDFxJEqDpFt1qoNmIRQt0QolxFFqGvLX8g1ogiZgjO+ALXR9XPwgALK1NSXit9SBVS3SkF80q0BgDa1aznc1C15q+RElT8CqB36zLwl9VZGVZqSroUiSnoqq3ZQAd46Ezd6FDE9SUMB0Iwn8emWOoowyVuT7shnpgaqAjvuWo8G3HKTDXCG2piNhnkl/6aVuaZWo8FEOLMcMwhRrXZsDxujR98BTC6AAFJWe/9P29COrFMEAYDRL+6wUaFt6BzNVn3yNlmvAwJ1C2gFGn7WIWiJ055CxqRHsmx5uNDj9RAUrG2ouhrgYVK32kICRQpeetIgz5GCTWAoD7CWPMs6dBPM1031UqGy2eebGvQw9gajx2oBzSzErtOIwXamk5jaFxojXj95tbNbh1t3ZcAXgOj9OsBaRiVL3PqE1KwDqbv1SMt6XWjZrUdnl9Et/v/RsXZQacnSeYauL933e4IHcw0vdsIWKuhuEf2AVbWCen74zvnuen34d8F92u335/vx5Xd/IdZX58t0vv8D);lineShape=1;strokeColor=default;" vertex="1" parent="1">
          <mxGeometry x="1538.412402341034" y="142.8425813945829" width="31.69687399135546" height="29.750607786689216" as="geometry" />
        </mxCell>
        <mxCell id="nPFasPomJ1m4DBFbavHR-100" value="Account" style="rounded=1;fillColor=#253858;strokeColor=none;html=1;fontColor=#ffffff;align=left;fontSize=12;spacingLeft=10;sketch=0;hachureGap=4;pointerEvents=0;fontFamily=Architects Daughter;fontSource=https%3A%2F%2Ffonts.googleapis.com%2Fcss%3Ffamily%3DArchitects%2BDaughter;" vertex="1" parent="1">
          <mxGeometry x="1475.54" y="173.28000000000003" width="100" height="33" as="geometry" />
        </mxCell>
        <mxCell id="nPFasPomJ1m4DBFbavHR-101" value="" style="shape=triangle;direction=south;fillColor=#ffffff;strokeColor=none;html=1;sketch=1;hachureGap=4;pointerEvents=0;fontFamily=Architects Daughter;fontSource=https%3A%2F%2Ffonts.googleapis.com%2Fcss%3Ffamily%3DArchitects%2BDaughter;fontSize=20;" vertex="1" parent="nPFasPomJ1m4DBFbavHR-100">
          <mxGeometry x="1" y="0.5" width="12" height="6" relative="1" as="geometry">
            <mxPoint x="-20" y="-3" as="offset" />
          </mxGeometry>
        </mxCell>
        <mxCell id="nPFasPomJ1m4DBFbavHR-102" value="" style="rounded=1;fillColor=#ffffff;strokeColor=#DFE1E5;shadow=1;html=1;arcSize=4;sketch=1;hachureGap=4;pointerEvents=0;fontFamily=Architects Daughter;fontSource=https%3A%2F%2Ffonts.googleapis.com%2Fcss%3Ffamily%3DArchitects%2BDaughter;fontSize=20;" vertex="1" parent="1">
          <mxGeometry x="1475.54" y="210" width="110" height="144" as="geometry" />
        </mxCell>
        <mxCell id="nPFasPomJ1m4DBFbavHR-103" value="Profile" style="rounded=0;fillColor=#F4F5F7;strokeColor=none;shadow=0;html=1;align=left;fontSize=12;spacingLeft=10;fontColor=#253858;resizeWidth=1;sketch=1;hachureGap=4;pointerEvents=0;fontFamily=Architects Daughter;fontSource=https%3A%2F%2Ffonts.googleapis.com%2Fcss%3Ffamily%3DArchitects%2BDaughter;" vertex="1" parent="nPFasPomJ1m4DBFbavHR-102">
          <mxGeometry width="110" height="33" relative="1" as="geometry">
            <mxPoint y="6" as="offset" />
          </mxGeometry>
        </mxCell>
        <mxCell id="nPFasPomJ1m4DBFbavHR-104" value="Switch Account" style="rounded=0;fillColor=none;strokeColor=none;shadow=0;html=1;align=left;fontSize=12;spacingLeft=10;fontColor=#253858;resizeWidth=1;sketch=1;hachureGap=4;pointerEvents=0;fontFamily=Architects Daughter;fontSource=https%3A%2F%2Ffonts.googleapis.com%2Fcss%3Ffamily%3DArchitects%2BDaughter;" vertex="1" parent="nPFasPomJ1m4DBFbavHR-102">
          <mxGeometry width="110" height="33" relative="1" as="geometry">
            <mxPoint y="39" as="offset" />
          </mxGeometry>
        </mxCell>
        <mxCell id="nPFasPomJ1m4DBFbavHR-105" value="Career Stories" style="rounded=0;fillColor=none;strokeColor=none;shadow=0;html=1;align=left;fontSize=12;spacingLeft=10;fontColor=#253858;resizeWidth=1;sketch=1;hachureGap=4;pointerEvents=0;fontFamily=Architects Daughter;fontSource=https%3A%2F%2Ffonts.googleapis.com%2Fcss%3Ffamily%3DArchitects%2BDaughter;" vertex="1" parent="nPFasPomJ1m4DBFbavHR-102">
          <mxGeometry width="110" height="33" relative="1" as="geometry">
            <mxPoint y="72" as="offset" />
          </mxGeometry>
        </mxCell>
        <mxCell id="nPFasPomJ1m4DBFbavHR-106" value="Logout" style="rounded=0;fillColor=none;strokeColor=none;shadow=0;html=1;align=left;fontSize=12;spacingLeft=10;fontColor=#253858;resizeWidth=1;sketch=1;hachureGap=4;pointerEvents=0;fontFamily=Architects Daughter;fontSource=https%3A%2F%2Ffonts.googleapis.com%2Fcss%3Ffamily%3DArchitects%2BDaughter;" vertex="1" parent="nPFasPomJ1m4DBFbavHR-102">
          <mxGeometry width="110" height="33" relative="1" as="geometry">
            <mxPoint y="105" as="offset" />
          </mxGeometry>
        </mxCell>
        <mxCell id="nPFasPomJ1m4DBFbavHR-109" value="Account&amp;nbsp;" style="rounded=1;fillColor=#253858;strokeColor=none;html=1;fontColor=#ffffff;align=left;fontSize=12;spacingLeft=10;sketch=0;hachureGap=4;pointerEvents=0;fontFamily=Architects Daughter;fontSource=https%3A%2F%2Ffonts.googleapis.com%2Fcss%3Ffamily%3DArchitects%2BDaughter;" vertex="1" parent="1">
          <mxGeometry x="618.32" y="163.9" width="100" height="33" as="geometry" />
        </mxCell>
        <mxCell id="nPFasPomJ1m4DBFbavHR-110" value="" style="shape=triangle;direction=south;fillColor=#ffffff;strokeColor=none;html=1;sketch=1;hachureGap=4;pointerEvents=0;fontFamily=Architects Daughter;fontSource=https%3A%2F%2Ffonts.googleapis.com%2Fcss%3Ffamily%3DArchitects%2BDaughter;fontSize=20;" vertex="1" parent="nPFasPomJ1m4DBFbavHR-109">
          <mxGeometry x="1" y="0.5" width="12" height="6" relative="1" as="geometry">
            <mxPoint x="-20" y="-3" as="offset" />
          </mxGeometry>
        </mxCell>
        <mxCell id="nPFasPomJ1m4DBFbavHR-112" value="" style="shape=stencil(lVfLbtswEPwaXRckl1yS5zT9jwBxaqOuHThO2/x9VhUomytp0NxkmSPuY2YfAz+87Z9ed0Nwb9fL+efuz+H5uh/42xDC4bTfXQ5XfRr4ceCHl/Nl9+Nyfj89T79fn8aT49Ov8+/xC38nXAwkfkQF9zG98Uwx/3vzfQIcD6c7AAeqpQcIVb8NCI6S6wDBU67bAF8p1g7AjjwA6PekN4kLZQGAStKbFBmaxJVCf0MUkrQNiJU8W0As24CkN4gFMAhr9hSyBXiQuOIpBgtwwKTqWhBnwGzkOkAt7p1OhTy4wTtHrk+EFHLA66qZ653ImWoAgEihB5RM7EBcC6UeUGc+rgMiJSOIm1vrCEeS7RUMUie58X8G5PaJdYDa1Ku6JphrUVX3iaieCrohUIp9XAv2QctKz6YSqQI2SaLUR0kZXJEPpUly5kalDESaQ7N4BpQWt3WAEjxaAANuFC1cYk1i4EPRKHnrdAQmlWRFqmENEQCkRf1OEAn5IFQM+Tx5QG81KfV5UBFGBGByC3p7QI0xr70PKiBE75xai7oDIPJpda3RAjLwQclnynFVagDyKb2DcVrLMUMBsZGoihYkbpSoKX21iXbrBmcAahKSaGz6mgFzHdkqZLZqOEgNzYPri6sqruC2+EVAWlQNhwE6MfU+iLZiRG9nySeqQZDpZWtXQAGJWw4PChBAjXE8cRaQQBvVAUiqBaBZgJedPVIBTvtiy4w4WATmQWEeNgIe+hbzEkP5LBy4Tb4b51M//ASGHZRtCrwGCBQMH6iYwt260bq/WkN7nnIj7ro90sxt51WaIGHjjB3MeTS6RZ162J4HstHNxKwBDvbaGO2Q5CF/YrL2zAxZPy+U2cYTrQDZztupjaJb58WIuCli8/um+LaBadN+Ex8VGHJARwuzGnrYPzQDpkMpZ9GY+uXl8z8A+nDbdV8Ox+O0Kt//b3djfTXt1fz4CQ==);lineShape=1;strokeColor=default;" vertex="1" parent="1">
          <mxGeometry x="160.3788573563702" y="10.896326217301748" width="26.725224225477177" height="30.27077953905632" as="geometry" />
        </mxCell>
        <mxCell id="nPFasPomJ1m4DBFbavHR-113" value="" style="shape=stencil(lVbLctswDPwaXTEk+AB4TpP/yEycWlPXzjhO2v59oWqUiLC1ndwoCSsC2F2QQ7p73T++7AYOr5fz6cfu1/h02Q/p28A8Hve783ix1ZDuh3T3fDrvvp9Pb8en+fnlcYqcVj9P79Mffs+4VEnShOLwZ34jJPHfi4c5/jAeV/FZKfbxzJR0G1ATTd9WgCSkbRsgjaR2gGI7lG1ADIFC6BAaSPM2ojUKfU5qbQA5tUK1z6kxRVB1C8StB1TKoAhNlN0OjSIASCHVDrDqw20mlJLbQqkBrmukKj2gUANtKpVKL44WqVQAuKraiAgIwCR91UZ1QCllKj1AMjHaQT3V1YgAO1Tboae6FsqAB4le4JNHsCNy8ABUtF6Z2pJUwLSpufVdMrEw0rdQdm1Ny2DYspwjTpQU6NsA1Xk0Y1MLBSe+QBmZmomv5I2Y1rJkvDIQMrWVmLM3dQNdkrDQtAJkPF2dlqwNaGyYvH2XjDiBBnLzW4UaArAXnzK26C1ABAayMyh8yaKs/oAoCsdMND+4Q8vOPQBgP2U4wVkcSHphxLb8YSPeFRALHN3BTwyriEF89PXaFAQNzd79BY55WXL96A48RixXp9EINR2rn8ABziL7XWIXj8iy6lp18QLKTXb4Z1dvAo5JiVrPVl4ccTv+i3e2/8fb4vOC+DweDvP9cv3dXyjt1XwZTfd/AQ==);lineShape=1;strokeColor=default;" vertex="1" parent="1">
          <mxGeometry x="184.92188765136962" y="12.928075407985148" width="10.574637766419073" height="13.493096062768473" as="geometry" />
        </mxCell>
        <mxCell id="nPFasPomJ1m4DBFbavHR-114" value="" style="shape=stencil(fZbdcgIhDIWfZm8zQAg/17Z9j85U606tdqz9e/tmZ0c0uJ47xP0I5JwEBl59bp8/1kNwn6fj4W39M76ctgM/DCGM++36OJ50NPDjwKvN4bh+PR6+9i/z74/n6ctp9H74nlb4nbmSKZeJCu5vngmZ6jzzNAO7cX8FVKEsBuBKrgKg9oAE8gkCbLeUhEoEQKSUDZDLeWYRKIl8MEDRmHwfyBrBG6Amyu4+kDxxMoB3jhwgYu7TVAsVkFcWCs4CTBEoF4RctKeOxHIf8IXYpikHikAIf+MNUW94AGSSaoAoFIE3AlOyeWU+p2E5S9yfQZcQILVuQOwZdJNoS9Ls3wA5u2XZTIHECqeJ9kDpSaauRiNVcAY1QhdBzeLBli5WazpkSsBLV25uRaqWRyFawTQzRRIQYirJzq5atkBqLfouwqUxLBepthWb10vrWZY6UOAeyKCCtDV625mm9gmUC4Wc3VLJMMIE1BsA2FW9JraVlQB7n3c9oMKhCLEvIM1zBPZ25/umNQ1tVEC2G+fFCC8g398O2hNQuQlVu752DBfA+q0ptnqO5JFmeuIuo9DY7KjY71UxdJV4EntifPWorW++R/dC4t7V3DlIB5cHx2bc7eb3yvX//QNFp+bHDT/+Aw==);lineShape=1;strokeColor=default;" vertex="1" parent="1">
          <mxGeometry x="176.86796084247567" y="1.8753124585191472" width="4.672539772115442" height="4.665236216357698" as="geometry" />
        </mxCell>
        <mxCell id="nPFasPomJ1m4DBFbavHR-115" value="" style="shape=stencil(7VnLctswDPwaXzF8gzyn7X9kJk7jaRpnnPT1913VoSJC1ra5dTq9OQpXAsDFYint4tXT3fXjfhfc0/Pp+Gn/7XDzfLeL73YhHB7u9qfDM37t4vtdvLo9nvYfT8cvDzfnvx+vp5XTr8/Hr9Mdvp9xKUrNEyq4H+crUVz5deHDef394WGxPjtpOqz3QUoggCK1jIAmrm0DSpaaBkCoEskTNEhwYwpJSiaAKikOgISs/DagBvFjDqlKIFWqKmXMAWVgObQofsyhBKkkpJYltxGQJJCkm4obQ3ot9BbgpSYzQOlOtyrePKFJdvQJGgaAeokshyJl3AeNlEuokklaU6/bZUCQZgBZlAGcpHEfFEGSpEGNGi2gVQLI4sMKwNmavQUkFpITn23SidAbDeSbLatnAJR1zKHgFkpEINkWLU4iYSv6y9Wx46JkwqWkvSEXPZ1JDhGAUfkSOo6ENMmWUQ3PAc02EEKKpEqhWNVAGVjSIdsqQQQi4RIARluxlZFVyVmp1CYhEsA8DTpg4i+bQF7aSI3qO+Evc8n3aTCHpL3Ql9mapRhthZCRfdBquQSpDEQ1ELGZutgHJdoKETBJA+DYfHBWNQBg5MMEaiZpjCyiS1Bv+wQ+p1tbccl1b3AR4J0TZxBRlGXdJBn55mqMJPLYEBNd2RNSn4EL9gVWJme3euI3IVMtln0ANAaY+2UBSKTlQNfmbA6OVElX4opbMO+AcZBWI4jpPQBuNdkDA4D+oxqDTImFBPk2HaR87rrOnEVDeCKuFdZi5bCYztQqugIw8w13osUCmBWAYfLVJk37oVrjCulrLKQm1VAj9Ky2AGoAubu6rZCi6WlcYZbsrQB0nPHSMGlsp3XVos3THKCMht6Nz92c7D68queWOzH7sFDPy6NdrcVC4RLRb4+TnMkaURKdqTYkED6TBwTbP2hBNoHW0yHQfXZdgpb9SeKHABhLqVTqo6RxfWp0qBdbn+kYSloHJ+0w7lj0dJQgojxWCH6OGcoYbXMG3pwpd58zA1o/cm0R20wGPNMz96YrQKMOVFe9llBoNj+1T/x5n1Pfmc2zt1HVv/LsnZhI/j97vwD+ibM3c0owg+as0fotNjvO0Nt337F1WDc55ExNdJmpNreoduH5w9P9dJQmZc1O1LzWRE8TQArWAwRu3mKx2uohPOzsXS35YP/YfK4r081fBmhPcN4F6tym+4/cnv3r1no104duAQZBHcdt6A+8XFDfG2UuKDXDmBtGtrlbiKtXGY7Ho/0V72I9c2CtH1gW8ZD7g8HexsOOeWCoEWDfj3GX17/xzf7v1+PH62eE28P9/fkrxPL/9rMDLp0/WcT3PwE=);lineShape=1;strokeColor=default;" vertex="1" parent="1">
          <mxGeometry x="193.81531016965187" y="-15.146250648801697" width="25.272900365545865" height="36.484630292500924" as="geometry" />
        </mxCell>
        <mxCell id="nPFasPomJ1m4DBFbavHR-116" value="" style="shape=stencil(lVjZctswDPwav2JIggf4nKb/kZk4jadpnHHc6++7qkeqCMWb9E2WtQKwWBzUTm9eH+9e9rsUXs+n49f9z8P9+XGnn3YpHZ4f96fDGVc7vd3pzcPxtP9yOn5/vr/8frmbnpyuvh1/TG/4dcElk1YmVAq/L3eqSqh/73y+AJ4OzyuAdsl9AJQmOV8HlOQBuUvV6wA4EHUEqGQCaFHSaEGblEAsVLE2AFKT1kkMXab/1gCV1AggiDoLQSphCbQmGwCxixKXUveJA6CQxKUkZaQ1FakkhglQR1qLBBIDAHUMOr8DyN6lksUKDTpmr1YjMYDWOtIKsTTCUjbpY9CtSCQuFfMstSaRWKgol1FLzSQTtVqU6gCJJs6y9O6DjpEA0ATiCOBq7Wn2eGVBSQy9eGk0tBlS090kms9DJXnoyHT1tJpRgMu0JVpxAISx4qyIsaDbHOICMCq+niWOtPYwO/k2IEgZaUVmIpMGOl/0gEQsmPrO1+N8521AmB1Ygu7UJZRLHzMNJ5WotdU5r6vEdSINAHw9dDqyoBw3UPCKSAC2lMtK3rSm1ecBBVRYiaJrOHkH2gSmNG1qmmopbwoI9cAqDi6N9dCyNFYPfe4Rq1bJ6iGGIGFE2BLWNRNu2bB3fGo+EWDaWOtbxsGqRpV1sjKPgw8CpgoaxdQrX2ear9EVcdeGVnJBYHkgUec6S2HlUyDiUJ176arRKNs2sud1SgSxEDfNEsQ1ArBZCKsaTWRAqFdrTXRv3WgVSyDbHPC821ohXuIPVON2UN7Fop8N04JI/C9edjHS8RaXTWoJWArxH+ZtJChSRWjw7+eiziDI3POZTCqkx43nSPmc0j8SlGnNYGGx4gllNTOtE25DX0K6Nv7d3gaRG1thgj80gLTIehFWyVF0WJCVtGx0dNcois5j4tpZzJUBDludBI0jQh9ZqoX3rjYfaBdApy1e66yDD+6eihkzsoR9gbV4Tf4ACkAl2lYoJ3pAZqc9nCc3MTBp4ATsx3+mW1Wq/oiLflqZhbKhlS+raZNprDCZWcie1oqmzw6gxc/B2uixBEF7LRUqb9DqLSxz623A/36Q+QAAF/++/zwcnp4un4/W//vvRbh1+dakt38A);lineShape=1;strokeColor=default;" vertex="1" parent="1">
          <mxGeometry x="208.79051553548948" y="-27.949250394256524" width="28.256280525115017" height="30.20610804627313" as="geometry" />
        </mxCell>
        <mxCell id="nPFasPomJ1m4DBFbavHR-117" value="" style="shape=stencil(7VnLchw3DPyavaJIgM+z4/yHqyxHW1Eklyzn8fdpejPjBUbbKufs22rFXhJAo9GcOdm7L/cfPt+dNH15eX76/e6v88eX+5P9clI9P97fPZ9f8Olk70/27tPT891vz09fHz9e/v78Ya1cn/54+nP9wt8XXE5ibaE0/fPfN1Oaffvm1wvg4fx4DWgy1AF0SOm3AWoyPcCGtHkbYEnmcIAyZDYC6GJ+h9pllNuAoqLFAVqRwgBTss9SNyl6G1BNtHvAlEpiwIktOcBoomSHlqRWB5hJUiKALCl7QJY2OMAHPXnQOFIPO1TJLEtzq+sOaJQadcjw1JhDEmEr0lp9WueURNhaq0yLgE6oUYuor0NOvBBVD5WbMioBoCFKBCipHOhac0yTMX7v/94BnaapHPNaKb9L3VRl5zd+gu2gkX29SiFZKmk78d7UnaYVMmQeAD42BuiSPftQysyEqW5s3pUMXcukr8YOMt3U89aRpt9B38iSSgt63yQxLnVpgUs0BChfCKFI5rKkPqm7iry+HtPGwnrWbR3heWqrFLJ+QBT9MOlbM72+/iAY2WQQSRpTzAN0F9pXAVDd7HsNE5c1J1qx+x2s0Zyi2btXpNWuRC+W/vikQgYzYcVSOJ/VZrTXAJieRj1vU/51X/Jdda9GrrJKQ9iDhqFyJAhM5BGEu4gxQIlHwg6T5BXkC+SeGBakOxFi8XmFC2D938dWpysd7oRMvcegERUzV9iheG4gKhZ0P5Z68hbV2BA4ZCEdhBN3rzFQBSNZQk6CSgLAlH5l/QCYRAVQ1xEAgw5QUC0OUNgCkqU1kH3QwzbC3wIEpQfhaY+WKPVoKVYHBB2cPSwo00qktR0aiKpxjzqzWpSpcTn4Pa5kIJ9aPBIzuSjT0XcrOdIiQrgKDCrfq0U9lzCUBjnSEoHQoroZ61stGvwhoqJZgliHnuZGHdwMMoMGaiytPwzQqHxrPjAuHW6JGEFMWwFI/kjrRkTSiiwFywr3VJmZmZEaGNSM3qBG8x0H16tMjCHufgfLfALleP9R7n/gyoPhy51O0XrwDrB8jd3hcACfVhgm1nG4YAW2wjAp2yFtd5e9DkZ9Oi4KxWepNiqVy08dDNNggBEBq+OYkf75AOEb4O0HCOFI/+cBAtvh5wOE3a+wBwh9q9PVoB5sB3AtuJNBg7YZHyNiyDHZMNts6t5ySDSpA2QoDOqGNic76KHSoBc7Uq5xZmFAKGkImH8/FK3SCZQlB2lt2y+8uv7gi5WX+fAQR7kdO1z6kDJ2nUnxuSwiMro+VGztSEiU49U7D5ns6fh2l7pan4lqH8YChmdljyelzLje2FSI+oj1hZmkzUJdrWdSNLdRfxVvI7//4+8n3gbgw/fXIZ/ODw+XtynX/4+vT/DV5dWLvf8X);lineShape=1;strokeColor=default;" vertex="1" parent="1">
          <mxGeometry x="236.97409966485884" y="-53.979402415078766" width="35.156918948292514" height="34.3831482856192" as="geometry" />
        </mxCell>
        <mxCell id="nPFasPomJ1m4DBFbavHR-118" value="" style="shape=stencil(7VnLThtBEPwaX1vznukzSf4DCROsEIyAvP4+tbFm4+lZF+QYJTdjtjz9rKrd3cWr57vrx/0uuOeXp+On/bfDzcvdLr7bhXB4uNs/HV7waRff7+LV7fFp//Hp+OXh5vT34/Vy5fLp8/Hr8gvfT7gUJOcFFdyP0zc+SUi/vvlwAtwfHs4A0YmqBTS9DAhBoh8BRUK7DPBRchsBKikQAAJwAyB6KZkDxqRTFecIIPd/d0Bx4iMFhDACVBwLKUsay1qbRHJCiOLqAGhOEslhqYlOgEIAVfyYQ43iSacxS24sa0FZ2SyplLHTuUojoxExOeMJGTlUAgh9NtdOe/EkpKDii50l1ulQJYwADLwnfQhlWiCV7OkJLtoFaqRxAJSxcRj4yEJqUg3Ai7KyOpu0d+LIiqIP3kxr553t6xGwmT0pbFaLZLM+EsmoxmYZoEol8SSwXjPxVzJGWIUWbYEC250pYR9oz1KWmGyTC+kZACZlv47uNgCDOgLC+hObAOyiH5uAMjtyQp6IOzWaQ0bbxqQzQiJzV7I9ISud7Jp6m84AjWxnA63GKSRCGC1IMTkEugstWWlISpNu1aoV5E0ZADWZAIy4dabVSsdbcxfk806TKmm1IWG6WA6qXf1WQBRlEu2cLRPUJ7Ks1bYaLqCyrJtd6hJ5EtA3c0Khoq7wSiMRQ3KVKKg6S5SlSSIADJMZV5zA1KflrgRnOTDb0OJkrmIXsEsrV5vtQyKNAyCPFjQXWiXsaJiGqZA+IIdqaMNRC9pQkzEkLATNoYkaAFaOEJP6raVmo5FsWRGSI1yJHTXTiqQpQKeNA5FwgE6N8ywH7bN5Rt/MOGwDXmHjMaSqvZXbipK74Jz5bnbDhIUME6CSE5aI1YbEiAxtMklD9hjNwJ2YHBAkM7lxrfpa1kY1K8Z+i7cOX5ZMRiM0S8YwpZkZ9f++++/03Tb+f8B3O/PARKmjXNzdWKTAOSx76xrQl0BOgKU1pIcgWR+w7d6Y3ESXrfguZivDoA/s3gGDMHYaHMa8FQLwIwAqz0KC+tVRraDBjGFS7AreAZBUuj11AijtQ5jW58zFbiP8xhHMyfjJ+kDmGWVky5LwpOyBycrSa1ULfSIzuXQIKrtzcH1910HK9F7GTd4wUbvqLMljd5Reb26VQurGbLtjE8WnXuFtB2MfumXKqIjHuLxA5wGS483IcfbynQ379XxAsTTmgRuu54Rtng67/sVb6VcSU5xiLWegOwzyNeYr9ceml1jFT/1iv9/sPFR6v7Z49jF+7RbgUvyG2qGYVJKLXRhQBjPAi2KaDrzyHDlNAhh7Uy6p/p+9xHgDAB9+vzO5Pdzfn165nP/fvmPBV6f3M/H9Tw==);lineShape=1;strokeColor=default;" vertex="1" parent="1">
          <mxGeometry x="278.3133386151949" y="-52.14027683975837" width="34.87511127525954" height="30.05486474808322" as="geometry" />
        </mxCell>
        <mxCell id="nPFasPomJ1m4DBFbavHR-119" value="" style="shape=stencil(7VjLctswDPwaXzEkAYLkOU3/IzNxGk/TOOOkr78vVJeyCEs77aWn3GSLKxLgLrDkjm9eH+9e9rsUXt9Ox8/774f7t8cdf9ildHh+3J8Ob/a049sd3zwcT/tPp+PX5/vz75e7aeT09OX4bfrCjzMuJQo6oVL4+eefQjn9/ufjGfB0eF4AWCiUAcBMLWwDpBGHASBMtW0DNBC3AZATtbINKJFKHACaSOo2oEZqdQDYJzRvA1ogHZdUGgkCKLU8AKpQAUtqleqY1qpUQVpbozYGXRsF2QbEECiMG9EiMQqiUZQRwKQRAArxGETLpChq6THOgEICgrAV53HnpsSBNNXSyTkDGikgU+XOtQ5YJG4dYa+jn6Igviol9QA0QzH+i09TYQAIlBxAKQCAip+hZmKwc7lSG2OwRSYQdGbiNKq6wCxli2HUnFRKgH0yU2euTCYhBQChOM6QBNYNq0NOQUoMspozhbEKMGWwz7n11zP34CbYrrmiYTlDPApdvpfxAXzfiBqjWw9ikSmhjuNTZ8n6eOnLnTlBisZnajyylCqoFja+juNjoogaA/tqETPcYYuYR87F0iv/ekozZbekBhuDNl+PbNMUNGgjhdO+ARgJrXrt25IQLbKQOoB2Iq4DYlf6DODegbe0ry5LgQpSjgnFlSNcvtgrR/D40i3LRQkNeRj2PSHAyqK1h7dQJlKy9M59Ga9ofPOd2ao1IJEJwZFIugPaUlr2+S9ABmZunIuMEXJusk+OEYKVaQC5AoCQSyVxKcqdheszmMkcl2T9RkCDmqrLCLCOBrNUvO20DoFkMPmpMWgjCjS2etX3333qu0+9+NTiAf/Bp4K8WnPzeQ3dTG9ZMNer7PCHZhDtglkY2wgAnD03dD5TrwKmA/a4D9ZQEcA8iDtMSu55W4/B64FxnbEAxwi4dFuzOv7qNGw5QN3hStBs7RfILVxdMSS4Z8GXGDZSwHhlzKf5SIX5dLbZtjCBeIs/3yWFZ6M4L3fZehAjuDeaBQD5CzNo+WqGgqpwI2k+BlTx/vki6S8A9nC5t3o4PD2dr72W7/09l/11viPj218=);lineShape=1;strokeColor=default;" vertex="1" parent="1">
          <mxGeometry x="301.7849909194051" y="-66.62548622948589" width="16.90479710347563" height="29.046122819947186" as="geometry" />
        </mxCell>
        <mxCell id="nPFasPomJ1m4DBFbavHR-120" value="" style="shape=stencil(rVbLbtswEPwaXQfkLp/nNP2PAHFqoa4dOE4ff1+qKlWRsqc10JtM73CXuzNDDvrwtn963Q1i3i7n0+fdt/H5sh/0wyAyHve783gpX4M+DvrwcjrvPp1P78fn+ffr0xQ5fX05fZ12+D7jxCLGCSXmx+8VJPNr4eMcfxiPq3hVRNvEW0GU2wBvkKUBqEEkGVKpKLUVOYREABGhLUkCQrgNyOWIXUkCZYCA1JbkLMQSQK77VYAXSLwNsMbAmAYRHJScOidEbQAxQBjAI+QGkAKdXLawLSC72unrg/B1sAsgw5IMMSPZHhDJGaKr+y2AAE8yhAxpu5QyJVPwlTpLWzMyA2gvoJDglANaMvkyOHdPSc5RBU2Hdi2/fWXXP7ZVEiwRxHZwRaOZidr3tiEenghiS75iG+YuemtEZhk2AnJlcITe1zRqoHfZQBTKja3RJIVjp95YWVlRkmEyy06jCYYBNna86sN/QvhcG7/ygUwkoeXvDuChJIOY2sbVJNg9l2HaBGXUkSjCI7VkKqJm8VrvjyXeQomR2Xq8tQeQsZl+/6IGR867oXbpQCQTMNVFl/hywbEBQFqeWk9vUAff9jNXP7huSHCdRVLZWIPUxpf+ehLv6i1T4zmhbeqvncI/Uv69r7C/x5ePP0++l/FwmF+M6//7J2JZmp+X+vgT);lineShape=1;strokeColor=default;" vertex="1" parent="1">
          <mxGeometry x="252.9213169677514" y="-29.07963404848897" width="13.505954750322417" height="6.543915134873032" as="geometry" />
        </mxCell>
        <mxCell id="nPFasPomJ1m4DBFbavHR-121" value="" style="shape=stencil(lVfZctswDPwav2IIghee0/Q/MhOn9tSNM457/X2hunRNSFpP3mR5V8SxOLiRh/fd09t2E8P7+XT8uv25fz7vNvJpE+P+dbc97c/2tJHHjTy8HE/bL6fj99fny++3pwk5PX07/pi+8OvCU6UUJlYMvy9vhKT8ffH5gj/sX2/xQq0M+EYpruNbpSADnhPVtE6o9j0eCDFSBhYVpdBGD5i4rROy+hNESREhUBljlCoprxOS9L87ISfisE4wA1IdCY0yOEEK1TwQClMCYRUzacxbyT1uywSmMJpUGjE4IVZqcSBUxoREcZRGzV0sy4RASUeC9swsEriSjIRm8kWERDJqqTWYOGaqY6aVqQGnlWTMm5auxhU8j9LTCquheY/VhKSg3Cg6vPYvLNcCafT4BmSUfK1xCBRARCNp8gf8k/pyBqjM8Eh1VsvVByiC7wdi9gngivCu31mCkb+hl+0Vn2BAeZYw6SlZiWea4SPqLKTO/ggFnWf2Y3yhVmf2oAHiu7teLVzBe4FaPIGgTe4Ob/kC9ihF52+F06ZRcfab3kABV6qu4E3PQJ/Fz+879ZJ8fO4VpPT5flvxoAAihVlBCghQIM0+QBni5wnIsOCDC1CBHe6jePGCtpEhIJ6FssMnGE/t8r3iA9y4WHxF2lhV4ACXPlGuhEgFtAhWPyWrBQ0QTBNugSoVFoF1lebWmwQ3LotScIQI91gxk8aw5gb7qJhJY2PMpStxudACZUfgPtuWCbU3wuuamXvzWG69ltdRSlJh7dvKl8coTe0SNNOa/E43lR/qvtbMR2mw5QGou6mf97kvqsvVkLtwOj5Alw1fo8PDfat4B2wBQPYU0uDwcHxcm9UNHnQLa4ZcvT0YX318BPmr83gWkGDDu32Lsb/q42P3FLTehFn/5a7y1QOcpimhhKm/OUVYlR++IN/F28P/2/jL/nC4XOZv//e3d3t1ufnL4x8=);lineShape=1;strokeColor=default;" vertex="1" parent="1">
          <mxGeometry x="132.2754671926034" y="41.447048626701644" width="58.28109373576967" height="75.58895941799051" as="geometry" />
        </mxCell>
        <mxCell id="nPFasPomJ1m4DBFbavHR-122" value="" style="shape=stencil(lZdNctswDIVPoy2G/wTWaXqPzMSpPXXtjOO2ye0LVaUaQtKLs5MlfhbwADxSQ7x72T8874bgXq6X8/fd78PjdT/EL0MIh9N+dzlc9WqI90O8ezpfdt8u55+nx+n388O4crz6cf41/sPrxHkmH0cquLd/dxzF8PfO1wk4Hk49UKUDQqaUt4HgyaUOSIl8AkAg6d+QmZwHQCRxHVA9Sd0GUiDXA0UogJCKo5rsGyoA9HHpZa2hCb0KMFOsCwDUQTQHsQCDOoiWKfRAgirJrPoMMFRJhHIfEgeKIGnvnC0EF2KUtZDvXyGeAgIqhdwDuQm3DiRbCMHdJ47YAEIF6MqVvLeAgBw4UlqEVEFIrCNceqCQZ9CumiL3QGi1XAeKTXpsYBDSChCJ3WdCqtpeaIIWSddMAtp1lNW8Qe8gWReF05ELIIexNdgCyCvH5jNAwi6waO9am93eOECqm4Ck12Y0w1Kv2IC0PeNGoxHtDQTkVqcZ0NIUbJamv9Xw0YyybaZ3Otxo4B8RJVMoi6BA2kmIk007grGOjopxSy0d6D9fqRi3TLDWZdEbDB1fXcXsQbGFuLHeDJDuxA7UTff9Pv5U4fw4yv16zSiBeBaz4D0U1LW2nPWBxwZnC1zaeG9l25c3kQPJRsp9MNi95mNdWz5vdOuGbaV02LmoRrMcDYvqbDpBS4dsSx3EDDAVtD5T7sc3YulLc6j5kIqPOpWqOd81AbaO2Z8+l38E6MX/z4Cnw/E4fUW8f24/G/TW9MkR7/8A);lineShape=1;strokeColor=default;" vertex="1" parent="1">
          <mxGeometry x="126.83686291510162" y="99.84022709178907" width="23.85918618519031" height="19.939057196574595" as="geometry" />
        </mxCell>
        <mxCell id="nPFasPomJ1m4DBFbavHR-124" value="" style="shape=stencil(pZ3XzhxHDoWfRreNyuF6w3sIsGwJ9lqGLG94+y2u0P3PHPZ8JWPvFMjp6i4Ww2God/kvv398/9uHdyn8/vXL558//OvTD18/vst/fZfSp18/fvjy6ev607v8t3f5Lz9+/vLhpy+f//j1h29//+29Udqf/vH5n/YL//7Gl8IRknGl8J9v/7L+IfzvH/7+jf6XT78+0pejV6GPCejn0YfQp/6aPtcj6O+XAfTzqLr+Vl7Tl3zkKfR9An07ahT6Cd+nhmOUJ/p4BPj9mo+q9KkCfTtyEPoM36eOYzahr/k1fYtHq0oP62nlaLqeCvLQ+tEdPXyfHo7chb4RfTrmVHr4Pr0eQ9fTGtCPo7j1wPcZ8Yju90E+x5IH3a8C+zXaER19BPqh53fRgzzPdH6+N/oO65nufKVzA1/Rzyj0A/Z3liM9/34+CuzXou9d6Cf9ftX1l1MBvKIXebgU2Ev6IfQk/0b/vF8N9ecd/dis/5m+834t+md9NdBeGH0U+k77VU91dtLPI5O8VacflgHjF85NGVCi/RPi+RMvXzkowwQdNNcZljOWTql9xSBCGvO5LS8Z5B3KEekrLSkbyjBJrtsR8jPDeitakle8jZ9Qz226GPr5E9/LsGQPbNNiEF0U53m6X27c8+Exb4i/UnIMg2TpOu0XA9vLG4bEB2gxPDtQS0NGZhCLYyqV3yGISSjH2DxBbELlnfZLWlpvsw/P4r3U3uaIippceinyksSO56WXWJZ6VAbU3E09nRzPn3jJ8LzTObEia2rb8rLurFv1pa9w4ZV1Fu83Nzbn2S1pHIlkKakyXhHDJIbLP7scgKXuSZGFU9QuhnRU2ukVAT1/pXIFAfc+2zxDlIuhnAbgFYPYuFJRLy0GOaKLgfTSciPH8z6US+BfMjwLX+lHggNkDEUZBn2lpdyFYaD2Xgz1WQmUib7buETt8t2u6Pn7GTBaGKeoXQwrfqCdXu8QlIHi2cXQnvehJjxxxjCUgTxoEz5ZUkYlYOItSyqntn3J8HziasXzsE6ciPcKo+mzLgYRjcWArkM4LdrF0LdaYyoDBj7hVFsXw8DIcCky8QQMCyAbF90+THZOomI7LeyWNIQhcrQU1cYthk6fNWm43ZZ402dNR3o2u21j49Kpti6GcnofL5dUlQH3IZ2O88VQWfgWw/NOt8ZBXFKfbzGgUUxHkyewMl52Wp9wWYyXuIF8pYlKwDyB533o65TzkkpWhkafNZ9m/GKIp7C8YhC9tBjwAC3H+Xmn+8Z1KBo/9MxqprjwviC+aHjJ88b1inZ6+Xxi4/o28BM73TtvnPO9FwNiCP2EpC+GwWe6q5pZDIgSDQ3A+0SzawzPsjQC+nyLIQhuEk+b9OodBIgdGxCh6xEd+QwQXsYPzzs9yhkwv2IQz3jUHa4hRnG00795uSR5Qj+xlFcvLTDFYsAoy8mS+Wh0gLqGlstdSbwk0UvmrrB4S9BkzsRGNOQJDKIvBlECFkbxVxJPYKm2zT6Id/8GBL88osJQjkYMQxNJc6PIhtppg6joPCxBkK/UGCseakVt72kfnCv9pnhuGWK4sncPHIiqTbemyd+1Korw8NCX3kbRR5AvMIYTv8mhX3Y7MfFUL+XrGUh/L4uT3GciVbbMbHAvTUZrOSNi5YyBMnVNHSBjgH1YnrCYlLfNv2WoXm9MTF6tQK9NxwDvsMLh5Blg40rX9MliILNY0ulrPzLAVzJ4yG0cMnQNOebEFGguJyD7yABnNMc7BnhpAzP9oaasflWzuNkHA5XdV6KdjvPmPBCQHZd4uyNKAUFM6gtsGFxlgtHDvrUbSUpwGlxEMwemovON6sbSihtrEuE4p1PIHs0VrD9p5s5UPwmR+pOWOSORcFq+IDgWNfM4OYflT03GY+ZtQjpVwQt6ydptnKSgWQ2DQ3A96sBEBBour/HBLSRnIajeGmxw3PoXPcmnA93ewMrve9/lmlNeybk6i56ivOBc/4beV3COfEW8ICgkPgoq3ajyttwYsq7RhZDpVPOv6KvSk3y68zIihhXxxI0f6KnUKarjaCEwyJvTJ2NTmqbO8orJSR6SJkmstoesqtqL5RQSWHPhiA/ACOXnsoZEVptEpWm6v4bUkO/k8K/Czpnqt8553qouQb/c8lf08n0S+q+u0mbRkz6sDlyLeB5d5rwzOO3pAyIDTcOgNtHeuVqBNvF8ufU01rdNEzutYwjeFehrHVOvXfd3RSxYWqf6sNXNeuS8L/qEvy/6vBWUt+6+f0bcvp9v90CPpXhnCuqiTwjzu9xgi+ivDvXfWkB5cHBGnQhnDC26qINLOdU+rviS/MnucqEdz6OLw2rD/G9T/VArwhJNM9iLnvz/dpfWBPlsLjObEX9ylcmLntcj/nNNXNqr9qJG9Iebyltlf9XVpNWA9rS5koOJ0FZXbGHRU67E6ZMy0F509ZdKx+/T1V4X9lf97zf0D/37Nqw46q4io3K9hCtbKRt9pevhROlQf75wbqu78o2E8WxX+S+RITyV58Ly3F3RTUDgv6s/kCf6h13jr0VPeQKn3/LY6B9JvmSur2xaLWlIGK/nWZ5z2+gfXX9F++v0w6KnIo924rEX/U4/6+9nLGPsis9Y9RzqkyLfP23OuwDGiz7gekT+c8SiYZeXypxm6qf1f6An/GfoeUmMXw/Vh1aCifpE7KN5RIgHauVs56IIjX9NA1A2R/HDxP5wdK0vFtJQwB9OzPaBgRDBGLXY3rodQKUbg5Tycs44RlXSiyERSLBkWBgSYt3RwZqbDp7FIOfYWrQIF8laIpQCltcsBulJi5xdWgyjKQNBHdFhBXFgLLAYBLyIXMBjDEUZNl9JG4u4UyUWTUdF1tfRAR7rXwiwWf8tFs0WSZ/VNcPEDcRWtewvJvRZrClCRIOdkOhbPQJanXj1+zwwkBto++o6buj8uLrzgbCxLUhwVOwvMHrB8RAmXPQiqQ1rd6LHPbCD0uglrtntmNaOcpqiaTnHRgc35ydgGBRd+VTmGgIX9yV0A6PLQyeEYd4MwCWg6IZYO4oINGatzV7o71NYn1wVK7tR1jAsdp/leWpHbcJa/KXJq/t9kh9X+BV38i/2L2KtRGzq5zCM6uUhsrVsviOY6geji4sDy//QPAL31cSpOGHAkmNrUA9/ht7lTXg9lqfQjnh635Q0+c/f086j0tN+JecOsTy8qY/vkzc7froekmd7Pe0gpvPiJx5sz6PrUMbzfqGa36dPvP1lfRVdZxnrw9jUyWd9+2fpTR5UX1EnUMoO98BOOqOXDi707+3nBIfBuj9vXwrad6vTUPtOsIHRq39CMLY/vw3TdEav/hLBTnYeJQ+IkYDlPSUvzO+bFMeebE+Tq+vg/Y0aRy8Hl/JQvnAkBgzsU9RKhMiZcO8SRG6qSq7YL+at0nKhDCUHlhUbLlgitC26cqgV3FCngDHIZ90EfK5taxdSTm2J3QWtUwsWLSxmBp3mMTlYco2S9qHJ2/LWI6BoWI+6uKObsgpXLZu4DzgOraG0I05L6jpDxlQwiYY3gdzRZz6dLKliT0h0yTiLyjhqleys5as47BMzlbhhNbrpAemqin/FII5d4oS94RmyJEZAoxvWtIFYY3G2NmBOcWkhCaY3ILExCCq+cUeybtwG5jaGpAxYV+XgupzRoHgE0TIBXJoqIe8m1bAYpPYmV+ynMIakDJQsia4rMXM1aHR9j5buYYbs8kN4RJPqpTwYiXKRxWJAuC67l55Y0hezxmqW02MUVM7DYqDmZ0MknzeuRBYNh+SWzXkoKkslsV4qWsVv8wn4CZqZL5x3KAoJWiqZZKnoTpfKaYTsktucDL/5rJxtNwYRDU7n3zyB6wXsHSQw4YKEG4aJFWkxKzRlJRX0Dm4a2KZmIyadprEpCjEGV0WCXykp/LUpa4lJ4+fKvrfppaoM6GC5ytJaEBKNSUPoxYAYntPetWJvQXSN9DZIkM50dNVabWtQZOM6RyhJMxtWP8YMEtLUieMGoput2AK7oUUDv7bBLovGDy3tcljinDSedxeLohlt43tn/UqtsOvgVGUrDEBlVcatsivtNF/jFnFjcAMNEONyVrR1Fm8H4rSx00v6DoNzukmVcZucd3HeTOdJdm9D4h4YCHkzBqm4jjvNJzFQ55aVGNU+dB6/Ed240Z6xqcQXFPTMXmVwX6lgmVsMN3X1tKSpdU2LHudwaWNbbxgBDe1r6wzwDS2I6AN3ebjxCgPrcof6xH3u6gDd6APagK5jNwaPxO2af9n0rfSbPhqq03b5ppE2deBizAdXHfh8OtdVNnXPB8tbUxds0/fUNELf9FU1Bd02fVsuP77pC3P5jk3fWXPys2mkVo9z0zfn6rQnw8lNHdQZN3XpOt4hbfpQZASYTevBOlUZLzTzpm9C+1gz+gdd/TobQoN1htIXZoMaWJ/4OQ2or3S/Gk+pcn243HfghrzNvquJk8aPyQrafMDkGOgJrjR3bmpupp6xOVDn3vR/D84a+w7zgWU3Nz3sAydV33TJD9TrN334nC0wwMszwEsXl7WZA1tq3oCWRwZ6QlcvczFgE13QiGUOBKhuZjqw43szNWIg3nQzl4KXdDP5ggf73szWGDxF3k/vGKxT/XyQwZMew43wUZrXZpx4BlKTbrDvZPho3uklnDXsQs3JnuN0qX/TSzyoTkC2tzFXrxj0pRsPeUvuiG6m/jgcfDdXyOHgu8lFbmTtbjZSUo98N30pacZjN9/JoXK7CVJJi7p2M6pcuLybgpU0Kbmbs5VVe79NW30prc9faWwGjrsxRLtpZFlDwY1r/jbB4tH35ymJEpAPBnfsTAtD3p3p6cKpzZKkfmPwFSMzazbZBgcwg1a4TD7TvvV+8nxYV8O6mR0w74YH4Gd1Cb3eeSx71HaX3jB1O4ObVln5aomgY0aXmaTA8C3uesBqEOmYDm/i1O3w2EjEWMxGizkIjIIfi01lSYHt9FDd2sNuqrSo+zYwfh7OM27cqLQY5KU3416NoSoDOes3DBVj7pslccZjOFRoA2sP1z5ug32pvdXNkmxcyDgc0NC4stV7ZIuB4ril3AVabHwb1mLQceATU7fDhWWVvfvhemoqA+dvM0IvBm6TG+5Gqcrg/2IQQKPy4JTh7hyydBv73gLNV56iO7KbXZD5Hdzwr92U9aypqt0c96xlALtJ8f4dNrPosxtIwAOWh0/Sc/p5uGnGhUeaj3J3JwDtdFHnxCJsPkBaPcxT2Ea9aesnn29UVyFSMZ42NeOKJciVXgx61cLGsLspjCXvrloQ37twXshuf5Cdjpz0mIqc5MlXwISbaiOc4+6aZXPjfl83lj0XTNL7aNcK0djRlVYGu9GFHV2tvY88Wt7ftxJ2rrTuQzhTrS+f4Nu6+Ql6ndDgG7+SKoHUdrGob7zeYAJ/8oYjB3nt7lCK6pzsbmlyVy3s7oGKrriU+3pm1MRqCnyDRXQluAGB/hldJxl7M9Nftri5bS642w039xoEBXN2t5YF193DtQ9LkUm0G+suaNLCfb6ycEzXcJfZoEx1dGPGknTT3q4fgiL24SZjR77nYwxFpS2rQu/grrGJnIX2DJOzTEOle3uZkKZNeTrXUAiuby/60bYg9NMdPU/P8rcnbbySG/rNzUbq9nDc3V2JKDs9zofJ7Bl2d9ffLlDSlgYODqO6SJsqA3cRLY8q6O7i0YQWx5AXvcgVp39NZ6EwC9puvidOGyr++5Az1aKGLwkTMiuMbY6eEmnVGViEFyye0/XTeVyhkLt4l5wWu7DNteXC9y9JzxfXnWcHtUWswF6+rjiCjHWkedPmTAnlouO5Alctujb8wGMNpkZRgavmXd8WXyv7NrDljR5LHIeiHIHnp7umrYBeQewK7ASeFuwu5Ahc/j7UR2bnLw4vD1gz6jwCjjviVF8xcBvF1NTLZhqxazP/f+nXH357//Xjt7/8+OmXX37/+uXzzx8e///Hz18+/PTl8x+//nD90+8f3//2Yf3tvw==);lineShape=1;strokeColor=default;" vertex="1" parent="1">
          <mxGeometry x="916.7654237160712" y="164.123021181593" width="96.96634686778316" height="470.59552414311315" as="geometry" />
        </mxCell>
        <mxCell id="nPFasPomJ1m4DBFbavHR-125" value="Feed" style="text;strokeColor=none;align=center;fillColor=none;html=1;verticalAlign=middle;whiteSpace=wrap;rounded=0;" vertex="1" parent="1">
          <mxGeometry x="935.25" y="213.41" width="60" height="30" as="geometry" />
        </mxCell>
        <mxCell id="nPFasPomJ1m4DBFbavHR-128" value="Mentors" style="text;strokeColor=none;align=center;fillColor=none;html=1;verticalAlign=middle;whiteSpace=wrap;rounded=0;" vertex="1" parent="1">
          <mxGeometry x="935.25" y="260" width="60" height="30" as="geometry" />
        </mxCell>
        <mxCell id="nPFasPomJ1m4DBFbavHR-129" value="Events" style="text;strokeColor=none;align=center;fillColor=none;html=1;verticalAlign=middle;whiteSpace=wrap;rounded=0;" vertex="1" parent="1">
          <mxGeometry x="935.25" y="300" width="60" height="30" as="geometry" />
        </mxCell>
        <mxCell id="nPFasPomJ1m4DBFbavHR-130" value="Groups" style="text;strokeColor=none;align=center;fillColor=none;html=1;verticalAlign=middle;whiteSpace=wrap;rounded=0;" vertex="1" parent="1">
          <mxGeometry x="935.25" y="340" width="60" height="30" as="geometry" />
        </mxCell>
        <mxCell id="nPFasPomJ1m4DBFbavHR-131" value="Check" style="text;strokeColor=none;align=center;fillColor=none;html=1;verticalAlign=middle;whiteSpace=wrap;rounded=0;" vertex="1" parent="1">
          <mxGeometry x="930" y="380" width="60" height="30" as="geometry" />
        </mxCell>
        <mxCell id="nPFasPomJ1m4DBFbavHR-133" value="" style="rounded=0;whiteSpace=wrap;html=1;" vertex="1" parent="1">
          <mxGeometry x="1039.18" y="252" width="170.82" height="148" as="geometry" />
        </mxCell>
        <mxCell id="nPFasPomJ1m4DBFbavHR-134" value="" style="rounded=0;whiteSpace=wrap;html=1;" vertex="1" parent="1">
          <mxGeometry x="1273.77" y="252" width="170.82" height="148" as="geometry" />
        </mxCell>
        <mxCell id="nPFasPomJ1m4DBFbavHR-135" value="" style="rounded=0;whiteSpace=wrap;html=1;" vertex="1" parent="1">
          <mxGeometry x="1039.18" y="450" width="170.82" height="148" as="geometry" />
        </mxCell>
        <mxCell id="nPFasPomJ1m4DBFbavHR-136" value="" style="rounded=0;whiteSpace=wrap;html=1;" vertex="1" parent="1">
          <mxGeometry x="1275" y="450" width="170.82" height="148" as="geometry" />
        </mxCell>
        <mxCell id="nPFasPomJ1m4DBFbavHR-137" value="" style="image;html=1;image=img/lib/clip_art/people/Suit_Man_128x128.png" vertex="1" parent="1">
          <mxGeometry x="1039.18" y="270" width="70.82" height="60" as="geometry" />
        </mxCell>
        <mxCell id="nPFasPomJ1m4DBFbavHR-138" value="" style="image;html=1;image=img/lib/clip_art/people/Suit_Man_Blue_128x128.png" vertex="1" parent="1">
          <mxGeometry x="1273.77" y="265" width="56.23" height="70" as="geometry" />
        </mxCell>
        <mxCell id="nPFasPomJ1m4DBFbavHR-139" value="" style="image;html=1;image=img/lib/clip_art/people/Suit_Woman_Green_128x128.png" vertex="1" parent="1">
          <mxGeometry x="1039.18" y="460" width="70.82" height="80" as="geometry" />
        </mxCell>
        <mxCell id="nPFasPomJ1m4DBFbavHR-140" value="" style="image;html=1;image=img/lib/clip_art/people/Suit_Woman_Black_128x128.png" vertex="1" parent="1">
          <mxGeometry x="1275" y="460" width="80" height="80" as="geometry" />
        </mxCell>
        <mxCell id="nPFasPomJ1m4DBFbavHR-141" value="Rob" style="text;html=1;align=center;verticalAlign=middle;whiteSpace=wrap;rounded=0;" vertex="1" parent="1">
          <mxGeometry x="1114.37" y="280" width="60" height="30" as="geometry" />
        </mxCell>
        <mxCell id="nPFasPomJ1m4DBFbavHR-142" value="Mike" style="text;html=1;align=center;verticalAlign=middle;whiteSpace=wrap;rounded=0;" vertex="1" parent="1">
          <mxGeometry x="1354.37" y="280" width="60" height="30" as="geometry" />
        </mxCell>
        <mxCell id="nPFasPomJ1m4DBFbavHR-143" value="Christina" style="text;html=1;align=center;verticalAlign=middle;whiteSpace=wrap;rounded=0;" vertex="1" parent="1">
          <mxGeometry x="1120" y="470" width="60" height="30" as="geometry" />
        </mxCell>
        <mxCell id="nPFasPomJ1m4DBFbavHR-144" value="Erica" style="text;html=1;align=center;verticalAlign=middle;whiteSpace=wrap;rounded=0;" vertex="1" parent="1">
          <mxGeometry x="1360" y="470" width="60" height="30" as="geometry" />
        </mxCell>
        <mxCell id="nPFasPomJ1m4DBFbavHR-145" value="60 % Match" style="text;html=1;align=center;verticalAlign=middle;whiteSpace=wrap;rounded=0;" vertex="1" parent="1">
          <mxGeometry x="1120" y="500" width="70" height="30" as="geometry" />
        </mxCell>
        <mxCell id="nPFasPomJ1m4DBFbavHR-146" value="55 % Match" style="text;html=1;align=center;verticalAlign=middle;whiteSpace=wrap;rounded=0;" vertex="1" parent="1">
          <mxGeometry x="1360" y="500" width="70" height="30" as="geometry" />
        </mxCell>
        <mxCell id="nPFasPomJ1m4DBFbavHR-147" value="90 % Match" style="text;html=1;align=center;verticalAlign=middle;whiteSpace=wrap;rounded=0;" vertex="1" parent="1">
          <mxGeometry x="1114.37" y="311" width="70" height="30" as="geometry" />
        </mxCell>
        <mxCell id="nPFasPomJ1m4DBFbavHR-148" value="85 % Match" style="text;html=1;align=center;verticalAlign=middle;whiteSpace=wrap;rounded=0;" vertex="1" parent="1">
          <mxGeometry x="1354.37" y="311" width="70" height="30" as="geometry" />
        </mxCell>
        <mxCell id="nPFasPomJ1m4DBFbavHR-150" value="Title :&amp;nbsp; Director" style="text;strokeColor=none;align=center;fillColor=none;html=1;verticalAlign=middle;whiteSpace=wrap;rounded=0;" vertex="1" parent="1">
          <mxGeometry x="1044.59" y="354" width="145.41" height="30" as="geometry" />
        </mxCell>
        <mxCell id="nPFasPomJ1m4DBFbavHR-151" value="Title :&amp;nbsp; Product Manager" style="text;strokeColor=none;align=center;fillColor=none;html=1;verticalAlign=middle;whiteSpace=wrap;rounded=0;" vertex="1" parent="1">
          <mxGeometry x="1278.96" y="357.32" width="145.41" height="30" as="geometry" />
        </mxCell>
        <mxCell id="nPFasPomJ1m4DBFbavHR-153" value="Title :&amp;nbsp; Software Manager" style="text;strokeColor=none;align=center;fillColor=none;html=1;verticalAlign=middle;whiteSpace=wrap;rounded=0;" vertex="1" parent="1">
          <mxGeometry x="1044.59" y="550" width="145.41" height="30" as="geometry" />
        </mxCell>
        <mxCell id="nPFasPomJ1m4DBFbavHR-154" value="Title :&amp;nbsp; Finance Director" style="text;strokeColor=none;align=center;fillColor=none;html=1;verticalAlign=middle;whiteSpace=wrap;rounded=0;" vertex="1" parent="1">
          <mxGeometry x="1284.59" y="550" width="145.41" height="30" as="geometry" />
        </mxCell>
        <mxCell id="nPFasPomJ1m4DBFbavHR-156" value="" style="rounded=0;whiteSpace=wrap;html=1;" vertex="1" parent="1">
          <mxGeometry x="239.1900000000001" y="450" width="170.82" height="148" as="geometry" />
        </mxCell>
        <mxCell id="nPFasPomJ1m4DBFbavHR-157" value="" style="rounded=0;whiteSpace=wrap;html=1;" vertex="1" parent="1">
          <mxGeometry x="475.01000000000005" y="450" width="170.82" height="148" as="geometry" />
        </mxCell>
        <mxCell id="nPFasPomJ1m4DBFbavHR-160" value="" style="image;html=1;image=img/lib/clip_art/people/Suit_Woman_Green_128x128.png" vertex="1" parent="1">
          <mxGeometry x="239.1900000000001" y="460" width="70.82" height="80" as="geometry" />
        </mxCell>
        <mxCell id="nPFasPomJ1m4DBFbavHR-161" value="" style="image;html=1;image=img/lib/clip_art/people/Suit_Woman_Black_128x128.png" vertex="1" parent="1">
          <mxGeometry x="475.01000000000005" y="460" width="80" height="80" as="geometry" />
        </mxCell>
        <mxCell id="nPFasPomJ1m4DBFbavHR-164" value="Christina" style="text;html=1;align=center;verticalAlign=middle;whiteSpace=wrap;rounded=0;" vertex="1" parent="1">
          <mxGeometry x="320.01000000000005" y="470" width="60" height="30" as="geometry" />
        </mxCell>
        <mxCell id="nPFasPomJ1m4DBFbavHR-165" value="Erica" style="text;html=1;align=center;verticalAlign=middle;whiteSpace=wrap;rounded=0;" vertex="1" parent="1">
          <mxGeometry x="560.01" y="470" width="60" height="30" as="geometry" />
        </mxCell>
        <mxCell id="nPFasPomJ1m4DBFbavHR-166" value="60 % Match" style="text;html=1;align=center;verticalAlign=middle;whiteSpace=wrap;rounded=0;" vertex="1" parent="1">
          <mxGeometry x="320.01000000000005" y="500" width="70" height="30" as="geometry" />
        </mxCell>
        <mxCell id="nPFasPomJ1m4DBFbavHR-167" value="55 % Match" style="text;html=1;align=center;verticalAlign=middle;whiteSpace=wrap;rounded=0;" vertex="1" parent="1">
          <mxGeometry x="560.01" y="500" width="70" height="30" as="geometry" />
        </mxCell>
        <mxCell id="nPFasPomJ1m4DBFbavHR-172" value="Title :&amp;nbsp; Software Manager" style="text;strokeColor=none;align=center;fillColor=none;html=1;verticalAlign=middle;whiteSpace=wrap;rounded=0;" vertex="1" parent="1">
          <mxGeometry x="244.59999999999997" y="550" width="145.41" height="30" as="geometry" />
        </mxCell>
        <mxCell id="nPFasPomJ1m4DBFbavHR-173" value="Title :&amp;nbsp; Finance Director" style="text;strokeColor=none;align=center;fillColor=none;html=1;verticalAlign=middle;whiteSpace=wrap;rounded=0;" vertex="1" parent="1">
          <mxGeometry x="484.59999999999997" y="550" width="145.41" height="30" as="geometry" />
        </mxCell>
        <mxCell id="nPFasPomJ1m4DBFbavHR-176" value="" style="rounded=0;whiteSpace=wrap;html=1;" vertex="1" parent="1">
          <mxGeometry x="240.42000000000007" y="239.32" width="170.82" height="148" as="geometry" />
        </mxCell>
        <mxCell id="nPFasPomJ1m4DBFbavHR-177" value="" style="rounded=0;whiteSpace=wrap;html=1;" vertex="1" parent="1">
          <mxGeometry x="475.01" y="239.32" width="170.82" height="148" as="geometry" />
        </mxCell>
        <mxCell id="nPFasPomJ1m4DBFbavHR-178" value="" style="image;html=1;image=img/lib/clip_art/people/Suit_Man_128x128.png" vertex="1" parent="1">
          <mxGeometry x="240.42000000000007" y="257.32" width="70.82" height="60" as="geometry" />
        </mxCell>
        <mxCell id="nPFasPomJ1m4DBFbavHR-179" value="" style="image;html=1;image=img/lib/clip_art/people/Suit_Man_Blue_128x128.png" vertex="1" parent="1">
          <mxGeometry x="475.01" y="252.32" width="56.23" height="70" as="geometry" />
        </mxCell>
        <mxCell id="nPFasPomJ1m4DBFbavHR-180" value="Rob" style="text;html=1;align=center;verticalAlign=middle;whiteSpace=wrap;rounded=0;" vertex="1" parent="1">
          <mxGeometry x="315.6099999999999" y="267.32" width="60" height="30" as="geometry" />
        </mxCell>
        <mxCell id="nPFasPomJ1m4DBFbavHR-181" value="Mike" style="text;html=1;align=center;verticalAlign=middle;whiteSpace=wrap;rounded=0;" vertex="1" parent="1">
          <mxGeometry x="555.6099999999999" y="267.32" width="60" height="30" as="geometry" />
        </mxCell>
        <mxCell id="nPFasPomJ1m4DBFbavHR-182" value="90 % Match" style="text;html=1;align=center;verticalAlign=middle;whiteSpace=wrap;rounded=0;" vertex="1" parent="1">
          <mxGeometry x="315.6099999999999" y="298.32" width="70" height="30" as="geometry" />
        </mxCell>
        <mxCell id="nPFasPomJ1m4DBFbavHR-183" value="85 % Match" style="text;html=1;align=center;verticalAlign=middle;whiteSpace=wrap;rounded=0;" vertex="1" parent="1">
          <mxGeometry x="555.6099999999999" y="298.32" width="70" height="30" as="geometry" />
        </mxCell>
        <mxCell id="nPFasPomJ1m4DBFbavHR-184" value="Title :&amp;nbsp; Director" style="text;strokeColor=none;align=center;fillColor=none;html=1;verticalAlign=middle;whiteSpace=wrap;rounded=0;" vertex="1" parent="1">
          <mxGeometry x="245.82999999999993" y="341.32" width="145.41" height="30" as="geometry" />
        </mxCell>
        <mxCell id="nPFasPomJ1m4DBFbavHR-185" value="Title :&amp;nbsp; Product Manager" style="text;strokeColor=none;align=center;fillColor=none;html=1;verticalAlign=middle;whiteSpace=wrap;rounded=0;" vertex="1" parent="1">
          <mxGeometry x="480.20000000000005" y="344.64" width="145.41" height="30" as="geometry" />
        </mxCell>
        <mxCell id="nPFasPomJ1m4DBFbavHR-187" value="" style="shape=stencil(pZrZbhw3EEW/Rq8E9+XZcf7DgOVIiCIZspzl71OM0KPpy5nTEvKm5ZJNFmu5tdykTz/uvny/vYn+x8vz0++3f91/fbm7Sb/cxHj/eHf7fP9iP92kzzfp07en59vfnp9+Pn59/f37l4mcP/3x9Ofc4e/Xdd75PBdF/8/rH4pL/r8//PoKf7h/JHh2pSE87eDJdd7dCzwmhNcdPLqC8BB28OA6nj0VgWfcvVWBp3AdftrsDV5AMtG15ez1OjzrYaJLcPbmahA47R6Cm//bvVPKgC8rvg7ADxebqk0E4SQXquAbXDfWTU/e8AXeKg6XVS8D7J+CG1HkSfdNWTUzot6n6nwXbWgF8M11VWVShzRc2p/fu9FB27zLXfB032yfr4LPcP4cndfzRLBcw5cs+ADva/hRBO/BGLOpy1A86Gc2c1T5RDpPdSMInrxssevp+wY4f8kuDcE3OE/pKh/TT/AP1cxjCL4SvrqeBD/gPHW4qv6B5N+Cnt/wIM+WVP6GB31uRfUtofxbVXs8wLctUL0T3zdxn50f7LeZvx2Kp3AxXNufx94L3rf7zd2cxReIF4Zf9I1oQzf1zXoe0J9u11v0AfxPz7o/85Ju8UXln0B/eld7MQdD5xmuLPEU3nec3MdZfITzjMU/m0GA/A0/NJ4OOP+IGl8SxpcRV31GfFp55AB9M3zZ47PzoD+G713xJE/zt03wEfyV4YU/ZORXo6g+ZJfBv426uY8zFk/yrK7q/pXet23u9Q3fSH+ay7o/xSPDj6HnIfl35W95CyDX8K0onuQ/NP4eyMf4pJ6/gf80fNckjfxz8EsiVbYvXvuAGHB1mS8sAaAjYTJ8EYLiWUMXBhoSq8RQlQumVCTTvnCO4CrdoasTjRWjqi2I4uUC0lZTa6GJRtwD21nc+0VjpokNv+0vnQdLqeoXjDsSlTNXNETzOsYyW1D3qlFNSuzs8v4djG6iNy1bIn5aUDbturZA0rHaMT80fy18zhgkJRwjqy4ZZWv0cFkzYuMkGPKzVl6MNFBOPGPa/g6Dk+KRtCRhynIQNevei5n+Us1jLGmWmVTiuL8u6OT30hb3TgsGu5mkDzd988Ed8rKAjySxYTpnMqCklaS5gL8gbOQsXlxd4ZdP8EPEsixg7YthERP5GTOw9eXIgi4tQAuyIy2XRpZ0SgrOF7AyxeWpqQ4y32ERayZPZrqxiPVowaLfB0cqH7205EZzwUdt9ODhLhg1q0ZZxHqgfGUR64F659Ue+A5aoXmHjX7UDcTlqQ8cjfCZKSa+RFj0+8BZXjBqVqYPL1Cj7kdPHbMuwFxs9ZUHRDRtMe20oBzphmpf2uqvVwPv/h0mF+B3kHSgHyRAWV3f5DNkEFnv0LgkZwsk4zBOhmK1HFoWFGbfZavpn/HKwFRXeWVwgb8grs+4MT5c0TqksW/0lVXdRj61Lq4tkC/MDIJTb0nVLUfB2sfSe0iB6XpXm555FilfVwI0e2mc+knKMXNFuvTJR5xlowcFAb/ku1QBtAXilxpWMCd+f6LKid9QV1zYTy4VkIIdiOkUdf9CAloqOIVZQ9MKTmHrb9oxKsx7qvL6slGta3iv8olsybkqnuxyySjNO9H58/b591WIxqkA/FaBGge8UCtonff3ikd9i65KYYIraFHJy0EFM2hZInNBLCibyuxHvaZ5Gd3orODreagjODsEel/yurMDoR0L7NDY84hbx457T2pf3IGYHRrFUyCbHaAFzx0m6UBz8cLwQeVD+jA7XkuHBvY3vHCDhKMps2OnHRq676WOIMnzUscR8Rc6moi/0DEle7zUkaX7zo6vdoAK6OfsKOt5KMJPqrd0WOE8syOuHU2q4M+Ouw7kUAexXJhVqnDfXFUfAk88LB1NjylyXnJqv40MXcP7ZYKBJkjiVns/2x/4w5wI0QkMmoDJQWmrx45gXvw5U/s5MaPyJ36SmtpL2BT2Mr6qv4pYJJ8TRapvDfRnTiypfQWw9zkRpf6B3mtOXGmHjPjJOtGVMXlbJ8Yy8uFQlG9nnGgJQZMS7ii3dQCAKt2nWv4bHKWjZCmi8INWDSNyGa+hLqIqeG0pRawteG0CHI14VvXjPEBalNbyeGrVrIKHX4smLZTULVMX3IT1WknllGthPGXTimvwqHBwyMvwazl41biklwz/2GGCJk98VYmdR4L0H3umJfNjJfh/89UKtx/eRrm/3T88vE6Cn/9fR7/tT69j4+nzvw==);lineShape=1;strokeColor=default;" vertex="1" parent="1">
          <mxGeometry x="80.70800424633592" y="811.9535645861574" width="743.5984014321932" height="512.9835460859748" as="geometry" />
        </mxCell>
        <mxCell id="nPFasPomJ1m4DBFbavHR-188" value="&lt;b&gt;&lt;font style=&quot;font-size: 23px;&quot;&gt;Page 3&lt;/font&gt;&lt;/b&gt;" style="text;strokeColor=none;align=center;fillColor=none;html=1;verticalAlign=middle;whiteSpace=wrap;rounded=0;" vertex="1" parent="1">
          <mxGeometry x="325.0799999999998" y="766.13" width="180" height="50" as="geometry" />
        </mxCell>
        <mxCell id="nPFasPomJ1m4DBFbavHR-189" value="" style="shape=stencil(lZzZkhy3EUW/Zl4rsBS2Z0r+D0aIMidMkQyKtqW/N+CJ6qnKiz7ofpslbxUqAeRyM4GX+OHPzx+/f3oJ7s+fP77969N/X3/7+fkl/vISwuvXz59+vP7sP73EX1/ih9+//fj0zx/f/v31t7ffv38ckuOnP779Zzzhrzdc3EIboOD+fvuD26L7/x/+8Sb+5fXrVTxdxP3mPIl7fxEP2w5PD1u9DmbfaibxvF/E65YbiUcz9n3zgeTddTRdN7Xcl/fHf2/yddsjyed6kY958yifrp+799mA8fttN/Jt8zvJx+t4UtwyqN9bfaZ8zN89+et4Ut3aM/LZbeGZ8eS+OFE/sVj5xOO56ieHLcDi7/LNyjecX/v8uJX6zPh3XP9dPl/l05Z5/EafeUs8HiNfVs8381u3wvox8m1rzzy/eNzvKt/nl7/XyMdjRu7Jx6v8fsz4g/Lp+MuD48lb4P1u5MtKP8nKt6fG3+eX12e4yrdtZ3l3Nf/usNh35I2r6/KJ58s836/m6+rsaljYZ6OfLr/Q51X/Na7slXGP3d89pZ99K2hvgxl/WsyXv9qfmrcdn++DlW84X+5qP2tZPN+Z+aq4v9wxOyd5sucq33A87rBmJ/mWSN7EG80dHv+efLXyjeWv66F5nN/+NGflyb+rfI8OYf2Lfro8rQeV7/sFos+Z/GL81/XZ9m3n8Yj8YvzX/dX6/sL1oPK8X4oTeXh+2IpZbz1ehfnarT3s8qSf7q3k+QXke3Rtnl82B+P37gjHTwB08GHzxQJoh/m+wLIFoIvZjwjpBMj0DWny0YWcTLZZzADQR2eblnRApTCrHFHwGUBauo34DCAt1ck8NNjJHZCeBbRdhkS+rE3eQIC+O32SIdFuc6KlujnKhr1oqR7vvAcwCWUHUMDSAVZLFdmCke43AdCQ4uQbaMcF3XEVnVQHGK/cAQm8eDdjyQkANlBIm5NvoD3dAVkAlAh1SxlladAWDd0wRgHQWiri++vhveaAKmptzAw5G212ALEf0W81WkAAqxGjLL6G8XtMNqBtHLDFHo9mAcDii/UI2E+ABFra3bHlzwCYh12SlhUgiENZAOKzgB4VhacASXZcwy2654OnehRQJhNHoeHeLJczZhrekNxh3M+LD4xAChIJtGM5zgG7Te/GjoPlnbL46YpOMdWDLjwbMlje2R1829kYU8TnDzt39kCw43KUaKZizp93y0APt0tD2o/Y5UHHnpNNywcAJq4DbBxdkBfJeRI6UGLeAdUJAMxMLofWzwBYGh1Q9KMJMAvWF4DJPNA3tEl0T2FocQcb8uBMFz8JdMkpliCGbAHYZQNxZFzSJFin6L6UyTxkWK2lzXIgysrcVuUbAqh1sGTyBooEahSHUjDWqLutWvXMkpiPqkaASxs1iX/IGGDVLEHiEmDZngWgTNJ1Wku1Shi6ALSDjngQ0Jw4lHxwUvcA1szwRzfhYAcA3G6Tot0AwFpqGi9lNMaDpMoCoDdo3Joxfxg0lag1g5lpu2WeO4CY5EFUBQHQkJKtNQ0ADSlJJJAxImu3WumD7NJ4ntJRYATet/wZQN9QJH/ImHAM0yuLL5Baq6W4B4C0VI8E5gQgEuE9kTyRgmT5RpQqLGIhtTYJ4RLSFBPAzvuhiZZuUeCjgMgbqIn1jlhqngACZoqTIXmMWydv8NhrMdJtM9PusFT3lkaTegNa73qY3hOg8PIuUqEg+nQAdgugEuwAZAvwi/1wtXyjKMNvaAKoi6WRLYAY3bHjpE5EadnIPJ99g/FA62/I7iktNcnY3coI2EDXHV91FyCLLzHAMrpuZcisbV3shybBiUMKeGxRecPKCAQBkOWr4uMcpmUD4CyA8oex42Qe0O3OAESEtFtXwQngGFB1eS/UKjsODZlM3ANbVN/A1vtpgA3hHHd3ua5FqeeSR5kjsAI5QbBfnCGWrrc1C1g4dwtYhg+W+14GKBawDIEUkNk2adJBvUAT65fZEDQhpTJ2Q0x8dWG1VjGXBcnBd97tBKDy1Pi3DAkjfE0JuCA8STqWb7BpTTmohbuJk3wDhkCamt3U8GjyV46ZuZteypACOcYoq7VgaWc0csiQEBBkTy++IUzYROLvB5Ggb6AhKVWxmGklQxZvULqlYMw0IXQWAKWMeEgTUmoBUNqrYE49IdZYraNpTUhacnP11pT+OEAJTjICg+CUiSMypAap+hX0cYOk1ZICcd9tQpaTay9FvqFipjWobO0VgG8YZLkUj8gYT+h4Lv1PCH8u/U9KChXnYVK0qBiVTcoilSs1ddaNQNWmYnO5AaB6VhEGqGIf36Q8VXE/jAKYNHmQERglNmnyIEM2iniiJTL3o0yoAHrDPimm0mrN0ba/jsVHb/DCbXAbySjXJgugskjSPqyGezrdgs4TgMz9KGrLG4hoHmXzYAHEric3Kf0Tt7E38Q987GAvwpMxGaLtC6csZ46QDoklQpowlgjp81gigtXUEiHdKkuENMSsENpzs0TM2nqoMX80DskiJCp1tCbJEiGWfTQ/ySKkOu9or5I3ZFiEo4FLW2IIUKSdnNt6RhOaaImimtEQrN1S9IZkDwSu3pA2JwDsHtyF82tYdQqa2nBPWYiT5ifq+h4tkwqgZsAw6ceicw/h2c674Ccmc9GJaj1RO2ZmDnBi9hf9iU7qKRWby/2tg+zByMxXab+vRyR1D6Ctq9gsPuvHovjVl0lITau1AzR+RcpPO+8qkgle07OKa8lrZwU3KftdeixvYcscECdt0J4+OkzmgRzKOHgg6Rl2VkgUVI7yxzySE//DJ5+0H6YgOxjkpEg5pnH+wZJC5MVJmiRlbXKHbtLPQ5GucsZ8MmYmzydvTH1gebJH5fnkkPWcq5NJKs8nn2wmvTpZpfJ8csu62dXJMJXnk2fWfaxOttmu6tXJOXuykCN6Jycj2Yc7235ZK3YtOdv/X9kmOmtDK7NuzkYIlfu0nOUNu/zi+UafCe2hs3Tv6LfD8RgXUHekYZz1kzUuvtfYwxqxxVGO8tSwGI/h9KtHds5ZVrUuT3YmK08n5+SkZlmeZDUnyznYcjZjXpwsl5O1i5PrKs/VMJXnk/cqzyf7VZ5vDlB5vplA5fnmA5Ff3Kwg87W4uUHl+WYI4WgWN0/IYYvFzRayPhc3Z8jJ2sXNHCrPN3/oePhmEf1evrlE9c83ozhbLVvcvCLyy5tdTHyV2L94G2+Mm2nolKztGNz5bJm3ac+4WYdvFrmOZ9zcg/LGf72fXb4jb/zFsNh4k4fZvz0JoqNAQeIN7CYItoi9ozcKBwF7Gz3TC5ZdYN8VrC9yi9TFHOp3eGY92J3rFldEGUPlMC+Kdt1zo1K0Ya1bXLZlVv2C5rRZ7OrpXp6OYw9WkayZYBVJeo+H+zuJ89Pt2GnNPH8nGov3H96vX/v99cuXt9vbzv+317X1P71d9RZ//R8=);lineShape=1;strokeColor=default;" vertex="1" parent="1">
          <mxGeometry x="60.33575450343062" y="841.6888151660426" width="722.732774751126" height="529.7004716220159" as="geometry" />
        </mxCell>
        <mxCell id="nPFasPomJ1m4DBFbavHR-190" value="" style="shape=stencil(pZ3ZsuzEEUW/5r4qVINqeMb2fxABmBvGQACe/t5ZvqhP9946S5zw2+VQu6WaMneO+lS++vX7r3/+9lPef/3tl5/+9u2/Pn/z2/efyp8+5fz5x++//eXzb/GvT+XPn8pX3/30y7d//eWnf/z4zZf//vnrNXL96+8//XP9wr+/4PattQXK+3++/CEdW0v/+8tfvoz/4fOPND7+MudHxret9w+ML/ljv1/GNg4cP1/G17Idlcb//raP8XOrmcb//vRz/HFsveH48TK+xRvC+6St5NfxZWvwPulcvcf4vs39/fF5q+llfN+3DOuft1Fex+etwP6WLdfX8XXbYb7lXI3H+GM74PfrVvbX8X0rcB7qNmS+Y9thfY4tHzYe7kvsftL3mbBfbUtVx/++wu+Mb0XHt/H++L7t2cbDfPtWh44/4DyPLWddnwLvM87b8Rg/twTrE7fv9T6OfUvwPmnfSlLAgAOdku7wiDtHT8g65QDQFqRyzvAJMOEMBWC8XuKRt51eqW6HP4Fe6dj2ooBOq3TouQgAyd0AjG5zIEHXtmqTPuiV2jaLAegJcbarAuguBECE9QjlQcs6bJUO3od57usDEH+hSc9tvALmjmcpFM7xukqTT+vSOK9zmPmUsdeA+N9VAZ1eqZwS+glAOj+Edn0V8jOuFAEO1WoBKCBVQ6yWqYBKgL7loYCDVinUhgPgAgVANO0CgCYMUSlC4OaVSmh6WyWadABmMwCcpRIywjaOrmiQP6Ffk29cKXpFA0B8toTksyeQuC9NGdjNaS39FFt/8AItBiuvlHBZa6hAmfSOorKmc1+fxEyFVar5XPUHYCDNe2PVD0A/L+01wIjbaCg1AjCzAjIBDhP3B6qsAMxdAcR9qh2NABQgM7WfXPMBqMgOq6usise7ji3ZE/CVht64UXnjpin2er7kNSM2E2a9ElHorDZMAHa4D0fd+mEA2OkjuIYD4AIdQ6VGMIEB9+GYKgQWdSBen+xolNM0uAZkW9Z8zuoaEC8gzDghM27V7nTaEs3hUC0a3DvDxrWmpzWsAdJxAegCGCj5wvrNrxsX9gwR3QCMrAA6Gm2czOIBaHgfAjCqAuh4t6k7HTbxoCfMrQ8FkBOjGxMIK528BgFQM7Si2d3TeSEfgHJyg/cAooECQDu9/BCHvlKmJ5RzTZ4ApB+6+w7Y17MOggDaKamuASZm4vBVmvRU91b8RALZGjdYd3qcHrVrQD7dTc8GO7zSEoxFAY0AVV1oITUqvVKsuki+hObxaKZF08mVrwFdyfoSlfSErm6rBSA3SGyTeR3oLAXAn0COwGB4yQB0lgLQTD8QMw7S6auUQS4FwJ05JMimeUsDQGImiLPYon3ixgVA7/REHbe4vF0gOkvLGBa51E8z6hpQLlyCiSZd1PBbgoee8BCMT4Isg9oNQBO5VNELNw89GiGeGz3hUK7RM5LEAExzROMqPdbkAUinE+w9gBDd0HokZmZXX3eoemL3ARBncbCPBFJjji2/TjooF5n4ARDpHaSODL851VfZ2EcWTxCjaXFlWtZxMrwHoKB5PM3FvGwWWiVz24XtmOjw9dMT8wAkvg/9dGU+APvJZN87S8KXykSzbDa9QGXc3Thh96Xx4QuG9zrpwmwmACK9S9hdJL2rzaHyKpXT3H4A2IO1ROUwAEtv0XEB6PSErLx1eZxYoVSbww1AV6mghTKNeweAKFwARKEUdtsFE9B9yKiygpyIMA5AZkCWJzB1GN1eiW9ccL75utN53pFEsR/yQIWyvEmvG5c5tDYshpIbWlmLGRcF4ByqsvtcMToQZF3OUuYrGoD91eDI5WTj79kPYoCvEDI94RGeeAKQeTzMc5JvztIjwv0AsMHR7T6kiVKjDzXAU9wQUChvlPAJQPqhm4WSOrpPgxIKdUjMKru5T1M7yfV75rGEdlcMEIRxf2jlJ0ClVSoqvQOAcygqvdPD/f+eE0F8AgvAbgqddD1l4XuAlAxAG7erQknsm2lT5dIC3PiXbJVICLgHKwAZTuvykdnRIDuudXX23xyNABx2NMhR3poGUtOBFnsAJC4a9+HGGyr2w7pAtKxVXfGpsUc3m5jp7Iqfau2GICMT/2hqT4dsJTFzZF3WUCh0geo8OeSzjiNAV+oQapfmUA+1H0Kxk7ivD9L5RB1oWauTxB2TWuquCR4BIPM4rAUl6zsKgQAoM+a8vWJm2WJkFAweNmmOWnpcNABEHUpXH1kASLaWpvb0CkBTuLmpxR4Aij8Ucz2uZaVXOk6r7QlAGihMJMnXWLyVAEUDFouGUkC7qJM5N0zZKubyWqySljXpTmc2y9YiGucjp1oxT+KSS5zrIBb7ymOFJ2TzhgaAuEYA8odk60rweBUzwfmItwZAwmsh7jGrZSgzThx/yGZlhVIkwy93NQeWYidA06ORHlGV9wC7LGvBw5ctCJkKOtVyVQ20MvxoWav6yBK7i7I5aFeWIj0hW6INZyNZFu9AGysnJXADzfWc1IgbZ1rp9XjLuuYk2HW1uo6H+S7zK+v7UObfVF01cP0v8vg4769bTgR6KJfpJRk/SCXj2jbJmEOJnezSTJS/i77recNs0Go2yY4HIq6gGPWJMwOS3YAANMo3NSWVODEyueXG2Q3rkhsAT9Fu9DyhO3NJhaoAmvS0RUooTN3QyxwtNjuPk/2HvX/Ge9OVBqeMxSLdzMiCtkI7T/EfVAVNHUMxnuSiscFUkLZY7mFcJFIc1VQZp4sVMyAP9BeWC7McVaXGem7M+CtvCq1POp1kz0Y8XXrNEYnxXGzUzQdGudC7/X7HnN1d0yxDEA+Y766JPYkTDnc1VxYXwt9XSpoxL243HyEXW5gjdaCdvGsad0fLZteQcMN8HuMcx83aSNZJO+tA3hkuFkrHkGJSXjzQrkxq6b6Vsbw3Xi5uxlzYh2Z7EiS09JattS4iVuVNO/jknnDN2FFRWMgrsY27K39bjIsv4qHvT0Hs3ahARc1+dRFZ8GQRDDsSyt35OXl8d5X7HT03u1bmNLRGds1UOtBg++DwpDq04rubiqho25kG4rRGU3D8MqY/K6o3q5OpqE1M+1dM761K1irajFUFYEV3yGF1upwJrJrkg8SuYIjQeCPTOqOlhRPndCEL3m0j1QW3yTg7r7uZBBVDCG5yVC6JM8nNOSBuNFXMm19WmdRT40FIWctIDvYEZNVUfEmW4arLn28sY8mEYMbrwQle/8MoMmZ2L8/Bq+bZ0U+69GSR8ZTt656PnffLPCs7kjr33HCofnmG9P3JInDP0205pRQgJCwHX54zMeHQ4s7JTOI7T6F6YvA8L0EpfnDMqs/FgjboSVrSSeUD5Ru+KZ23+3tX2VlkPOUYZMuja+zpbMpGOItumQFGpbhutJknleY73JAgZrfsDPX8UQRs/Zww38SuXStGSRkzVZYr0Rz4dCRW7NSMlZvo0fEha6W4edMw9h8A7ZrC21YefrIHYCKRLEUnvQQdrZL1CMgJTcAVWBRARhO2HOoNWPyV5nAoK3ujpNeApkXUuXLYr1mywIGn1UPImfNIPEi9mCwBLAy+JNKHAu2rBwhtnIXyb2TYShawlArijCsdoX9kDivhoSiAUltqsdTHym1dDi1RyI/yxWuAJd9nLiCoFkNaLiHqBGOtb0IIEFc7rDx4eRU4PUfdIpwa36y2JO1YwtYs1smBp3ZYrSKnklmSVP9gFlbHZGlP8xr8/pZHNtDh7olqA4uhPROOi4E81W5g9yfP5RtccWjJgtwdy7MRB67/SndU+kLm3MqnLB8Zb7kpTHe6tYvisopulU+T83KrRZC4XVc/NDFlBQkpgbRp+6EAUMrFKgYTCySjidC7em6W85GeMCxLMKNLbuVHm9zC1HkPfBTct5FU4SwSSZHIZKEebrcyspZxBwALMrPmXaWKPuZRLDpUMSVv9SSwnNabegG5DamjuBuHBZQ4cWEcRi129o019ZDmhHGWVbdhqWAUk1ylt1kBlDyyOplIZlfheuOhPrXlsqMCA2v+EADaOK/QyRzY8xqgRbWpFsuqjDL3yZnpgszf1LlqXi4X7M+spv+NufDW9Ol5lajaq9jRqHj4pnkvVv8/WqWqki/zFV2FsWIuNEyCDUCTVeqYgzGbzaGjzp3NiPBAX/0ql7QUVaz77io1Chu3c6hhGAY1BcZXnau4XTvaSAEQ8zmMIEqNnFNDbPVAT08AxGdwcCPCOdW1GwYE6Ye075rf2W5qDafOOggmbrVJss4ZOl4/3Ll3j+/cTcPPdTasqQaWP1qVdRAciomsOm4hrTu24plNqcC4LS2XTIjVLoLL473XIend6c2vMu+0xfdGZgVRNVd4ERxuUyBqdHAsdlrv2MHlXkujJAXgfTA33Whclm3u+dHuqnu1JVLn422pFKMj+V6t32TSA4ux5m421sCc7YvGIAM37qL1CLtLL5qbcALwap9iAKpLWizRlpUCZ6sFzKEAcjU60x1cVrHa2Fi7Ocre9HLgcTCXttKQUbH94rDy+HFTDpzUnh5ci756AVlLVTpLqyWSSI2MJkq3Vp5vJch/0MZfJcg3jaOsUQ7ph24dUhfgpvmVvRLW3rofJ6G7dDXw8g5HtEq7tUnOGLltVmu4VNZNGarpOHK9t6HOw7dmVe9696wnMaVqrGZwMumC4d4AaPfpgmy9NWtdyN0fWtNA0ajIQ9thcolTKpordo4GtKL2QEg+ir8187WEbM0ESOoJGYMbPE61mgJAMcTD2vMuq586Qlo7ocE1GRdNKrnX4VGsI+REpXhY86vlJrhp5SmdalnMrMY71tqWJJ+3I51sP3jD0wCQo2+1VE32SgTwfr7c+ny1hU0KwGU9tLvo5CSdWpXzTXYar+a5DqCOwUWDjquxDa2SMYFZ8MZV63szmTrU3VzxBwqBYib7cnVwI2adQ0ezbLV6Lgogp0CxNmdz4H24aFc9uOW2N8Tm4vWLltvjrgu41hoO9LVctA0faCleNCYfH219PlAIXDRXH2geX7RvH8iMLxrE30zaW9AP7orvTe4Hp+54G/3JuWimdif77VbuWVcArtKunRPmxMSala4n4bL9JoHQyqzjESQr0zDB1Li2wryVN03rV+2CzPoRfXoPIEldq9HlTf2nNXzHtF5niRNvUDKdtWx8/iCIfkGko/V68Y2Szl8y8q+gdK5i9e+sdDQgLr7kwq7yi2/FDIz5Ja+QYnk/LV4+kC8N9W0u2ooVnZKuODjg1420Mo921ykfo2ZGIruWvOM+e5bcb8oJLP6ZG05IOYyj85GzwukYj8lfqs3XJwmwZESNvcrfnjDDKiMZzsojbzwZ+aLBO37JSNPtO1dQJvv8FFfgWKZb5wroXfOZGreP3619akGv4a7rE3ZlxvHiu11BJR7/+j5hCfDn9eQ8F04I8vF3n+/TXn13nwfU8XefH9SOJ3efN9QUCy7JsjYyiePuu/VH4VSa3QpB+dsxXijIn+UyfZS4i/huecx346tlM/H7aGeUu/lqptHdekoGwO1+ify5PQ//5+c0bXz84+3bnd99/uGHL5/+fP7/+q3P+NOX74SWP/8X);lineShape=1;strokeColor=default;" vertex="1" parent="1">
          <mxGeometry x="160.7092140786773" y="858.6521965991979" width="658.2608483341348" height="53.475718932793484" as="geometry" />
        </mxCell>
        <mxCell id="nPFasPomJ1m4DBFbavHR-191" value="Home" style="text;strokeColor=none;align=center;fillColor=none;html=1;verticalAlign=middle;whiteSpace=wrap;rounded=0;" vertex="1" parent="1">
          <mxGeometry x="189.89" y="866.88" width="60" height="30" as="geometry" />
        </mxCell>
        <mxCell id="nPFasPomJ1m4DBFbavHR-192" value="Connect" style="text;strokeColor=none;align=center;fillColor=none;html=1;verticalAlign=middle;whiteSpace=wrap;rounded=0;" vertex="1" parent="1">
          <mxGeometry x="289.89" y="870.39" width="60" height="30" as="geometry" />
        </mxCell>
        <mxCell id="nPFasPomJ1m4DBFbavHR-193" value="Messages" style="text;strokeColor=none;align=center;fillColor=none;html=1;verticalAlign=middle;whiteSpace=wrap;rounded=0;" vertex="1" parent="1">
          <mxGeometry x="379.89" y="877.77" width="60" height="31.77" as="geometry" />
        </mxCell>
        <mxCell id="nPFasPomJ1m4DBFbavHR-194" value="Careers" style="text;strokeColor=none;align=center;fillColor=none;html=1;verticalAlign=middle;whiteSpace=wrap;rounded=0;" vertex="1" parent="1">
          <mxGeometry x="479.89" y="877.77" width="60" height="31.77" as="geometry" />
        </mxCell>
        <mxCell id="nPFasPomJ1m4DBFbavHR-207" value="" style="shape=stencil(lVfLbhsxDPyavRJ6ktI5Tf8jQJzaqBsHjvv6+1I1NjUpe9Lc1rsaU+QMh9KS7163Dy+bJYXX0/HwdfNz93jaLvnTktLuebs57k76tOT7Jd89HY6bL8fD9+fH8++Xh7FyPH07/Bj/8OuMS5ESD1QKv89vhFr+++Lzef1+93y5PtD4drE+durhNkA/l2oASQEFABqlZgC5U0gAIFTsloqQIAATFwOoTAKSjpWk2yIFajhCiAbQIkWBgGJpaB1G6CRufaYKaEiZcrAp1JWYq4CciG0ExkSXRDFbQKHWAaATW95YqwqUUZuvaq3EIAILZUd0ogSSFqHkIkSojK60sgcwqFLP1JvfUgA5dKZqq1Tz+uY6oFHpvkoCytr7WsQ3QKMagVhDoGDFxJEqDpFt1qoNmIRQt0QolxFFqGvLX8g1ogiZgjO+ALXR9XPwgALK1NSXit9SBVS3SkF80q0BgDa1aznc1C15q+RElT8CqB36zLwl9VZGVZqSroUiSnoqq3ZQAd46Ezd6FDE9SUMB0Iwn8emWOoowyVuT7shnpgaqAjvuWo8G3HKTDXCG2piNhnkl/6aVuaZWo8FEOLMcMwhRrXZsDxujR98BTC6AAFJWe/9P29COrFMEAYDRL+6wUaFt6BzNVn3yNlmvAwJ1C2gFGn7WIWiJ055CxqRHsmx5uNDj9RAUrG2ouhrgYVK32kICRQpeetIgz5GCTWAoD7CWPMs6dBPM1031UqGy2eebGvQw9gajx2oBzSzErtOIwXamk5jaFxojXj95tbNbh1t3ZcAXgOj9OsBaRiVL3PqE1KwDqbv1SMt6XWjZrUdnl9Et/v/RsXZQacnSeYauL933e4IHcw0vdsIWKuhuEf2AVbWCen74zvnuen34d8F92u335/vx5Xd/IdZX58t0vv8D);lineShape=1;strokeColor=default;" vertex="1" parent="1">
          <mxGeometry x="689.122402341034" y="838.9725813945829" width="31.69687399135546" height="29.750607786689216" as="geometry" />
        </mxCell>
        <mxCell id="nPFasPomJ1m4DBFbavHR-208" value="Account" style="rounded=1;fillColor=#253858;strokeColor=none;html=1;fontColor=#ffffff;align=left;fontSize=12;spacingLeft=10;sketch=0;hachureGap=4;pointerEvents=0;fontFamily=Architects Daughter;fontSource=https%3A%2F%2Ffonts.googleapis.com%2Fcss%3Ffamily%3DArchitects%2BDaughter;" vertex="1" parent="1">
          <mxGeometry x="626.2499999999999" y="869.4100000000001" width="100" height="33" as="geometry" />
        </mxCell>
        <mxCell id="nPFasPomJ1m4DBFbavHR-209" value="" style="shape=triangle;direction=south;fillColor=#ffffff;strokeColor=none;html=1;sketch=1;hachureGap=4;pointerEvents=0;fontFamily=Architects Daughter;fontSource=https%3A%2F%2Ffonts.googleapis.com%2Fcss%3Ffamily%3DArchitects%2BDaughter;fontSize=20;" vertex="1" parent="nPFasPomJ1m4DBFbavHR-208">
          <mxGeometry x="1" y="0.5" width="12" height="6" relative="1" as="geometry">
            <mxPoint x="-20" y="-3" as="offset" />
          </mxGeometry>
        </mxCell>
        <mxCell id="nPFasPomJ1m4DBFbavHR-215" value="" style="shape=stencil(pZ3XzhxHDoWfRreNyuF6w3sIsGwJ9lqGLG94+y2u0P3PHPZ8JWPvFMjp6i4Ww2God/kvv398/9uHdyn8/vXL558//OvTD18/vst/fZfSp18/fvjy6ev607v8t3f5Lz9+/vLhpy+f//j1h29//+29Udqf/vH5n/YL//7Gl8IRknGl8J9v/7L+IfzvH/7+jf6XT78+0pejV6GPCejn0YfQp/6aPtcj6O+XAfTzqLr+Vl7Tl3zkKfR9An07ahT6Cd+nhmOUJ/p4BPj9mo+q9KkCfTtyEPoM36eOYzahr/k1fYtHq0oP62nlaLqeCvLQ+tEdPXyfHo7chb4RfTrmVHr4Pr0eQ9fTGtCPo7j1wPcZ8Yju90E+x5IH3a8C+zXaER19BPqh53fRgzzPdH6+N/oO65nufKVzA1/Rzyj0A/Z3liM9/34+CuzXou9d6Cf9ftX1l1MBvKIXebgU2Ev6IfQk/0b/vF8N9ecd/dis/5m+834t+md9NdBeGH0U+k77VU91dtLPI5O8VacflgHjF85NGVCi/RPi+RMvXzkowwQdNNcZljOWTql9xSBCGvO5LS8Z5B3KEekrLSkbyjBJrtsR8jPDeitakle8jZ9Qz226GPr5E9/LsGQPbNNiEF0U53m6X27c8+Exb4i/UnIMg2TpOu0XA9vLG4bEB2gxPDtQS0NGZhCLYyqV3yGISSjH2DxBbELlnfZLWlpvsw/P4r3U3uaIippceinyksSO56WXWJZ6VAbU3E09nRzPn3jJ8LzTObEia2rb8rLurFv1pa9w4ZV1Fu83Nzbn2S1pHIlkKakyXhHDJIbLP7scgKXuSZGFU9QuhnRU2ukVAT1/pXIFAfc+2zxDlIuhnAbgFYPYuFJRLy0GOaKLgfTSciPH8z6US+BfMjwLX+lHggNkDEUZBn2lpdyFYaD2Xgz1WQmUib7buETt8t2u6Pn7GTBaGKeoXQwrfqCdXu8QlIHi2cXQnvehJjxxxjCUgTxoEz5ZUkYlYOItSyqntn3J8HziasXzsE6ciPcKo+mzLgYRjcWArkM4LdrF0LdaYyoDBj7hVFsXw8DIcCky8QQMCyAbF90+THZOomI7LeyWNIQhcrQU1cYthk6fNWm43ZZ402dNR3o2u21j49Kpti6GcnofL5dUlQH3IZ2O88VQWfgWw/NOt8ZBXFKfbzGgUUxHkyewMl52Wp9wWYyXuIF8pYlKwDyB533o65TzkkpWhkafNZ9m/GKIp7C8YhC9tBjwAC3H+Xmn+8Z1KBo/9MxqprjwviC+aHjJ88b1inZ6+Xxi4/o28BM73TtvnPO9FwNiCP2EpC+GwWe6q5pZDIgSDQ3A+0SzawzPsjQC+nyLIQhuEk+b9OodBIgdGxCh6xEd+QwQXsYPzzs9yhkwv2IQz3jUHa4hRnG00795uSR5Qj+xlFcvLTDFYsAoy8mS+Wh0gLqGlstdSbwk0UvmrrB4S9BkzsRGNOQJDKIvBlECFkbxVxJPYKm2zT6Id/8GBL88osJQjkYMQxNJc6PIhtppg6joPCxBkK/UGCseakVt72kfnCv9pnhuGWK4sncPHIiqTbemyd+1Korw8NCX3kbRR5AvMIYTv8mhX3Y7MfFUL+XrGUh/L4uT3GciVbbMbHAvTUZrOSNi5YyBMnVNHSBjgH1YnrCYlLfNv2WoXm9MTF6tQK9NxwDvsMLh5Blg40rX9MliILNY0ulrPzLAVzJ4yG0cMnQNOebEFGguJyD7yABnNMc7BnhpAzP9oaasflWzuNkHA5XdV6KdjvPmPBCQHZd4uyNKAUFM6gtsGFxlgtHDvrUbSUpwGlxEMwemovON6sbSihtrEuE4p1PIHs0VrD9p5s5UPwmR+pOWOSORcFq+IDgWNfM4OYflT03GY+ZtQjpVwQt6ydptnKSgWQ2DQ3A96sBEBBour/HBLSRnIajeGmxw3PoXPcmnA93ewMrve9/lmlNeybk6i56ivOBc/4beV3COfEW8ICgkPgoq3ajyttwYsq7RhZDpVPOv6KvSk3y68zIihhXxxI0f6KnUKarjaCEwyJvTJ2NTmqbO8orJSR6SJkmstoesqtqL5RQSWHPhiA/ACOXnsoZEVptEpWm6v4bUkO/k8K/Czpnqt8553qouQb/c8lf08n0S+q+u0mbRkz6sDlyLeB5d5rwzOO3pAyIDTcOgNtHeuVqBNvF8ufU01rdNEzutYwjeFehrHVOvXfd3RSxYWqf6sNXNeuS8L/qEvy/6vBWUt+6+f0bcvp9v90CPpXhnCuqiTwjzu9xgi+ivDvXfWkB5cHBGnQhnDC26qINLOdU+rviS/MnucqEdz6OLw2rD/G9T/VArwhJNM9iLnvz/dpfWBPlsLjObEX9ylcmLntcj/nNNXNqr9qJG9Iebyltlf9XVpNWA9rS5koOJ0FZXbGHRU67E6ZMy0F509ZdKx+/T1V4X9lf97zf0D/37Nqw46q4io3K9hCtbKRt9pevhROlQf75wbqu78o2E8WxX+S+RITyV58Ly3F3RTUDgv6s/kCf6h13jr0VPeQKn3/LY6B9JvmSur2xaLWlIGK/nWZ5z2+gfXX9F++v0w6KnIo924rEX/U4/6+9nLGPsis9Y9RzqkyLfP23OuwDGiz7gekT+c8SiYZeXypxm6qf1f6An/GfoeUmMXw/Vh1aCifpE7KN5RIgHauVs56IIjX9NA1A2R/HDxP5wdK0vFtJQwB9OzPaBgRDBGLXY3rodQKUbg5Tycs44RlXSiyERSLBkWBgSYt3RwZqbDp7FIOfYWrQIF8laIpQCltcsBulJi5xdWgyjKQNBHdFhBXFgLLAYBLyIXMBjDEUZNl9JG4u4UyUWTUdF1tfRAR7rXwiwWf8tFs0WSZ/VNcPEDcRWtewvJvRZrClCRIOdkOhbPQJanXj1+zwwkBto++o6buj8uLrzgbCxLUhwVOwvMHrB8RAmXPQiqQ1rd6LHPbCD0uglrtntmNaOcpqiaTnHRgc35ydgGBRd+VTmGgIX9yV0A6PLQyeEYd4MwCWg6IZYO4oINGatzV7o71NYn1wVK7tR1jAsdp/leWpHbcJa/KXJq/t9kh9X+BV38i/2L2KtRGzq5zCM6uUhsrVsviOY6geji4sDy//QPAL31cSpOGHAkmNrUA9/ht7lTXg9lqfQjnh635Q0+c/f086j0tN+JecOsTy8qY/vkzc7froekmd7Pe0gpvPiJx5sz6PrUMbzfqGa36dPvP1lfRVdZxnrw9jUyWd9+2fpTR5UX1EnUMoO98BOOqOXDi707+3nBIfBuj9vXwrad6vTUPtOsIHRq39CMLY/vw3TdEav/hLBTnYeJQ+IkYDlPSUvzO+bFMeebE+Tq+vg/Y0aRy8Hl/JQvnAkBgzsU9RKhMiZcO8SRG6qSq7YL+at0nKhDCUHlhUbLlgitC26cqgV3FCngDHIZ90EfK5taxdSTm2J3QWtUwsWLSxmBp3mMTlYco2S9qHJ2/LWI6BoWI+6uKObsgpXLZu4DzgOraG0I05L6jpDxlQwiYY3gdzRZz6dLKliT0h0yTiLyjhqleys5as47BMzlbhhNbrpAemqin/FII5d4oS94RmyJEZAoxvWtIFYY3G2NmBOcWkhCaY3ILExCCq+cUeybtwG5jaGpAxYV+XgupzRoHgE0TIBXJoqIe8m1bAYpPYmV+ynMIakDJQsia4rMXM1aHR9j5buYYbs8kN4RJPqpTwYiXKRxWJAuC67l55Y0hezxmqW02MUVM7DYqDmZ0MknzeuRBYNh+SWzXkoKkslsV4qWsVv8wn4CZqZL5x3KAoJWiqZZKnoTpfKaYTsktucDL/5rJxtNwYRDU7n3zyB6wXsHSQw4YKEG4aJFWkxKzRlJRX0Dm4a2KZmIyadprEpCjEGV0WCXykp/LUpa4lJ4+fKvrfppaoM6GC5ytJaEBKNSUPoxYAYntPetWJvQXSN9DZIkM50dNVabWtQZOM6RyhJMxtWP8YMEtLUieMGoput2AK7oUUDv7bBLovGDy3tcljinDSedxeLohlt43tn/UqtsOvgVGUrDEBlVcatsivtNF/jFnFjcAMNEONyVrR1Fm8H4rSx00v6DoNzukmVcZucd3HeTOdJdm9D4h4YCHkzBqm4jjvNJzFQ55aVGNU+dB6/Ed240Z6xqcQXFPTMXmVwX6lgmVsMN3X1tKSpdU2LHudwaWNbbxgBDe1r6wzwDS2I6AN3ebjxCgPrcof6xH3u6gDd6APagK5jNwaPxO2af9n0rfSbPhqq03b5ppE2deBizAdXHfh8OtdVNnXPB8tbUxds0/fUNELf9FU1Bd02fVsuP77pC3P5jk3fWXPys2mkVo9z0zfn6rQnw8lNHdQZN3XpOt4hbfpQZASYTevBOlUZLzTzpm9C+1gz+gdd/TobQoN1htIXZoMaWJ/4OQ2or3S/Gk+pcn243HfghrzNvquJk8aPyQrafMDkGOgJrjR3bmpupp6xOVDn3vR/D84a+w7zgWU3Nz3sAydV33TJD9TrN334nC0wwMszwEsXl7WZA1tq3oCWRwZ6QlcvczFgE13QiGUOBKhuZjqw43szNWIg3nQzl4KXdDP5ggf73szWGDxF3k/vGKxT/XyQwZMew43wUZrXZpx4BlKTbrDvZPho3uklnDXsQs3JnuN0qX/TSzyoTkC2tzFXrxj0pRsPeUvuiG6m/jgcfDdXyOHgu8lFbmTtbjZSUo98N30pacZjN9/JoXK7CVJJi7p2M6pcuLybgpU0Kbmbs5VVe79NW30prc9faWwGjrsxRLtpZFlDwY1r/jbB4tH35ymJEpAPBnfsTAtD3p3p6cKpzZKkfmPwFSMzazbZBgcwg1a4TD7TvvV+8nxYV8O6mR0w74YH4Gd1Cb3eeSx71HaX3jB1O4ObVln5aomgY0aXmaTA8C3uesBqEOmYDm/i1O3w2EjEWMxGizkIjIIfi01lSYHt9FDd2sNuqrSo+zYwfh7OM27cqLQY5KU3416NoSoDOes3DBVj7pslccZjOFRoA2sP1z5ug32pvdXNkmxcyDgc0NC4stV7ZIuB4ril3AVabHwb1mLQceATU7fDhWWVvfvhemoqA+dvM0IvBm6TG+5Gqcrg/2IQQKPy4JTh7hyydBv73gLNV56iO7KbXZD5Hdzwr92U9aypqt0c96xlALtJ8f4dNrPosxtIwAOWh0/Sc/p5uGnGhUeaj3J3JwDtdFHnxCJsPkBaPcxT2Ea9aesnn29UVyFSMZ42NeOKJciVXgx61cLGsLspjCXvrloQ37twXshuf5Cdjpz0mIqc5MlXwISbaiOc4+6aZXPjfl83lj0XTNL7aNcK0djRlVYGu9GFHV2tvY88Wt7ftxJ2rrTuQzhTrS+f4Nu6+Ql6ndDgG7+SKoHUdrGob7zeYAJ/8oYjB3nt7lCK6pzsbmlyVy3s7oGKrriU+3pm1MRqCnyDRXQluAGB/hldJxl7M9Nftri5bS642w039xoEBXN2t5YF193DtQ9LkUm0G+suaNLCfb6ycEzXcJfZoEx1dGPGknTT3q4fgiL24SZjR77nYwxFpS2rQu/grrGJnIX2DJOzTEOle3uZkKZNeTrXUAiuby/60bYg9NMdPU/P8rcnbbySG/rNzUbq9nDc3V2JKDs9zofJ7Bl2d9ffLlDSlgYODqO6SJsqA3cRLY8q6O7i0YQWx5AXvcgVp39NZ6EwC9puvidOGyr++5Az1aKGLwkTMiuMbY6eEmnVGViEFyye0/XTeVyhkLt4l5wWu7DNteXC9y9JzxfXnWcHtUWswF6+rjiCjHWkedPmTAnlouO5Alctujb8wGMNpkZRgavmXd8WXyv7NrDljR5LHIeiHIHnp7umrYBeQewK7ASeFuwu5Ahc/j7UR2bnLw4vD1gz6jwCjjviVF8xcBvF1NTLZhqxazP/f+nXH357//Xjt7/8+OmXX37/+uXzzx8e///Hz18+/PTl8x+//nD90+8f3//2Yf3tvw==);lineShape=1;strokeColor=default;" vertex="1" parent="1">
          <mxGeometry x="67.47542371607108" y="860.253021181593" width="96.96634686778316" height="470.59552414311315" as="geometry" />
        </mxCell>
        <mxCell id="nPFasPomJ1m4DBFbavHR-216" value="Feed" style="text;strokeColor=none;align=center;fillColor=none;html=1;verticalAlign=middle;whiteSpace=wrap;rounded=0;" vertex="1" parent="1">
          <mxGeometry x="85.95999999999992" y="909.54" width="60" height="30" as="geometry" />
        </mxCell>
        <mxCell id="nPFasPomJ1m4DBFbavHR-217" value="Mentors" style="text;strokeColor=#d6b656;align=center;fillColor=#fff2cc;html=1;verticalAlign=middle;whiteSpace=wrap;rounded=0;" vertex="1" parent="1">
          <mxGeometry x="85.95999999999992" y="956.13" width="60" height="30" as="geometry" />
        </mxCell>
        <mxCell id="nPFasPomJ1m4DBFbavHR-218" value="Events" style="text;strokeColor=none;align=center;fillColor=none;html=1;verticalAlign=middle;whiteSpace=wrap;rounded=0;" vertex="1" parent="1">
          <mxGeometry x="85.95999999999992" y="996.13" width="60" height="30" as="geometry" />
        </mxCell>
        <mxCell id="nPFasPomJ1m4DBFbavHR-219" value="Groups" style="text;strokeColor=none;align=center;fillColor=none;html=1;verticalAlign=middle;whiteSpace=wrap;rounded=0;" vertex="1" parent="1">
          <mxGeometry x="85.95999999999992" y="1036.13" width="60" height="30" as="geometry" />
        </mxCell>
        <mxCell id="nPFasPomJ1m4DBFbavHR-220" value="Check" style="text;strokeColor=none;align=center;fillColor=none;html=1;verticalAlign=middle;whiteSpace=wrap;rounded=0;" vertex="1" parent="1">
          <mxGeometry x="80.70999999999992" y="1076.13" width="60" height="30" as="geometry" />
        </mxCell>
        <mxCell id="nPFasPomJ1m4DBFbavHR-242" value="&lt;h1 style=&quot;margin-top: 0px;&quot;&gt;Current You don&#39;t Have Any Mentors&lt;/h1&gt;&lt;p&gt;&lt;br&gt;&lt;/p&gt;" style="text;html=1;whiteSpace=wrap;overflow=hidden;rounded=0;" vertex="1" parent="1">
          <mxGeometry x="215" y="956.13" width="420" height="183.87" as="geometry" />
        </mxCell>
        <mxCell id="nPFasPomJ1m4DBFbavHR-243" value="" style="shape=stencil(pZrZbhw3EEW/Rq8E9+XZcf7DgOVIiCIZspzl71OM0KPpy5nTEvKm5ZJNFmu5tdykTz/uvny/vYn+x8vz0++3f91/fbm7Sb/cxHj/eHf7fP9iP92kzzfp07en59vfnp9+Pn59/f37l4mcP/3x9Ofc4e/Xdd75PBdF/8/rH4pL/r8//PoKf7h/JHh2pSE87eDJdd7dCzwmhNcdPLqC8BB28OA6nj0VgWfcvVWBp3AdftrsDV5AMtG15ez1OjzrYaJLcPbmahA47R6Cm//bvVPKgC8rvg7ADxebqk0E4SQXquAbXDfWTU/e8AXeKg6XVS8D7J+CG1HkSfdNWTUzot6n6nwXbWgF8M11VWVShzRc2p/fu9FB27zLXfB032yfr4LPcP4cndfzRLBcw5cs+ADva/hRBO/BGLOpy1A86Gc2c1T5RDpPdSMInrxssevp+wY4f8kuDcE3OE/pKh/TT/AP1cxjCL4SvrqeBD/gPHW4qv6B5N+Cnt/wIM+WVP6GB31uRfUtofxbVXs8wLctUL0T3zdxn50f7LeZvx2Kp3AxXNufx94L3rf7zd2cxReIF4Zf9I1oQzf1zXoe0J9u11v0AfxPz7o/85Ju8UXln0B/eld7MQdD5xmuLPEU3nec3MdZfITzjMU/m0GA/A0/NJ4OOP+IGl8SxpcRV31GfFp55AB9M3zZ47PzoD+G713xJE/zt03wEfyV4YU/ZORXo6g+ZJfBv426uY8zFk/yrK7q/pXet23u9Q3fSH+ay7o/xSPDj6HnIfl35W95CyDX8K0onuQ/NP4eyMf4pJ6/gf80fNckjfxz8EsiVbYvXvuAGHB1mS8sAaAjYTJ8EYLiWUMXBhoSq8RQlQumVCTTvnCO4CrdoasTjRWjqi2I4uUC0lZTa6GJRtwD21nc+0VjpokNv+0vnQdLqeoXjDsSlTNXNETzOsYyW1D3qlFNSuzs8v4djG6iNy1bIn5aUDbturZA0rHaMT80fy18zhgkJRwjqy4ZZWv0cFkzYuMkGPKzVl6MNFBOPGPa/g6Dk+KRtCRhynIQNevei5n+Us1jLGmWmVTiuL8u6OT30hb3TgsGu5mkDzd988Ed8rKAjySxYTpnMqCklaS5gL8gbOQsXlxd4ZdP8EPEsixg7YthERP5GTOw9eXIgi4tQAuyIy2XRpZ0SgrOF7AyxeWpqQ4y32ERayZPZrqxiPVowaLfB0cqH7205EZzwUdt9ODhLhg1q0ZZxHqgfGUR64F659Ue+A5aoXmHjX7UDcTlqQ8cjfCZKSa+RFj0+8BZXjBqVqYPL1Cj7kdPHbMuwFxs9ZUHRDRtMe20oBzphmpf2uqvVwPv/h0mF+B3kHSgHyRAWV3f5DNkEFnv0LgkZwsk4zBOhmK1HFoWFGbfZavpn/HKwFRXeWVwgb8grs+4MT5c0TqksW/0lVXdRj61Lq4tkC/MDIJTb0nVLUfB2sfSe0iB6XpXm555FilfVwI0e2mc+knKMXNFuvTJR5xlowcFAb/ku1QBtAXilxpWMCd+f6LKid9QV1zYTy4VkIIdiOkUdf9CAloqOIVZQ9MKTmHrb9oxKsx7qvL6slGta3iv8olsybkqnuxyySjNO9H58/b591WIxqkA/FaBGge8UCtonff3ikd9i65KYYIraFHJy0EFM2hZInNBLCibyuxHvaZ5Gd3orODreagjODsEel/yurMDoR0L7NDY84hbx457T2pf3IGYHRrFUyCbHaAFzx0m6UBz8cLwQeVD+jA7XkuHBvY3vHCDhKMps2OnHRq676WOIMnzUscR8Rc6moi/0DEle7zUkaX7zo6vdoAK6OfsKOt5KMJPqrd0WOE8syOuHU2q4M+Ouw7kUAexXJhVqnDfXFUfAk88LB1NjylyXnJqv40MXcP7ZYKBJkjiVns/2x/4w5wI0QkMmoDJQWmrx45gXvw5U/s5MaPyJ36SmtpL2BT2Mr6qv4pYJJ8TRapvDfRnTiypfQWw9zkRpf6B3mtOXGmHjPjJOtGVMXlbJ8Yy8uFQlG9nnGgJQZMS7ii3dQCAKt2nWv4bHKWjZCmi8INWDSNyGa+hLqIqeG0pRawteG0CHI14VvXjPEBalNbyeGrVrIKHX4smLZTULVMX3IT1WknllGthPGXTimvwqHBwyMvwazl41biklwz/2GGCJk98VYmdR4L0H3umJfNjJfh/89UKtx/eRrm/3T88vE6Cn/9fR7/tT69j4+nzvw==);lineShape=1;strokeColor=default;" vertex="1" parent="1">
          <mxGeometry x="929.9980042463359" y="811.9535645861574" width="743.5984014321932" height="512.9835460859748" as="geometry" />
        </mxCell>
        <mxCell id="nPFasPomJ1m4DBFbavHR-244" value="" style="shape=stencil(lZzZkhy3EUW/Zl4rsBS2Z0r+D0aIMidMkQyKtqW/N+CJ6qnKiz7ofpslbxUqAeRyM4GX+OHPzx+/f3oJ7s+fP77969N/X3/7+fkl/vISwuvXz59+vP7sP73EX1/ih9+//fj0zx/f/v31t7ffv38ckuOnP779Zzzhrzdc3EIboOD+fvuD26L7/x/+8Sb+5fXrVTxdxP3mPIl7fxEP2w5PD1u9DmbfaibxvF/E65YbiUcz9n3zgeTddTRdN7Xcl/fHf2/yddsjyed6kY958yifrp+799mA8fttN/Jt8zvJx+t4UtwyqN9bfaZ8zN89+et4Ut3aM/LZbeGZ8eS+OFE/sVj5xOO56ieHLcDi7/LNyjecX/v8uJX6zPh3XP9dPl/l05Z5/EafeUs8HiNfVs8381u3wvox8m1rzzy/eNzvKt/nl7/XyMdjRu7Jx6v8fsz4g/Lp+MuD48lb4P1u5MtKP8nKt6fG3+eX12e4yrdtZ3l3Nf/usNh35I2r6/KJ58s836/m6+rsaljYZ6OfLr/Q51X/Na7slXGP3d89pZ99K2hvgxl/WsyXv9qfmrcdn++DlW84X+5qP2tZPN+Z+aq4v9wxOyd5sucq33A87rBmJ/mWSN7EG80dHv+efLXyjeWv66F5nN/+NGflyb+rfI8OYf2Lfro8rQeV7/sFos+Z/GL81/XZ9m3n8Yj8YvzX/dX6/sL1oPK8X4oTeXh+2IpZbz1ehfnarT3s8qSf7q3k+QXke3Rtnl82B+P37gjHTwB08GHzxQJoh/m+wLIFoIvZjwjpBMj0DWny0YWcTLZZzADQR2eblnRApTCrHFHwGUBauo34DCAt1ck8NNjJHZCeBbRdhkS+rE3eQIC+O32SIdFuc6KlujnKhr1oqR7vvAcwCWUHUMDSAVZLFdmCke43AdCQ4uQbaMcF3XEVnVQHGK/cAQm8eDdjyQkANlBIm5NvoD3dAVkAlAh1SxlladAWDd0wRgHQWiri++vhveaAKmptzAw5G212ALEf0W81WkAAqxGjLL6G8XtMNqBtHLDFHo9mAcDii/UI2E+ABFra3bHlzwCYh12SlhUgiENZAOKzgB4VhacASXZcwy2654OnehRQJhNHoeHeLJczZhrekNxh3M+LD4xAChIJtGM5zgG7Te/GjoPlnbL46YpOMdWDLjwbMlje2R1829kYU8TnDzt39kCw43KUaKZizp93y0APt0tD2o/Y5UHHnpNNywcAJq4DbBxdkBfJeRI6UGLeAdUJAMxMLofWzwBYGh1Q9KMJMAvWF4DJPNA3tEl0T2FocQcb8uBMFz8JdMkpliCGbAHYZQNxZFzSJFin6L6UyTxkWK2lzXIgysrcVuUbAqh1sGTyBooEahSHUjDWqLutWvXMkpiPqkaASxs1iX/IGGDVLEHiEmDZngWgTNJ1Wku1Shi6ALSDjngQ0Jw4lHxwUvcA1szwRzfhYAcA3G6Tot0AwFpqGi9lNMaDpMoCoDdo3Joxfxg0lag1g5lpu2WeO4CY5EFUBQHQkJKtNQ0ADSlJJJAxImu3WumD7NJ4ntJRYATet/wZQN9QJH/ImHAM0yuLL5Baq6W4B4C0VI8E5gQgEuE9kTyRgmT5RpQqLGIhtTYJ4RLSFBPAzvuhiZZuUeCjgMgbqIn1jlhqngACZoqTIXmMWydv8NhrMdJtM9PusFT3lkaTegNa73qY3hOg8PIuUqEg+nQAdgugEuwAZAvwi/1wtXyjKMNvaAKoi6WRLYAY3bHjpE5EadnIPJ99g/FA62/I7iktNcnY3coI2EDXHV91FyCLLzHAMrpuZcisbV3shybBiUMKeGxRecPKCAQBkOWr4uMcpmUD4CyA8oex42Qe0O3OAESEtFtXwQngGFB1eS/UKjsODZlM3ANbVN/A1vtpgA3hHHd3ua5FqeeSR5kjsAI5QbBfnCGWrrc1C1g4dwtYhg+W+14GKBawDIEUkNk2adJBvUAT65fZEDQhpTJ2Q0x8dWG1VjGXBcnBd97tBKDy1Pi3DAkjfE0JuCA8STqWb7BpTTmohbuJk3wDhkCamt3U8GjyV46ZuZteypACOcYoq7VgaWc0csiQEBBkTy++IUzYROLvB5Ggb6AhKVWxmGklQxZvULqlYMw0IXQWAKWMeEgTUmoBUNqrYE49IdZYraNpTUhacnP11pT+OEAJTjICg+CUiSMypAap+hX0cYOk1ZICcd9tQpaTay9FvqFipjWobO0VgG8YZLkUj8gYT+h4Lv1PCH8u/U9KChXnYVK0qBiVTcoilSs1ddaNQNWmYnO5AaB6VhEGqGIf36Q8VXE/jAKYNHmQERglNmnyIEM2iniiJTL3o0yoAHrDPimm0mrN0ba/jsVHb/DCbXAbySjXJgugskjSPqyGezrdgs4TgMz9KGrLG4hoHmXzYAHEric3Kf0Tt7E38Q987GAvwpMxGaLtC6csZ46QDoklQpowlgjp81gigtXUEiHdKkuENMSsENpzs0TM2nqoMX80DskiJCp1tCbJEiGWfTQ/ySKkOu9or5I3ZFiEo4FLW2IIUKSdnNt6RhOaaImimtEQrN1S9IZkDwSu3pA2JwDsHtyF82tYdQqa2nBPWYiT5ifq+h4tkwqgZsAw6ceicw/h2c674Ccmc9GJaj1RO2ZmDnBi9hf9iU7qKRWby/2tg+zByMxXab+vRyR1D6Ctq9gsPuvHovjVl0lITau1AzR+RcpPO+8qkgle07OKa8lrZwU3KftdeixvYcscECdt0J4+OkzmgRzKOHgg6Rl2VkgUVI7yxzySE//DJ5+0H6YgOxjkpEg5pnH+wZJC5MVJmiRlbXKHbtLPQ5GucsZ8MmYmzydvTH1gebJH5fnkkPWcq5NJKs8nn2wmvTpZpfJ8csu62dXJMJXnk2fWfaxOttmu6tXJOXuykCN6Jycj2Yc7235ZK3YtOdv/X9kmOmtDK7NuzkYIlfu0nOUNu/zi+UafCe2hs3Tv6LfD8RgXUHekYZz1kzUuvtfYwxqxxVGO8tSwGI/h9KtHds5ZVrUuT3YmK08n5+SkZlmeZDUnyznYcjZjXpwsl5O1i5PrKs/VMJXnk/cqzyf7VZ5vDlB5vplA5fnmA5Ff3Kwg87W4uUHl+WYI4WgWN0/IYYvFzRayPhc3Z8jJ2sXNHCrPN3/oePhmEf1evrlE9c83ozhbLVvcvCLyy5tdTHyV2L94G2+Mm2nolKztGNz5bJm3ac+4WYdvFrmOZ9zcg/LGf72fXb4jb/zFsNh4k4fZvz0JoqNAQeIN7CYItoi9ozcKBwF7Gz3TC5ZdYN8VrC9yi9TFHOp3eGY92J3rFldEGUPlMC+Kdt1zo1K0Ya1bXLZlVv2C5rRZ7OrpXp6OYw9WkayZYBVJeo+H+zuJ89Pt2GnNPH8nGov3H96vX/v99cuXt9vbzv+317X1P71d9RZ//R8=);lineShape=1;strokeColor=default;" vertex="1" parent="1">
          <mxGeometry x="909.6257545034306" y="841.6888151660426" width="722.732774751126" height="529.7004716220159" as="geometry" />
        </mxCell>
        <mxCell id="nPFasPomJ1m4DBFbavHR-245" value="" style="shape=stencil(pZ3ZsuzEEUW/5r4qVINqeMb2fxABmBvGQACe/t5ZvqhP9946S5zw2+VQu6WaMneO+lS++vX7r3/+9lPef/3tl5/+9u2/Pn/z2/efyp8+5fz5x++//eXzb/GvT+XPn8pX3/30y7d//eWnf/z4zZf//vnrNXL96+8//XP9wr+/4PattQXK+3++/CEdW0v/+8tfvoz/4fOPND7+MudHxret9w+ML/ljv1/GNg4cP1/G17Idlcb//raP8XOrmcb//vRz/HFsveH48TK+xRvC+6St5NfxZWvwPulcvcf4vs39/fF5q+llfN+3DOuft1Fex+etwP6WLdfX8XXbYb7lXI3H+GM74PfrVvbX8X0rcB7qNmS+Y9thfY4tHzYe7kvsftL3mbBfbUtVx/++wu+Mb0XHt/H++L7t2cbDfPtWh44/4DyPLWddnwLvM87b8Rg/twTrE7fv9T6OfUvwPmnfSlLAgAOdku7wiDtHT8g65QDQFqRyzvAJMOEMBWC8XuKRt51eqW6HP4Fe6dj2ooBOq3TouQgAyd0AjG5zIEHXtmqTPuiV2jaLAegJcbarAuguBECE9QjlQcs6bJUO3od57usDEH+hSc9tvALmjmcpFM7xukqTT+vSOK9zmPmUsdeA+N9VAZ1eqZwS+glAOj+Edn0V8jOuFAEO1WoBKCBVQ6yWqYBKgL7loYCDVinUhgPgAgVANO0CgCYMUSlC4OaVSmh6WyWadABmMwCcpRIywjaOrmiQP6Ffk29cKXpFA0B8toTksyeQuC9NGdjNaS39FFt/8AItBiuvlHBZa6hAmfSOorKmc1+fxEyFVar5XPUHYCDNe2PVD0A/L+01wIjbaCg1AjCzAjIBDhP3B6qsAMxdAcR9qh2NABQgM7WfXPMBqMgOq6usise7ji3ZE/CVht64UXnjpin2er7kNSM2E2a9ElHorDZMAHa4D0fd+mEA2OkjuIYD4AIdQ6VGMIEB9+GYKgQWdSBen+xolNM0uAZkW9Z8zuoaEC8gzDghM27V7nTaEs3hUC0a3DvDxrWmpzWsAdJxAegCGCj5wvrNrxsX9gwR3QCMrAA6Gm2czOIBaHgfAjCqAuh4t6k7HTbxoCfMrQ8FkBOjGxMIK528BgFQM7Si2d3TeSEfgHJyg/cAooECQDu9/BCHvlKmJ5RzTZ4ApB+6+w7Y17MOggDaKamuASZm4vBVmvRU91b8RALZGjdYd3qcHrVrQD7dTc8GO7zSEoxFAY0AVV1oITUqvVKsuki+hObxaKZF08mVrwFdyfoSlfSErm6rBSA3SGyTeR3oLAXAn0COwGB4yQB0lgLQTD8QMw7S6auUQS4FwJ05JMimeUsDQGImiLPYon3ixgVA7/REHbe4vF0gOkvLGBa51E8z6hpQLlyCiSZd1PBbgoee8BCMT4Isg9oNQBO5VNELNw89GiGeGz3hUK7RM5LEAExzROMqPdbkAUinE+w9gBDd0HokZmZXX3eoemL3ARBncbCPBFJjji2/TjooF5n4ARDpHaSODL851VfZ2EcWTxCjaXFlWtZxMrwHoKB5PM3FvGwWWiVz24XtmOjw9dMT8wAkvg/9dGU+APvJZN87S8KXykSzbDa9QGXc3Thh96Xx4QuG9zrpwmwmACK9S9hdJL2rzaHyKpXT3H4A2IO1ROUwAEtv0XEB6PSErLx1eZxYoVSbww1AV6mghTKNeweAKFwARKEUdtsFE9B9yKiygpyIMA5AZkCWJzB1GN1eiW9ccL75utN53pFEsR/yQIWyvEmvG5c5tDYshpIbWlmLGRcF4ByqsvtcMToQZF3OUuYrGoD91eDI5WTj79kPYoCvEDI94RGeeAKQeTzMc5JvztIjwv0AsMHR7T6kiVKjDzXAU9wQUChvlPAJQPqhm4WSOrpPgxIKdUjMKru5T1M7yfV75rGEdlcMEIRxf2jlJ0ClVSoqvQOAcygqvdPD/f+eE0F8AgvAbgqddD1l4XuAlAxAG7erQknsm2lT5dIC3PiXbJVICLgHKwAZTuvykdnRIDuudXX23xyNABx2NMhR3poGUtOBFnsAJC4a9+HGGyr2w7pAtKxVXfGpsUc3m5jp7Iqfau2GICMT/2hqT4dsJTFzZF3WUCh0geo8OeSzjiNAV+oQapfmUA+1H0Kxk7ivD9L5RB1oWauTxB2TWuquCR4BIPM4rAUl6zsKgQAoM+a8vWJm2WJkFAweNmmOWnpcNABEHUpXH1kASLaWpvb0CkBTuLmpxR4Aij8Ucz2uZaVXOk6r7QlAGihMJMnXWLyVAEUDFouGUkC7qJM5N0zZKubyWqySljXpTmc2y9YiGucjp1oxT+KSS5zrIBb7ymOFJ2TzhgaAuEYA8odk60rweBUzwfmItwZAwmsh7jGrZSgzThx/yGZlhVIkwy93NQeWYidA06ORHlGV9wC7LGvBw5ctCJkKOtVyVQ20MvxoWav6yBK7i7I5aFeWIj0hW6INZyNZFu9AGysnJXADzfWc1IgbZ1rp9XjLuuYk2HW1uo6H+S7zK+v7UObfVF01cP0v8vg4769bTgR6KJfpJRk/SCXj2jbJmEOJnezSTJS/i77recNs0Go2yY4HIq6gGPWJMwOS3YAANMo3NSWVODEyueXG2Q3rkhsAT9Fu9DyhO3NJhaoAmvS0RUooTN3QyxwtNjuPk/2HvX/Ge9OVBqeMxSLdzMiCtkI7T/EfVAVNHUMxnuSiscFUkLZY7mFcJFIc1VQZp4sVMyAP9BeWC7McVaXGem7M+CtvCq1POp1kz0Y8XXrNEYnxXGzUzQdGudC7/X7HnN1d0yxDEA+Y766JPYkTDnc1VxYXwt9XSpoxL243HyEXW5gjdaCdvGsad0fLZteQcMN8HuMcx83aSNZJO+tA3hkuFkrHkGJSXjzQrkxq6b6Vsbw3Xi5uxlzYh2Z7EiS09JattS4iVuVNO/jknnDN2FFRWMgrsY27K39bjIsv4qHvT0Hs3ahARc1+dRFZ8GQRDDsSyt35OXl8d5X7HT03u1bmNLRGds1UOtBg++DwpDq04rubiqho25kG4rRGU3D8MqY/K6o3q5OpqE1M+1dM761K1irajFUFYEV3yGF1upwJrJrkg8SuYIjQeCPTOqOlhRPndCEL3m0j1QW3yTg7r7uZBBVDCG5yVC6JM8nNOSBuNFXMm19WmdRT40FIWctIDvYEZNVUfEmW4arLn28sY8mEYMbrwQle/8MoMmZ2L8/Bq+bZ0U+69GSR8ZTt656PnffLPCs7kjr33HCofnmG9P3JInDP0205pRQgJCwHX54zMeHQ4s7JTOI7T6F6YvA8L0EpfnDMqs/FgjboSVrSSeUD5Ru+KZ23+3tX2VlkPOUYZMuja+zpbMpGOItumQFGpbhutJknleY73JAgZrfsDPX8UQRs/Zww38SuXStGSRkzVZYr0Rz4dCRW7NSMlZvo0fEha6W4edMw9h8A7ZrC21YefrIHYCKRLEUnvQQdrZL1CMgJTcAVWBRARhO2HOoNWPyV5nAoK3ujpNeApkXUuXLYr1mywIGn1UPImfNIPEi9mCwBLAy+JNKHAu2rBwhtnIXyb2TYShawlArijCsdoX9kDivhoSiAUltqsdTHym1dDi1RyI/yxWuAJd9nLiCoFkNaLiHqBGOtb0IIEFc7rDx4eRU4PUfdIpwa36y2JO1YwtYs1smBp3ZYrSKnklmSVP9gFlbHZGlP8xr8/pZHNtDh7olqA4uhPROOi4E81W5g9yfP5RtccWjJgtwdy7MRB67/SndU+kLm3MqnLB8Zb7kpTHe6tYvisopulU+T83KrRZC4XVc/NDFlBQkpgbRp+6EAUMrFKgYTCySjidC7em6W85GeMCxLMKNLbuVHm9zC1HkPfBTct5FU4SwSSZHIZKEebrcyspZxBwALMrPmXaWKPuZRLDpUMSVv9SSwnNabegG5DamjuBuHBZQ4cWEcRi129o019ZDmhHGWVbdhqWAUk1ylt1kBlDyyOplIZlfheuOhPrXlsqMCA2v+EADaOK/QyRzY8xqgRbWpFsuqjDL3yZnpgszf1LlqXi4X7M+spv+NufDW9Ol5lajaq9jRqHj4pnkvVv8/WqWqki/zFV2FsWIuNEyCDUCTVeqYgzGbzaGjzp3NiPBAX/0ql7QUVaz77io1Chu3c6hhGAY1BcZXnau4XTvaSAEQ8zmMIEqNnFNDbPVAT08AxGdwcCPCOdW1GwYE6Ye075rf2W5qDafOOggmbrVJss4ZOl4/3Ll3j+/cTcPPdTasqQaWP1qVdRAciomsOm4hrTu24plNqcC4LS2XTIjVLoLL473XIend6c2vMu+0xfdGZgVRNVd4ERxuUyBqdHAsdlrv2MHlXkujJAXgfTA33Whclm3u+dHuqnu1JVLn422pFKMj+V6t32TSA4ux5m421sCc7YvGIAM37qL1CLtLL5qbcALwap9iAKpLWizRlpUCZ6sFzKEAcjU60x1cVrHa2Fi7Ocre9HLgcTCXttKQUbH94rDy+HFTDpzUnh5ci756AVlLVTpLqyWSSI2MJkq3Vp5vJch/0MZfJcg3jaOsUQ7ph24dUhfgpvmVvRLW3rofJ6G7dDXw8g5HtEq7tUnOGLltVmu4VNZNGarpOHK9t6HOw7dmVe9696wnMaVqrGZwMumC4d4AaPfpgmy9NWtdyN0fWtNA0ajIQ9thcolTKpordo4GtKL2QEg+ir8187WEbM0ESOoJGYMbPE61mgJAMcTD2vMuq586Qlo7ocE1GRdNKrnX4VGsI+REpXhY86vlJrhp5SmdalnMrMY71tqWJJ+3I51sP3jD0wCQo2+1VE32SgTwfr7c+ny1hU0KwGU9tLvo5CSdWpXzTXYar+a5DqCOwUWDjquxDa2SMYFZ8MZV63szmTrU3VzxBwqBYib7cnVwI2adQ0ezbLV6Lgogp0CxNmdz4H24aFc9uOW2N8Tm4vWLltvjrgu41hoO9LVctA0faCleNCYfH219PlAIXDRXH2geX7RvH8iMLxrE30zaW9AP7orvTe4Hp+54G/3JuWimdif77VbuWVcArtKunRPmxMSala4n4bL9JoHQyqzjESQr0zDB1Li2wryVN03rV+2CzPoRfXoPIEldq9HlTf2nNXzHtF5niRNvUDKdtWx8/iCIfkGko/V68Y2Szl8y8q+gdK5i9e+sdDQgLr7kwq7yi2/FDIz5Ja+QYnk/LV4+kC8N9W0u2ooVnZKuODjg1420Mo921ykfo2ZGIruWvOM+e5bcb8oJLP6ZG05IOYyj85GzwukYj8lfqs3XJwmwZESNvcrfnjDDKiMZzsojbzwZ+aLBO37JSNPtO1dQJvv8FFfgWKZb5wroXfOZGreP3619akGv4a7rE3ZlxvHiu11BJR7/+j5hCfDn9eQ8F04I8vF3n+/TXn13nwfU8XefH9SOJ3efN9QUCy7JsjYyiePuu/VH4VSa3QpB+dsxXijIn+UyfZS4i/huecx346tlM/H7aGeUu/lqptHdekoGwO1+ify5PQ//5+c0bXz84+3bnd99/uGHL5/+fP7/+q3P+NOX74SWP/8X);lineShape=1;strokeColor=default;" vertex="1" parent="1">
          <mxGeometry x="1009.9992140786773" y="858.6521965991979" width="658.2608483341348" height="53.475718932793484" as="geometry" />
        </mxCell>
        <mxCell id="nPFasPomJ1m4DBFbavHR-246" value="Home" style="text;strokeColor=none;align=center;fillColor=none;html=1;verticalAlign=middle;whiteSpace=wrap;rounded=0;" vertex="1" parent="1">
          <mxGeometry x="1039.18" y="866.88" width="60" height="30" as="geometry" />
        </mxCell>
        <mxCell id="nPFasPomJ1m4DBFbavHR-247" value="Connect" style="text;strokeColor=none;align=center;fillColor=none;html=1;verticalAlign=middle;whiteSpace=wrap;rounded=0;" vertex="1" parent="1">
          <mxGeometry x="1139.18" y="870.39" width="60" height="30" as="geometry" />
        </mxCell>
        <mxCell id="nPFasPomJ1m4DBFbavHR-248" value="Messages" style="text;strokeColor=none;align=center;fillColor=none;html=1;verticalAlign=middle;whiteSpace=wrap;rounded=0;" vertex="1" parent="1">
          <mxGeometry x="1229.18" y="877.77" width="60" height="31.77" as="geometry" />
        </mxCell>
        <mxCell id="nPFasPomJ1m4DBFbavHR-249" value="Careers" style="text;strokeColor=none;align=center;fillColor=none;html=1;verticalAlign=middle;whiteSpace=wrap;rounded=0;" vertex="1" parent="1">
          <mxGeometry x="1329.18" y="877.77" width="60" height="31.77" as="geometry" />
        </mxCell>
        <mxCell id="nPFasPomJ1m4DBFbavHR-250" value="" style="shape=stencil(lVfLbhsxDPyavRJ6ktI5Tf8jQJzaqBsHjvv6+1I1NjUpe9Lc1rsaU+QMh9KS7163Dy+bJYXX0/HwdfNz93jaLvnTktLuebs57k76tOT7Jd89HY6bL8fD9+fH8++Xh7FyPH07/Bj/8OuMS5ESD1QKv89vhFr+++Lzef1+93y5PtD4drE+durhNkA/l2oASQEFABqlZgC5U0gAIFTsloqQIAATFwOoTAKSjpWk2yIFajhCiAbQIkWBgGJpaB1G6CRufaYKaEiZcrAp1JWYq4CciG0ExkSXRDFbQKHWAaATW95YqwqUUZuvaq3EIAILZUd0ogSSFqHkIkSojK60sgcwqFLP1JvfUgA5dKZqq1Tz+uY6oFHpvkoCytr7WsQ3QKMagVhDoGDFxJEqDpFt1qoNmIRQt0QolxFFqGvLX8g1ogiZgjO+ALXR9XPwgALK1NSXit9SBVS3SkF80q0BgDa1aznc1C15q+RElT8CqB36zLwl9VZGVZqSroUiSnoqq3ZQAd46Ezd6FDE9SUMB0Iwn8emWOoowyVuT7shnpgaqAjvuWo8G3HKTDXCG2piNhnkl/6aVuaZWo8FEOLMcMwhRrXZsDxujR98BTC6AAFJWe/9P29COrFMEAYDRL+6wUaFt6BzNVn3yNlmvAwJ1C2gFGn7WIWiJ055CxqRHsmx5uNDj9RAUrG2ouhrgYVK32kICRQpeetIgz5GCTWAoD7CWPMs6dBPM1031UqGy2eebGvQw9gajx2oBzSzErtOIwXamk5jaFxojXj95tbNbh1t3ZcAXgOj9OsBaRiVL3PqE1KwDqbv1SMt6XWjZrUdnl9Et/v/RsXZQacnSeYauL933e4IHcw0vdsIWKuhuEf2AVbWCen74zvnuen34d8F92u335/vx5Xd/IdZX58t0vv8D);lineShape=1;strokeColor=default;" vertex="1" parent="1">
          <mxGeometry x="1538.412402341034" y="838.9725813945829" width="31.69687399135546" height="29.750607786689216" as="geometry" />
        </mxCell>
        <mxCell id="nPFasPomJ1m4DBFbavHR-251" value="Account" style="rounded=1;fillColor=#253858;strokeColor=none;html=1;fontColor=#ffffff;align=left;fontSize=12;spacingLeft=10;sketch=0;hachureGap=4;pointerEvents=0;fontFamily=Architects Daughter;fontSource=https%3A%2F%2Ffonts.googleapis.com%2Fcss%3Ffamily%3DArchitects%2BDaughter;" vertex="1" parent="1">
          <mxGeometry x="1475.54" y="869.4100000000001" width="100" height="33" as="geometry" />
        </mxCell>
        <mxCell id="nPFasPomJ1m4DBFbavHR-252" value="" style="shape=triangle;direction=south;fillColor=#ffffff;strokeColor=none;html=1;sketch=1;hachureGap=4;pointerEvents=0;fontFamily=Architects Daughter;fontSource=https%3A%2F%2Ffonts.googleapis.com%2Fcss%3Ffamily%3DArchitects%2BDaughter;fontSize=20;" vertex="1" parent="nPFasPomJ1m4DBFbavHR-251">
          <mxGeometry x="1" y="0.5" width="12" height="6" relative="1" as="geometry">
            <mxPoint x="-20" y="-3" as="offset" />
          </mxGeometry>
        </mxCell>
        <mxCell id="nPFasPomJ1m4DBFbavHR-253" value="" style="shape=stencil(pZ3XzhxHDoWfRreNyuF6w3sIsGwJ9lqGLG94+y2u0P3PHPZ8JWPvFMjp6i4Ww2God/kvv398/9uHdyn8/vXL558//OvTD18/vst/fZfSp18/fvjy6ev607v8t3f5Lz9+/vLhpy+f//j1h29//+29Udqf/vH5n/YL//7Gl8IRknGl8J9v/7L+IfzvH/7+jf6XT78+0pejV6GPCejn0YfQp/6aPtcj6O+XAfTzqLr+Vl7Tl3zkKfR9An07ahT6Cd+nhmOUJ/p4BPj9mo+q9KkCfTtyEPoM36eOYzahr/k1fYtHq0oP62nlaLqeCvLQ+tEdPXyfHo7chb4RfTrmVHr4Pr0eQ9fTGtCPo7j1wPcZ8Yju90E+x5IH3a8C+zXaER19BPqh53fRgzzPdH6+N/oO65nufKVzA1/Rzyj0A/Z3liM9/34+CuzXou9d6Cf9ftX1l1MBvKIXebgU2Ev6IfQk/0b/vF8N9ecd/dis/5m+834t+md9NdBeGH0U+k77VU91dtLPI5O8VacflgHjF85NGVCi/RPi+RMvXzkowwQdNNcZljOWTql9xSBCGvO5LS8Z5B3KEekrLSkbyjBJrtsR8jPDeitakle8jZ9Qz226GPr5E9/LsGQPbNNiEF0U53m6X27c8+Exb4i/UnIMg2TpOu0XA9vLG4bEB2gxPDtQS0NGZhCLYyqV3yGISSjH2DxBbELlnfZLWlpvsw/P4r3U3uaIippceinyksSO56WXWJZ6VAbU3E09nRzPn3jJ8LzTObEia2rb8rLurFv1pa9w4ZV1Fu83Nzbn2S1pHIlkKakyXhHDJIbLP7scgKXuSZGFU9QuhnRU2ukVAT1/pXIFAfc+2zxDlIuhnAbgFYPYuFJRLy0GOaKLgfTSciPH8z6US+BfMjwLX+lHggNkDEUZBn2lpdyFYaD2Xgz1WQmUib7buETt8t2u6Pn7GTBaGKeoXQwrfqCdXu8QlIHi2cXQnvehJjxxxjCUgTxoEz5ZUkYlYOItSyqntn3J8HziasXzsE6ciPcKo+mzLgYRjcWArkM4LdrF0LdaYyoDBj7hVFsXw8DIcCky8QQMCyAbF90+THZOomI7LeyWNIQhcrQU1cYthk6fNWm43ZZ402dNR3o2u21j49Kpti6GcnofL5dUlQH3IZ2O88VQWfgWw/NOt8ZBXFKfbzGgUUxHkyewMl52Wp9wWYyXuIF8pYlKwDyB533o65TzkkpWhkafNZ9m/GKIp7C8YhC9tBjwAC3H+Xmn+8Z1KBo/9MxqprjwviC+aHjJ88b1inZ6+Xxi4/o28BM73TtvnPO9FwNiCP2EpC+GwWe6q5pZDIgSDQ3A+0SzawzPsjQC+nyLIQhuEk+b9OodBIgdGxCh6xEd+QwQXsYPzzs9yhkwv2IQz3jUHa4hRnG00795uSR5Qj+xlFcvLTDFYsAoy8mS+Wh0gLqGlstdSbwk0UvmrrB4S9BkzsRGNOQJDKIvBlECFkbxVxJPYKm2zT6Id/8GBL88osJQjkYMQxNJc6PIhtppg6joPCxBkK/UGCseakVt72kfnCv9pnhuGWK4sncPHIiqTbemyd+1Korw8NCX3kbRR5AvMIYTv8mhX3Y7MfFUL+XrGUh/L4uT3GciVbbMbHAvTUZrOSNi5YyBMnVNHSBjgH1YnrCYlLfNv2WoXm9MTF6tQK9NxwDvsMLh5Blg40rX9MliILNY0ulrPzLAVzJ4yG0cMnQNOebEFGguJyD7yABnNMc7BnhpAzP9oaasflWzuNkHA5XdV6KdjvPmPBCQHZd4uyNKAUFM6gtsGFxlgtHDvrUbSUpwGlxEMwemovON6sbSihtrEuE4p1PIHs0VrD9p5s5UPwmR+pOWOSORcFq+IDgWNfM4OYflT03GY+ZtQjpVwQt6ydptnKSgWQ2DQ3A96sBEBBour/HBLSRnIajeGmxw3PoXPcmnA93ewMrve9/lmlNeybk6i56ivOBc/4beV3COfEW8ICgkPgoq3ajyttwYsq7RhZDpVPOv6KvSk3y68zIihhXxxI0f6KnUKarjaCEwyJvTJ2NTmqbO8orJSR6SJkmstoesqtqL5RQSWHPhiA/ACOXnsoZEVptEpWm6v4bUkO/k8K/Czpnqt8553qouQb/c8lf08n0S+q+u0mbRkz6sDlyLeB5d5rwzOO3pAyIDTcOgNtHeuVqBNvF8ufU01rdNEzutYwjeFehrHVOvXfd3RSxYWqf6sNXNeuS8L/qEvy/6vBWUt+6+f0bcvp9v90CPpXhnCuqiTwjzu9xgi+ivDvXfWkB5cHBGnQhnDC26qINLOdU+rviS/MnucqEdz6OLw2rD/G9T/VArwhJNM9iLnvz/dpfWBPlsLjObEX9ylcmLntcj/nNNXNqr9qJG9Iebyltlf9XVpNWA9rS5koOJ0FZXbGHRU67E6ZMy0F509ZdKx+/T1V4X9lf97zf0D/37Nqw46q4io3K9hCtbKRt9pevhROlQf75wbqu78o2E8WxX+S+RITyV58Ly3F3RTUDgv6s/kCf6h13jr0VPeQKn3/LY6B9JvmSur2xaLWlIGK/nWZ5z2+gfXX9F++v0w6KnIo924rEX/U4/6+9nLGPsis9Y9RzqkyLfP23OuwDGiz7gekT+c8SiYZeXypxm6qf1f6An/GfoeUmMXw/Vh1aCifpE7KN5RIgHauVs56IIjX9NA1A2R/HDxP5wdK0vFtJQwB9OzPaBgRDBGLXY3rodQKUbg5Tycs44RlXSiyERSLBkWBgSYt3RwZqbDp7FIOfYWrQIF8laIpQCltcsBulJi5xdWgyjKQNBHdFhBXFgLLAYBLyIXMBjDEUZNl9JG4u4UyUWTUdF1tfRAR7rXwiwWf8tFs0WSZ/VNcPEDcRWtewvJvRZrClCRIOdkOhbPQJanXj1+zwwkBto++o6buj8uLrzgbCxLUhwVOwvMHrB8RAmXPQiqQ1rd6LHPbCD0uglrtntmNaOcpqiaTnHRgc35ydgGBRd+VTmGgIX9yV0A6PLQyeEYd4MwCWg6IZYO4oINGatzV7o71NYn1wVK7tR1jAsdp/leWpHbcJa/KXJq/t9kh9X+BV38i/2L2KtRGzq5zCM6uUhsrVsviOY6geji4sDy//QPAL31cSpOGHAkmNrUA9/ht7lTXg9lqfQjnh635Q0+c/f086j0tN+JecOsTy8qY/vkzc7froekmd7Pe0gpvPiJx5sz6PrUMbzfqGa36dPvP1lfRVdZxnrw9jUyWd9+2fpTR5UX1EnUMoO98BOOqOXDi707+3nBIfBuj9vXwrad6vTUPtOsIHRq39CMLY/vw3TdEav/hLBTnYeJQ+IkYDlPSUvzO+bFMeebE+Tq+vg/Y0aRy8Hl/JQvnAkBgzsU9RKhMiZcO8SRG6qSq7YL+at0nKhDCUHlhUbLlgitC26cqgV3FCngDHIZ90EfK5taxdSTm2J3QWtUwsWLSxmBp3mMTlYco2S9qHJ2/LWI6BoWI+6uKObsgpXLZu4DzgOraG0I05L6jpDxlQwiYY3gdzRZz6dLKliT0h0yTiLyjhqleys5as47BMzlbhhNbrpAemqin/FII5d4oS94RmyJEZAoxvWtIFYY3G2NmBOcWkhCaY3ILExCCq+cUeybtwG5jaGpAxYV+XgupzRoHgE0TIBXJoqIe8m1bAYpPYmV+ynMIakDJQsia4rMXM1aHR9j5buYYbs8kN4RJPqpTwYiXKRxWJAuC67l55Y0hezxmqW02MUVM7DYqDmZ0MknzeuRBYNh+SWzXkoKkslsV4qWsVv8wn4CZqZL5x3KAoJWiqZZKnoTpfKaYTsktucDL/5rJxtNwYRDU7n3zyB6wXsHSQw4YKEG4aJFWkxKzRlJRX0Dm4a2KZmIyadprEpCjEGV0WCXykp/LUpa4lJ4+fKvrfppaoM6GC5ytJaEBKNSUPoxYAYntPetWJvQXSN9DZIkM50dNVabWtQZOM6RyhJMxtWP8YMEtLUieMGoput2AK7oUUDv7bBLovGDy3tcljinDSedxeLohlt43tn/UqtsOvgVGUrDEBlVcatsivtNF/jFnFjcAMNEONyVrR1Fm8H4rSx00v6DoNzukmVcZucd3HeTOdJdm9D4h4YCHkzBqm4jjvNJzFQ55aVGNU+dB6/Ed240Z6xqcQXFPTMXmVwX6lgmVsMN3X1tKSpdU2LHudwaWNbbxgBDe1r6wzwDS2I6AN3ebjxCgPrcof6xH3u6gDd6APagK5jNwaPxO2af9n0rfSbPhqq03b5ppE2deBizAdXHfh8OtdVNnXPB8tbUxds0/fUNELf9FU1Bd02fVsuP77pC3P5jk3fWXPys2mkVo9z0zfn6rQnw8lNHdQZN3XpOt4hbfpQZASYTevBOlUZLzTzpm9C+1gz+gdd/TobQoN1htIXZoMaWJ/4OQ2or3S/Gk+pcn243HfghrzNvquJk8aPyQrafMDkGOgJrjR3bmpupp6xOVDn3vR/D84a+w7zgWU3Nz3sAydV33TJD9TrN334nC0wwMszwEsXl7WZA1tq3oCWRwZ6QlcvczFgE13QiGUOBKhuZjqw43szNWIg3nQzl4KXdDP5ggf73szWGDxF3k/vGKxT/XyQwZMew43wUZrXZpx4BlKTbrDvZPho3uklnDXsQs3JnuN0qX/TSzyoTkC2tzFXrxj0pRsPeUvuiG6m/jgcfDdXyOHgu8lFbmTtbjZSUo98N30pacZjN9/JoXK7CVJJi7p2M6pcuLybgpU0Kbmbs5VVe79NW30prc9faWwGjrsxRLtpZFlDwY1r/jbB4tH35ymJEpAPBnfsTAtD3p3p6cKpzZKkfmPwFSMzazbZBgcwg1a4TD7TvvV+8nxYV8O6mR0w74YH4Gd1Cb3eeSx71HaX3jB1O4ObVln5aomgY0aXmaTA8C3uesBqEOmYDm/i1O3w2EjEWMxGizkIjIIfi01lSYHt9FDd2sNuqrSo+zYwfh7OM27cqLQY5KU3416NoSoDOes3DBVj7pslccZjOFRoA2sP1z5ug32pvdXNkmxcyDgc0NC4stV7ZIuB4ril3AVabHwb1mLQceATU7fDhWWVvfvhemoqA+dvM0IvBm6TG+5Gqcrg/2IQQKPy4JTh7hyydBv73gLNV56iO7KbXZD5Hdzwr92U9aypqt0c96xlALtJ8f4dNrPosxtIwAOWh0/Sc/p5uGnGhUeaj3J3JwDtdFHnxCJsPkBaPcxT2Ea9aesnn29UVyFSMZ42NeOKJciVXgx61cLGsLspjCXvrloQ37twXshuf5Cdjpz0mIqc5MlXwISbaiOc4+6aZXPjfl83lj0XTNL7aNcK0djRlVYGu9GFHV2tvY88Wt7ftxJ2rrTuQzhTrS+f4Nu6+Ql6ndDgG7+SKoHUdrGob7zeYAJ/8oYjB3nt7lCK6pzsbmlyVy3s7oGKrriU+3pm1MRqCnyDRXQluAGB/hldJxl7M9Nftri5bS642w039xoEBXN2t5YF193DtQ9LkUm0G+suaNLCfb6ycEzXcJfZoEx1dGPGknTT3q4fgiL24SZjR77nYwxFpS2rQu/grrGJnIX2DJOzTEOle3uZkKZNeTrXUAiuby/60bYg9NMdPU/P8rcnbbySG/rNzUbq9nDc3V2JKDs9zofJ7Bl2d9ffLlDSlgYODqO6SJsqA3cRLY8q6O7i0YQWx5AXvcgVp39NZ6EwC9puvidOGyr++5Az1aKGLwkTMiuMbY6eEmnVGViEFyye0/XTeVyhkLt4l5wWu7DNteXC9y9JzxfXnWcHtUWswF6+rjiCjHWkedPmTAnlouO5Alctujb8wGMNpkZRgavmXd8WXyv7NrDljR5LHIeiHIHnp7umrYBeQewK7ASeFuwu5Ahc/j7UR2bnLw4vD1gz6jwCjjviVF8xcBvF1NTLZhqxazP/f+nXH357//Xjt7/8+OmXX37/+uXzzx8e///Hz18+/PTl8x+//nD90+8f3//2Yf3tvw==);lineShape=1;strokeColor=default;" vertex="1" parent="1">
          <mxGeometry x="916.765423716071" y="860.253021181593" width="96.96634686778316" height="470.59552414311315" as="geometry" />
        </mxCell>
        <mxCell id="nPFasPomJ1m4DBFbavHR-254" value="Feed" style="text;strokeColor=#d6b656;align=center;fillColor=#fff2cc;html=1;verticalAlign=middle;whiteSpace=wrap;rounded=0;" vertex="1" parent="1">
          <mxGeometry x="935.2499999999999" y="909.54" width="60" height="30" as="geometry" />
        </mxCell>
        <mxCell id="nPFasPomJ1m4DBFbavHR-255" value="Mentors" style="text;align=center;html=1;verticalAlign=middle;whiteSpace=wrap;rounded=0;" vertex="1" parent="1">
          <mxGeometry x="935.2499999999999" y="956.13" width="60" height="30" as="geometry" />
        </mxCell>
        <mxCell id="nPFasPomJ1m4DBFbavHR-256" value="Events" style="text;strokeColor=none;align=center;fillColor=none;html=1;verticalAlign=middle;whiteSpace=wrap;rounded=0;" vertex="1" parent="1">
          <mxGeometry x="935.2499999999999" y="996.13" width="60" height="30" as="geometry" />
        </mxCell>
        <mxCell id="nPFasPomJ1m4DBFbavHR-257" value="Groups" style="text;strokeColor=none;align=center;fillColor=none;html=1;verticalAlign=middle;whiteSpace=wrap;rounded=0;" vertex="1" parent="1">
          <mxGeometry x="935.2499999999999" y="1036.13" width="60" height="30" as="geometry" />
        </mxCell>
        <mxCell id="nPFasPomJ1m4DBFbavHR-258" value="Check" style="text;strokeColor=none;align=center;fillColor=none;html=1;verticalAlign=middle;whiteSpace=wrap;rounded=0;" vertex="1" parent="1">
          <mxGeometry x="929.9999999999999" y="1076.13" width="60" height="30" as="geometry" />
        </mxCell>
        <mxCell id="nPFasPomJ1m4DBFbavHR-260" value="" style="shape=stencil(pZrZbhw3EEW/Rq8E9+XZcf7DgOVIiCIZspzl71OM0KPpy5nTEvKm5ZJNFmu5tdykTz/uvny/vYn+x8vz0++3f91/fbm7Sb/cxHj/eHf7fP9iP92kzzfp07en59vfnp9+Pn59/f37l4mcP/3x9Ofc4e/Xdd75PBdF/8/rH4pL/r8//PoKf7h/JHh2pSE87eDJdd7dCzwmhNcdPLqC8BB28OA6nj0VgWfcvVWBp3AdftrsDV5AMtG15ez1OjzrYaJLcPbmahA47R6Cm//bvVPKgC8rvg7ADxebqk0E4SQXquAbXDfWTU/e8AXeKg6XVS8D7J+CG1HkSfdNWTUzot6n6nwXbWgF8M11VWVShzRc2p/fu9FB27zLXfB032yfr4LPcP4cndfzRLBcw5cs+ADva/hRBO/BGLOpy1A86Gc2c1T5RDpPdSMInrxssevp+wY4f8kuDcE3OE/pKh/TT/AP1cxjCL4SvrqeBD/gPHW4qv6B5N+Cnt/wIM+WVP6GB31uRfUtofxbVXs8wLctUL0T3zdxn50f7LeZvx2Kp3AxXNufx94L3rf7zd2cxReIF4Zf9I1oQzf1zXoe0J9u11v0AfxPz7o/85Ju8UXln0B/eld7MQdD5xmuLPEU3nec3MdZfITzjMU/m0GA/A0/NJ4OOP+IGl8SxpcRV31GfFp55AB9M3zZ47PzoD+G713xJE/zt03wEfyV4YU/ZORXo6g+ZJfBv426uY8zFk/yrK7q/pXet23u9Q3fSH+ay7o/xSPDj6HnIfl35W95CyDX8K0onuQ/NP4eyMf4pJ6/gf80fNckjfxz8EsiVbYvXvuAGHB1mS8sAaAjYTJ8EYLiWUMXBhoSq8RQlQumVCTTvnCO4CrdoasTjRWjqi2I4uUC0lZTa6GJRtwD21nc+0VjpokNv+0vnQdLqeoXjDsSlTNXNETzOsYyW1D3qlFNSuzs8v4djG6iNy1bIn5aUDbturZA0rHaMT80fy18zhgkJRwjqy4ZZWv0cFkzYuMkGPKzVl6MNFBOPGPa/g6Dk+KRtCRhynIQNevei5n+Us1jLGmWmVTiuL8u6OT30hb3TgsGu5mkDzd988Ed8rKAjySxYTpnMqCklaS5gL8gbOQsXlxd4ZdP8EPEsixg7YthERP5GTOw9eXIgi4tQAuyIy2XRpZ0SgrOF7AyxeWpqQ4y32ERayZPZrqxiPVowaLfB0cqH7205EZzwUdt9ODhLhg1q0ZZxHqgfGUR64F659Ue+A5aoXmHjX7UDcTlqQ8cjfCZKSa+RFj0+8BZXjBqVqYPL1Cj7kdPHbMuwFxs9ZUHRDRtMe20oBzphmpf2uqvVwPv/h0mF+B3kHSgHyRAWV3f5DNkEFnv0LgkZwsk4zBOhmK1HFoWFGbfZavpn/HKwFRXeWVwgb8grs+4MT5c0TqksW/0lVXdRj61Lq4tkC/MDIJTb0nVLUfB2sfSe0iB6XpXm555FilfVwI0e2mc+knKMXNFuvTJR5xlowcFAb/ku1QBtAXilxpWMCd+f6LKid9QV1zYTy4VkIIdiOkUdf9CAloqOIVZQ9MKTmHrb9oxKsx7qvL6slGta3iv8olsybkqnuxyySjNO9H58/b591WIxqkA/FaBGge8UCtonff3ikd9i65KYYIraFHJy0EFM2hZInNBLCibyuxHvaZ5Gd3orODreagjODsEel/yurMDoR0L7NDY84hbx457T2pf3IGYHRrFUyCbHaAFzx0m6UBz8cLwQeVD+jA7XkuHBvY3vHCDhKMps2OnHRq676WOIMnzUscR8Rc6moi/0DEle7zUkaX7zo6vdoAK6OfsKOt5KMJPqrd0WOE8syOuHU2q4M+Ouw7kUAexXJhVqnDfXFUfAk88LB1NjylyXnJqv40MXcP7ZYKBJkjiVns/2x/4w5wI0QkMmoDJQWmrx45gXvw5U/s5MaPyJ36SmtpL2BT2Mr6qv4pYJJ8TRapvDfRnTiypfQWw9zkRpf6B3mtOXGmHjPjJOtGVMXlbJ8Yy8uFQlG9nnGgJQZMS7ii3dQCAKt2nWv4bHKWjZCmi8INWDSNyGa+hLqIqeG0pRawteG0CHI14VvXjPEBalNbyeGrVrIKHX4smLZTULVMX3IT1WknllGthPGXTimvwqHBwyMvwazl41biklwz/2GGCJk98VYmdR4L0H3umJfNjJfh/89UKtx/eRrm/3T88vE6Cn/9fR7/tT69j4+nzvw==);lineShape=1;strokeColor=default;" vertex="1" parent="1">
          <mxGeometry x="53.468004246335916" y="1515.8235645861573" width="743.5984014321932" height="512.9835460859748" as="geometry" />
        </mxCell>
        <mxCell id="nPFasPomJ1m4DBFbavHR-261" value="&lt;b&gt;&lt;font style=&quot;font-size: 23px;&quot;&gt;Page 3&lt;/font&gt;&lt;/b&gt;" style="text;strokeColor=none;align=center;fillColor=none;html=1;verticalAlign=middle;whiteSpace=wrap;rounded=0;" vertex="1" parent="1">
          <mxGeometry x="297.8399999999998" y="1470" width="180" height="50" as="geometry" />
        </mxCell>
        <mxCell id="nPFasPomJ1m4DBFbavHR-262" value="" style="shape=stencil(lZzZkhy3EUW/Zl4rsBS2Z0r+D0aIMidMkQyKtqW/N+CJ6qnKiz7ofpslbxUqAeRyM4GX+OHPzx+/f3oJ7s+fP77969N/X3/7+fkl/vISwuvXz59+vP7sP73EX1/ih9+//fj0zx/f/v31t7ffv38ckuOnP779Zzzhrzdc3EIboOD+fvuD26L7/x/+8Sb+5fXrVTxdxP3mPIl7fxEP2w5PD1u9DmbfaibxvF/E65YbiUcz9n3zgeTddTRdN7Xcl/fHf2/yddsjyed6kY958yifrp+799mA8fttN/Jt8zvJx+t4UtwyqN9bfaZ8zN89+et4Ut3aM/LZbeGZ8eS+OFE/sVj5xOO56ieHLcDi7/LNyjecX/v8uJX6zPh3XP9dPl/l05Z5/EafeUs8HiNfVs8381u3wvox8m1rzzy/eNzvKt/nl7/XyMdjRu7Jx6v8fsz4g/Lp+MuD48lb4P1u5MtKP8nKt6fG3+eX12e4yrdtZ3l3Nf/usNh35I2r6/KJ58s836/m6+rsaljYZ6OfLr/Q51X/Na7slXGP3d89pZ99K2hvgxl/WsyXv9qfmrcdn++DlW84X+5qP2tZPN+Z+aq4v9wxOyd5sucq33A87rBmJ/mWSN7EG80dHv+efLXyjeWv66F5nN/+NGflyb+rfI8OYf2Lfro8rQeV7/sFos+Z/GL81/XZ9m3n8Yj8YvzX/dX6/sL1oPK8X4oTeXh+2IpZbz1ehfnarT3s8qSf7q3k+QXke3Rtnl82B+P37gjHTwB08GHzxQJoh/m+wLIFoIvZjwjpBMj0DWny0YWcTLZZzADQR2eblnRApTCrHFHwGUBauo34DCAt1ck8NNjJHZCeBbRdhkS+rE3eQIC+O32SIdFuc6KlujnKhr1oqR7vvAcwCWUHUMDSAVZLFdmCke43AdCQ4uQbaMcF3XEVnVQHGK/cAQm8eDdjyQkANlBIm5NvoD3dAVkAlAh1SxlladAWDd0wRgHQWiri++vhveaAKmptzAw5G212ALEf0W81WkAAqxGjLL6G8XtMNqBtHLDFHo9mAcDii/UI2E+ABFra3bHlzwCYh12SlhUgiENZAOKzgB4VhacASXZcwy2654OnehRQJhNHoeHeLJczZhrekNxh3M+LD4xAChIJtGM5zgG7Te/GjoPlnbL46YpOMdWDLjwbMlje2R1829kYU8TnDzt39kCw43KUaKZizp93y0APt0tD2o/Y5UHHnpNNywcAJq4DbBxdkBfJeRI6UGLeAdUJAMxMLofWzwBYGh1Q9KMJMAvWF4DJPNA3tEl0T2FocQcb8uBMFz8JdMkpliCGbAHYZQNxZFzSJFin6L6UyTxkWK2lzXIgysrcVuUbAqh1sGTyBooEahSHUjDWqLutWvXMkpiPqkaASxs1iX/IGGDVLEHiEmDZngWgTNJ1Wku1Shi6ALSDjngQ0Jw4lHxwUvcA1szwRzfhYAcA3G6Tot0AwFpqGi9lNMaDpMoCoDdo3Joxfxg0lag1g5lpu2WeO4CY5EFUBQHQkJKtNQ0ADSlJJJAxImu3WumD7NJ4ntJRYATet/wZQN9QJH/ImHAM0yuLL5Baq6W4B4C0VI8E5gQgEuE9kTyRgmT5RpQqLGIhtTYJ4RLSFBPAzvuhiZZuUeCjgMgbqIn1jlhqngACZoqTIXmMWydv8NhrMdJtM9PusFT3lkaTegNa73qY3hOg8PIuUqEg+nQAdgugEuwAZAvwi/1wtXyjKMNvaAKoi6WRLYAY3bHjpE5EadnIPJ99g/FA62/I7iktNcnY3coI2EDXHV91FyCLLzHAMrpuZcisbV3shybBiUMKeGxRecPKCAQBkOWr4uMcpmUD4CyA8oex42Qe0O3OAESEtFtXwQngGFB1eS/UKjsODZlM3ANbVN/A1vtpgA3hHHd3ua5FqeeSR5kjsAI5QbBfnCGWrrc1C1g4dwtYhg+W+14GKBawDIEUkNk2adJBvUAT65fZEDQhpTJ2Q0x8dWG1VjGXBcnBd97tBKDy1Pi3DAkjfE0JuCA8STqWb7BpTTmohbuJk3wDhkCamt3U8GjyV46ZuZteypACOcYoq7VgaWc0csiQEBBkTy++IUzYROLvB5Ggb6AhKVWxmGklQxZvULqlYMw0IXQWAKWMeEgTUmoBUNqrYE49IdZYraNpTUhacnP11pT+OEAJTjICg+CUiSMypAap+hX0cYOk1ZICcd9tQpaTay9FvqFipjWobO0VgG8YZLkUj8gYT+h4Lv1PCH8u/U9KChXnYVK0qBiVTcoilSs1ddaNQNWmYnO5AaB6VhEGqGIf36Q8VXE/jAKYNHmQERglNmnyIEM2iniiJTL3o0yoAHrDPimm0mrN0ba/jsVHb/DCbXAbySjXJgugskjSPqyGezrdgs4TgMz9KGrLG4hoHmXzYAHEric3Kf0Tt7E38Q987GAvwpMxGaLtC6csZ46QDoklQpowlgjp81gigtXUEiHdKkuENMSsENpzs0TM2nqoMX80DskiJCp1tCbJEiGWfTQ/ySKkOu9or5I3ZFiEo4FLW2IIUKSdnNt6RhOaaImimtEQrN1S9IZkDwSu3pA2JwDsHtyF82tYdQqa2nBPWYiT5ifq+h4tkwqgZsAw6ceicw/h2c674Ccmc9GJaj1RO2ZmDnBi9hf9iU7qKRWby/2tg+zByMxXab+vRyR1D6Ctq9gsPuvHovjVl0lITau1AzR+RcpPO+8qkgle07OKa8lrZwU3KftdeixvYcscECdt0J4+OkzmgRzKOHgg6Rl2VkgUVI7yxzySE//DJ5+0H6YgOxjkpEg5pnH+wZJC5MVJmiRlbXKHbtLPQ5GucsZ8MmYmzydvTH1gebJH5fnkkPWcq5NJKs8nn2wmvTpZpfJ8csu62dXJMJXnk2fWfaxOttmu6tXJOXuykCN6Jycj2Yc7235ZK3YtOdv/X9kmOmtDK7NuzkYIlfu0nOUNu/zi+UafCe2hs3Tv6LfD8RgXUHekYZz1kzUuvtfYwxqxxVGO8tSwGI/h9KtHds5ZVrUuT3YmK08n5+SkZlmeZDUnyznYcjZjXpwsl5O1i5PrKs/VMJXnk/cqzyf7VZ5vDlB5vplA5fnmA5Ff3Kwg87W4uUHl+WYI4WgWN0/IYYvFzRayPhc3Z8jJ2sXNHCrPN3/oePhmEf1evrlE9c83ozhbLVvcvCLyy5tdTHyV2L94G2+Mm2nolKztGNz5bJm3ac+4WYdvFrmOZ9zcg/LGf72fXb4jb/zFsNh4k4fZvz0JoqNAQeIN7CYItoi9ozcKBwF7Gz3TC5ZdYN8VrC9yi9TFHOp3eGY92J3rFldEGUPlMC+Kdt1zo1K0Ya1bXLZlVv2C5rRZ7OrpXp6OYw9WkayZYBVJeo+H+zuJ89Pt2GnNPH8nGov3H96vX/v99cuXt9vbzv+317X1P71d9RZ//R8=);lineShape=1;strokeColor=default;" vertex="1" parent="1">
          <mxGeometry x="33.09575450343062" y="1545.5588151660427" width="722.732774751126" height="529.7004716220159" as="geometry" />
        </mxCell>
        <mxCell id="nPFasPomJ1m4DBFbavHR-263" value="" style="shape=stencil(pZ3ZsuzEEUW/5r4qVINqeMb2fxABmBvGQACe/t5ZvqhP9946S5zw2+VQu6WaMneO+lS++vX7r3/+9lPef/3tl5/+9u2/Pn/z2/efyp8+5fz5x++//eXzb/GvT+XPn8pX3/30y7d//eWnf/z4zZf//vnrNXL96+8//XP9wr+/4PattQXK+3++/CEdW0v/+8tfvoz/4fOPND7+MudHxret9w+ML/ljv1/GNg4cP1/G17Idlcb//raP8XOrmcb//vRz/HFsveH48TK+xRvC+6St5NfxZWvwPulcvcf4vs39/fF5q+llfN+3DOuft1Fex+etwP6WLdfX8XXbYb7lXI3H+GM74PfrVvbX8X0rcB7qNmS+Y9thfY4tHzYe7kvsftL3mbBfbUtVx/++wu+Mb0XHt/H++L7t2cbDfPtWh44/4DyPLWddnwLvM87b8Rg/twTrE7fv9T6OfUvwPmnfSlLAgAOdku7wiDtHT8g65QDQFqRyzvAJMOEMBWC8XuKRt51eqW6HP4Fe6dj2ooBOq3TouQgAyd0AjG5zIEHXtmqTPuiV2jaLAegJcbarAuguBECE9QjlQcs6bJUO3od57usDEH+hSc9tvALmjmcpFM7xukqTT+vSOK9zmPmUsdeA+N9VAZ1eqZwS+glAOj+Edn0V8jOuFAEO1WoBKCBVQ6yWqYBKgL7loYCDVinUhgPgAgVANO0CgCYMUSlC4OaVSmh6WyWadABmMwCcpRIywjaOrmiQP6Ffk29cKXpFA0B8toTksyeQuC9NGdjNaS39FFt/8AItBiuvlHBZa6hAmfSOorKmc1+fxEyFVar5XPUHYCDNe2PVD0A/L+01wIjbaCg1AjCzAjIBDhP3B6qsAMxdAcR9qh2NABQgM7WfXPMBqMgOq6usise7ji3ZE/CVht64UXnjpin2er7kNSM2E2a9ElHorDZMAHa4D0fd+mEA2OkjuIYD4AIdQ6VGMIEB9+GYKgQWdSBen+xolNM0uAZkW9Z8zuoaEC8gzDghM27V7nTaEs3hUC0a3DvDxrWmpzWsAdJxAegCGCj5wvrNrxsX9gwR3QCMrAA6Gm2czOIBaHgfAjCqAuh4t6k7HTbxoCfMrQ8FkBOjGxMIK528BgFQM7Si2d3TeSEfgHJyg/cAooECQDu9/BCHvlKmJ5RzTZ4ApB+6+w7Y17MOggDaKamuASZm4vBVmvRU91b8RALZGjdYd3qcHrVrQD7dTc8GO7zSEoxFAY0AVV1oITUqvVKsuki+hObxaKZF08mVrwFdyfoSlfSErm6rBSA3SGyTeR3oLAXAn0COwGB4yQB0lgLQTD8QMw7S6auUQS4FwJ05JMimeUsDQGImiLPYon3ixgVA7/REHbe4vF0gOkvLGBa51E8z6hpQLlyCiSZd1PBbgoee8BCMT4Isg9oNQBO5VNELNw89GiGeGz3hUK7RM5LEAExzROMqPdbkAUinE+w9gBDd0HokZmZXX3eoemL3ARBncbCPBFJjji2/TjooF5n4ARDpHaSODL851VfZ2EcWTxCjaXFlWtZxMrwHoKB5PM3FvGwWWiVz24XtmOjw9dMT8wAkvg/9dGU+APvJZN87S8KXykSzbDa9QGXc3Thh96Xx4QuG9zrpwmwmACK9S9hdJL2rzaHyKpXT3H4A2IO1ROUwAEtv0XEB6PSErLx1eZxYoVSbww1AV6mghTKNeweAKFwARKEUdtsFE9B9yKiygpyIMA5AZkCWJzB1GN1eiW9ccL75utN53pFEsR/yQIWyvEmvG5c5tDYshpIbWlmLGRcF4ByqsvtcMToQZF3OUuYrGoD91eDI5WTj79kPYoCvEDI94RGeeAKQeTzMc5JvztIjwv0AsMHR7T6kiVKjDzXAU9wQUChvlPAJQPqhm4WSOrpPgxIKdUjMKru5T1M7yfV75rGEdlcMEIRxf2jlJ0ClVSoqvQOAcygqvdPD/f+eE0F8AgvAbgqddD1l4XuAlAxAG7erQknsm2lT5dIC3PiXbJVICLgHKwAZTuvykdnRIDuudXX23xyNABx2NMhR3poGUtOBFnsAJC4a9+HGGyr2w7pAtKxVXfGpsUc3m5jp7Iqfau2GICMT/2hqT4dsJTFzZF3WUCh0geo8OeSzjiNAV+oQapfmUA+1H0Kxk7ivD9L5RB1oWauTxB2TWuquCR4BIPM4rAUl6zsKgQAoM+a8vWJm2WJkFAweNmmOWnpcNABEHUpXH1kASLaWpvb0CkBTuLmpxR4Aij8Ucz2uZaVXOk6r7QlAGihMJMnXWLyVAEUDFouGUkC7qJM5N0zZKubyWqySljXpTmc2y9YiGucjp1oxT+KSS5zrIBb7ymOFJ2TzhgaAuEYA8odk60rweBUzwfmItwZAwmsh7jGrZSgzThx/yGZlhVIkwy93NQeWYidA06ORHlGV9wC7LGvBw5ctCJkKOtVyVQ20MvxoWav6yBK7i7I5aFeWIj0hW6INZyNZFu9AGysnJXADzfWc1IgbZ1rp9XjLuuYk2HW1uo6H+S7zK+v7UObfVF01cP0v8vg4769bTgR6KJfpJRk/SCXj2jbJmEOJnezSTJS/i77recNs0Go2yY4HIq6gGPWJMwOS3YAANMo3NSWVODEyueXG2Q3rkhsAT9Fu9DyhO3NJhaoAmvS0RUooTN3QyxwtNjuPk/2HvX/Ge9OVBqeMxSLdzMiCtkI7T/EfVAVNHUMxnuSiscFUkLZY7mFcJFIc1VQZp4sVMyAP9BeWC7McVaXGem7M+CtvCq1POp1kz0Y8XXrNEYnxXGzUzQdGudC7/X7HnN1d0yxDEA+Y766JPYkTDnc1VxYXwt9XSpoxL243HyEXW5gjdaCdvGsad0fLZteQcMN8HuMcx83aSNZJO+tA3hkuFkrHkGJSXjzQrkxq6b6Vsbw3Xi5uxlzYh2Z7EiS09JattS4iVuVNO/jknnDN2FFRWMgrsY27K39bjIsv4qHvT0Hs3ahARc1+dRFZ8GQRDDsSyt35OXl8d5X7HT03u1bmNLRGds1UOtBg++DwpDq04rubiqho25kG4rRGU3D8MqY/K6o3q5OpqE1M+1dM761K1irajFUFYEV3yGF1upwJrJrkg8SuYIjQeCPTOqOlhRPndCEL3m0j1QW3yTg7r7uZBBVDCG5yVC6JM8nNOSBuNFXMm19WmdRT40FIWctIDvYEZNVUfEmW4arLn28sY8mEYMbrwQle/8MoMmZ2L8/Bq+bZ0U+69GSR8ZTt656PnffLPCs7kjr33HCofnmG9P3JInDP0205pRQgJCwHX54zMeHQ4s7JTOI7T6F6YvA8L0EpfnDMqs/FgjboSVrSSeUD5Ru+KZ23+3tX2VlkPOUYZMuja+zpbMpGOItumQFGpbhutJknleY73JAgZrfsDPX8UQRs/Zww38SuXStGSRkzVZYr0Rz4dCRW7NSMlZvo0fEha6W4edMw9h8A7ZrC21YefrIHYCKRLEUnvQQdrZL1CMgJTcAVWBRARhO2HOoNWPyV5nAoK3ujpNeApkXUuXLYr1mywIGn1UPImfNIPEi9mCwBLAy+JNKHAu2rBwhtnIXyb2TYShawlArijCsdoX9kDivhoSiAUltqsdTHym1dDi1RyI/yxWuAJd9nLiCoFkNaLiHqBGOtb0IIEFc7rDx4eRU4PUfdIpwa36y2JO1YwtYs1smBp3ZYrSKnklmSVP9gFlbHZGlP8xr8/pZHNtDh7olqA4uhPROOi4E81W5g9yfP5RtccWjJgtwdy7MRB67/SndU+kLm3MqnLB8Zb7kpTHe6tYvisopulU+T83KrRZC4XVc/NDFlBQkpgbRp+6EAUMrFKgYTCySjidC7em6W85GeMCxLMKNLbuVHm9zC1HkPfBTct5FU4SwSSZHIZKEebrcyspZxBwALMrPmXaWKPuZRLDpUMSVv9SSwnNabegG5DamjuBuHBZQ4cWEcRi129o019ZDmhHGWVbdhqWAUk1ylt1kBlDyyOplIZlfheuOhPrXlsqMCA2v+EADaOK/QyRzY8xqgRbWpFsuqjDL3yZnpgszf1LlqXi4X7M+spv+NufDW9Ol5lajaq9jRqHj4pnkvVv8/WqWqki/zFV2FsWIuNEyCDUCTVeqYgzGbzaGjzp3NiPBAX/0ql7QUVaz77io1Chu3c6hhGAY1BcZXnau4XTvaSAEQ8zmMIEqNnFNDbPVAT08AxGdwcCPCOdW1GwYE6Ye075rf2W5qDafOOggmbrVJss4ZOl4/3Ll3j+/cTcPPdTasqQaWP1qVdRAciomsOm4hrTu24plNqcC4LS2XTIjVLoLL473XIend6c2vMu+0xfdGZgVRNVd4ERxuUyBqdHAsdlrv2MHlXkujJAXgfTA33Whclm3u+dHuqnu1JVLn422pFKMj+V6t32TSA4ux5m421sCc7YvGIAM37qL1CLtLL5qbcALwap9iAKpLWizRlpUCZ6sFzKEAcjU60x1cVrHa2Fi7Ocre9HLgcTCXttKQUbH94rDy+HFTDpzUnh5ci756AVlLVTpLqyWSSI2MJkq3Vp5vJch/0MZfJcg3jaOsUQ7ph24dUhfgpvmVvRLW3rofJ6G7dDXw8g5HtEq7tUnOGLltVmu4VNZNGarpOHK9t6HOw7dmVe9696wnMaVqrGZwMumC4d4AaPfpgmy9NWtdyN0fWtNA0ajIQ9thcolTKpordo4GtKL2QEg+ir8187WEbM0ESOoJGYMbPE61mgJAMcTD2vMuq586Qlo7ocE1GRdNKrnX4VGsI+REpXhY86vlJrhp5SmdalnMrMY71tqWJJ+3I51sP3jD0wCQo2+1VE32SgTwfr7c+ny1hU0KwGU9tLvo5CSdWpXzTXYar+a5DqCOwUWDjquxDa2SMYFZ8MZV63szmTrU3VzxBwqBYib7cnVwI2adQ0ezbLV6Lgogp0CxNmdz4H24aFc9uOW2N8Tm4vWLltvjrgu41hoO9LVctA0faCleNCYfH219PlAIXDRXH2geX7RvH8iMLxrE30zaW9AP7orvTe4Hp+54G/3JuWimdif77VbuWVcArtKunRPmxMSala4n4bL9JoHQyqzjESQr0zDB1Li2wryVN03rV+2CzPoRfXoPIEldq9HlTf2nNXzHtF5niRNvUDKdtWx8/iCIfkGko/V68Y2Szl8y8q+gdK5i9e+sdDQgLr7kwq7yi2/FDIz5Ja+QYnk/LV4+kC8N9W0u2ooVnZKuODjg1420Mo921ykfo2ZGIruWvOM+e5bcb8oJLP6ZG05IOYyj85GzwukYj8lfqs3XJwmwZESNvcrfnjDDKiMZzsojbzwZ+aLBO37JSNPtO1dQJvv8FFfgWKZb5wroXfOZGreP3619akGv4a7rE3ZlxvHiu11BJR7/+j5hCfDn9eQ8F04I8vF3n+/TXn13nwfU8XefH9SOJ3efN9QUCy7JsjYyiePuu/VH4VSa3QpB+dsxXijIn+UyfZS4i/huecx346tlM/H7aGeUu/lqptHdekoGwO1+ify5PQ//5+c0bXz84+3bnd99/uGHL5/+fP7/+q3P+NOX74SWP/8X);lineShape=1;strokeColor=default;" vertex="1" parent="1">
          <mxGeometry x="133.46921407867728" y="1562.5221965991977" width="658.2608483341348" height="53.475718932793484" as="geometry" />
        </mxCell>
        <mxCell id="nPFasPomJ1m4DBFbavHR-264" value="Home" style="text;strokeColor=none;align=center;fillColor=none;html=1;verticalAlign=middle;whiteSpace=wrap;rounded=0;" vertex="1" parent="1">
          <mxGeometry x="162.64999999999998" y="1570.75" width="60" height="30" as="geometry" />
        </mxCell>
        <mxCell id="nPFasPomJ1m4DBFbavHR-265" value="Connect" style="text;strokeColor=none;align=center;fillColor=none;html=1;verticalAlign=middle;whiteSpace=wrap;rounded=0;" vertex="1" parent="1">
          <mxGeometry x="262.65" y="1574.26" width="60" height="30" as="geometry" />
        </mxCell>
        <mxCell id="nPFasPomJ1m4DBFbavHR-266" value="Messages" style="text;strokeColor=none;align=center;fillColor=none;html=1;verticalAlign=middle;whiteSpace=wrap;rounded=0;" vertex="1" parent="1">
          <mxGeometry x="352.65" y="1581.6399999999999" width="60" height="31.77" as="geometry" />
        </mxCell>
        <mxCell id="nPFasPomJ1m4DBFbavHR-267" value="Careers" style="text;strokeColor=none;align=center;fillColor=none;html=1;verticalAlign=middle;whiteSpace=wrap;rounded=0;" vertex="1" parent="1">
          <mxGeometry x="452.65" y="1581.6399999999999" width="60" height="31.77" as="geometry" />
        </mxCell>
        <mxCell id="nPFasPomJ1m4DBFbavHR-268" value="" style="shape=stencil(lVfLbhsxDPyavRJ6ktI5Tf8jQJzaqBsHjvv6+1I1NjUpe9Lc1rsaU+QMh9KS7163Dy+bJYXX0/HwdfNz93jaLvnTktLuebs57k76tOT7Jd89HY6bL8fD9+fH8++Xh7FyPH07/Bj/8OuMS5ESD1QKv89vhFr+++Lzef1+93y5PtD4drE+durhNkA/l2oASQEFABqlZgC5U0gAIFTsloqQIAATFwOoTAKSjpWk2yIFajhCiAbQIkWBgGJpaB1G6CRufaYKaEiZcrAp1JWYq4CciG0ExkSXRDFbQKHWAaATW95YqwqUUZuvaq3EIAILZUd0ogSSFqHkIkSojK60sgcwqFLP1JvfUgA5dKZqq1Tz+uY6oFHpvkoCytr7WsQ3QKMagVhDoGDFxJEqDpFt1qoNmIRQt0QolxFFqGvLX8g1ogiZgjO+ALXR9XPwgALK1NSXit9SBVS3SkF80q0BgDa1aznc1C15q+RElT8CqB36zLwl9VZGVZqSroUiSnoqq3ZQAd46Ezd6FDE9SUMB0Iwn8emWOoowyVuT7shnpgaqAjvuWo8G3HKTDXCG2piNhnkl/6aVuaZWo8FEOLMcMwhRrXZsDxujR98BTC6AAFJWe/9P29COrFMEAYDRL+6wUaFt6BzNVn3yNlmvAwJ1C2gFGn7WIWiJ055CxqRHsmx5uNDj9RAUrG2ouhrgYVK32kICRQpeetIgz5GCTWAoD7CWPMs6dBPM1031UqGy2eebGvQw9gajx2oBzSzErtOIwXamk5jaFxojXj95tbNbh1t3ZcAXgOj9OsBaRiVL3PqE1KwDqbv1SMt6XWjZrUdnl9Et/v/RsXZQacnSeYauL933e4IHcw0vdsIWKuhuEf2AVbWCen74zvnuen34d8F92u335/vx5Xd/IdZX58t0vv8D);lineShape=1;strokeColor=default;" vertex="1" parent="1">
          <mxGeometry x="661.882402341034" y="1542.8425813945828" width="31.69687399135546" height="29.750607786689216" as="geometry" />
        </mxCell>
        <mxCell id="nPFasPomJ1m4DBFbavHR-269" value="Account" style="rounded=1;fillColor=#253858;strokeColor=none;html=1;fontColor=#ffffff;align=left;fontSize=12;spacingLeft=10;sketch=0;hachureGap=4;pointerEvents=0;fontFamily=Architects Daughter;fontSource=https%3A%2F%2Ffonts.googleapis.com%2Fcss%3Ffamily%3DArchitects%2BDaughter;" vertex="1" parent="1">
          <mxGeometry x="599.0099999999999" y="1573.2800000000002" width="100" height="33" as="geometry" />
        </mxCell>
        <mxCell id="nPFasPomJ1m4DBFbavHR-270" value="" style="shape=triangle;direction=south;fillColor=#ffffff;strokeColor=none;html=1;sketch=1;hachureGap=4;pointerEvents=0;fontFamily=Architects Daughter;fontSource=https%3A%2F%2Ffonts.googleapis.com%2Fcss%3Ffamily%3DArchitects%2BDaughter;fontSize=20;" vertex="1" parent="nPFasPomJ1m4DBFbavHR-269">
          <mxGeometry x="1" y="0.5" width="12" height="6" relative="1" as="geometry">
            <mxPoint x="-20" y="-3" as="offset" />
          </mxGeometry>
        </mxCell>
        <mxCell id="nPFasPomJ1m4DBFbavHR-271" value="" style="shape=stencil(pZ3XzhxHDoWfRreNyuF6w3sIsGwJ9lqGLG94+y2u0P3PHPZ8JWPvFMjp6i4Ww2God/kvv398/9uHdyn8/vXL558//OvTD18/vst/fZfSp18/fvjy6ev607v8t3f5Lz9+/vLhpy+f//j1h29//+29Udqf/vH5n/YL//7Gl8IRknGl8J9v/7L+IfzvH/7+jf6XT78+0pejV6GPCejn0YfQp/6aPtcj6O+XAfTzqLr+Vl7Tl3zkKfR9An07ahT6Cd+nhmOUJ/p4BPj9mo+q9KkCfTtyEPoM36eOYzahr/k1fYtHq0oP62nlaLqeCvLQ+tEdPXyfHo7chb4RfTrmVHr4Pr0eQ9fTGtCPo7j1wPcZ8Yju90E+x5IH3a8C+zXaER19BPqh53fRgzzPdH6+N/oO65nufKVzA1/Rzyj0A/Z3liM9/34+CuzXou9d6Cf9ftX1l1MBvKIXebgU2Ev6IfQk/0b/vF8N9ecd/dis/5m+834t+md9NdBeGH0U+k77VU91dtLPI5O8VacflgHjF85NGVCi/RPi+RMvXzkowwQdNNcZljOWTql9xSBCGvO5LS8Z5B3KEekrLSkbyjBJrtsR8jPDeitakle8jZ9Qz226GPr5E9/LsGQPbNNiEF0U53m6X27c8+Exb4i/UnIMg2TpOu0XA9vLG4bEB2gxPDtQS0NGZhCLYyqV3yGISSjH2DxBbELlnfZLWlpvsw/P4r3U3uaIippceinyksSO56WXWJZ6VAbU3E09nRzPn3jJ8LzTObEia2rb8rLurFv1pa9w4ZV1Fu83Nzbn2S1pHIlkKakyXhHDJIbLP7scgKXuSZGFU9QuhnRU2ukVAT1/pXIFAfc+2zxDlIuhnAbgFYPYuFJRLy0GOaKLgfTSciPH8z6US+BfMjwLX+lHggNkDEUZBn2lpdyFYaD2Xgz1WQmUib7buETt8t2u6Pn7GTBaGKeoXQwrfqCdXu8QlIHi2cXQnvehJjxxxjCUgTxoEz5ZUkYlYOItSyqntn3J8HziasXzsE6ciPcKo+mzLgYRjcWArkM4LdrF0LdaYyoDBj7hVFsXw8DIcCky8QQMCyAbF90+THZOomI7LeyWNIQhcrQU1cYthk6fNWm43ZZ402dNR3o2u21j49Kpti6GcnofL5dUlQH3IZ2O88VQWfgWw/NOt8ZBXFKfbzGgUUxHkyewMl52Wp9wWYyXuIF8pYlKwDyB533o65TzkkpWhkafNZ9m/GKIp7C8YhC9tBjwAC3H+Xmn+8Z1KBo/9MxqprjwviC+aHjJ88b1inZ6+Xxi4/o28BM73TtvnPO9FwNiCP2EpC+GwWe6q5pZDIgSDQ3A+0SzawzPsjQC+nyLIQhuEk+b9OodBIgdGxCh6xEd+QwQXsYPzzs9yhkwv2IQz3jUHa4hRnG00795uSR5Qj+xlFcvLTDFYsAoy8mS+Wh0gLqGlstdSbwk0UvmrrB4S9BkzsRGNOQJDKIvBlECFkbxVxJPYKm2zT6Id/8GBL88osJQjkYMQxNJc6PIhtppg6joPCxBkK/UGCseakVt72kfnCv9pnhuGWK4sncPHIiqTbemyd+1Korw8NCX3kbRR5AvMIYTv8mhX3Y7MfFUL+XrGUh/L4uT3GciVbbMbHAvTUZrOSNi5YyBMnVNHSBjgH1YnrCYlLfNv2WoXm9MTF6tQK9NxwDvsMLh5Blg40rX9MliILNY0ulrPzLAVzJ4yG0cMnQNOebEFGguJyD7yABnNMc7BnhpAzP9oaasflWzuNkHA5XdV6KdjvPmPBCQHZd4uyNKAUFM6gtsGFxlgtHDvrUbSUpwGlxEMwemovON6sbSihtrEuE4p1PIHs0VrD9p5s5UPwmR+pOWOSORcFq+IDgWNfM4OYflT03GY+ZtQjpVwQt6ydptnKSgWQ2DQ3A96sBEBBour/HBLSRnIajeGmxw3PoXPcmnA93ewMrve9/lmlNeybk6i56ivOBc/4beV3COfEW8ICgkPgoq3ajyttwYsq7RhZDpVPOv6KvSk3y68zIihhXxxI0f6KnUKarjaCEwyJvTJ2NTmqbO8orJSR6SJkmstoesqtqL5RQSWHPhiA/ACOXnsoZEVptEpWm6v4bUkO/k8K/Czpnqt8553qouQb/c8lf08n0S+q+u0mbRkz6sDlyLeB5d5rwzOO3pAyIDTcOgNtHeuVqBNvF8ufU01rdNEzutYwjeFehrHVOvXfd3RSxYWqf6sNXNeuS8L/qEvy/6vBWUt+6+f0bcvp9v90CPpXhnCuqiTwjzu9xgi+ivDvXfWkB5cHBGnQhnDC26qINLOdU+rviS/MnucqEdz6OLw2rD/G9T/VArwhJNM9iLnvz/dpfWBPlsLjObEX9ylcmLntcj/nNNXNqr9qJG9Iebyltlf9XVpNWA9rS5koOJ0FZXbGHRU67E6ZMy0F509ZdKx+/T1V4X9lf97zf0D/37Nqw46q4io3K9hCtbKRt9pevhROlQf75wbqu78o2E8WxX+S+RITyV58Ly3F3RTUDgv6s/kCf6h13jr0VPeQKn3/LY6B9JvmSur2xaLWlIGK/nWZ5z2+gfXX9F++v0w6KnIo924rEX/U4/6+9nLGPsis9Y9RzqkyLfP23OuwDGiz7gekT+c8SiYZeXypxm6qf1f6An/GfoeUmMXw/Vh1aCifpE7KN5RIgHauVs56IIjX9NA1A2R/HDxP5wdK0vFtJQwB9OzPaBgRDBGLXY3rodQKUbg5Tycs44RlXSiyERSLBkWBgSYt3RwZqbDp7FIOfYWrQIF8laIpQCltcsBulJi5xdWgyjKQNBHdFhBXFgLLAYBLyIXMBjDEUZNl9JG4u4UyUWTUdF1tfRAR7rXwiwWf8tFs0WSZ/VNcPEDcRWtewvJvRZrClCRIOdkOhbPQJanXj1+zwwkBto++o6buj8uLrzgbCxLUhwVOwvMHrB8RAmXPQiqQ1rd6LHPbCD0uglrtntmNaOcpqiaTnHRgc35ydgGBRd+VTmGgIX9yV0A6PLQyeEYd4MwCWg6IZYO4oINGatzV7o71NYn1wVK7tR1jAsdp/leWpHbcJa/KXJq/t9kh9X+BV38i/2L2KtRGzq5zCM6uUhsrVsviOY6geji4sDy//QPAL31cSpOGHAkmNrUA9/ht7lTXg9lqfQjnh635Q0+c/f086j0tN+JecOsTy8qY/vkzc7froekmd7Pe0gpvPiJx5sz6PrUMbzfqGa36dPvP1lfRVdZxnrw9jUyWd9+2fpTR5UX1EnUMoO98BOOqOXDi707+3nBIfBuj9vXwrad6vTUPtOsIHRq39CMLY/vw3TdEav/hLBTnYeJQ+IkYDlPSUvzO+bFMeebE+Tq+vg/Y0aRy8Hl/JQvnAkBgzsU9RKhMiZcO8SRG6qSq7YL+at0nKhDCUHlhUbLlgitC26cqgV3FCngDHIZ90EfK5taxdSTm2J3QWtUwsWLSxmBp3mMTlYco2S9qHJ2/LWI6BoWI+6uKObsgpXLZu4DzgOraG0I05L6jpDxlQwiYY3gdzRZz6dLKliT0h0yTiLyjhqleys5as47BMzlbhhNbrpAemqin/FII5d4oS94RmyJEZAoxvWtIFYY3G2NmBOcWkhCaY3ILExCCq+cUeybtwG5jaGpAxYV+XgupzRoHgE0TIBXJoqIe8m1bAYpPYmV+ynMIakDJQsia4rMXM1aHR9j5buYYbs8kN4RJPqpTwYiXKRxWJAuC67l55Y0hezxmqW02MUVM7DYqDmZ0MknzeuRBYNh+SWzXkoKkslsV4qWsVv8wn4CZqZL5x3KAoJWiqZZKnoTpfKaYTsktucDL/5rJxtNwYRDU7n3zyB6wXsHSQw4YKEG4aJFWkxKzRlJRX0Dm4a2KZmIyadprEpCjEGV0WCXykp/LUpa4lJ4+fKvrfppaoM6GC5ytJaEBKNSUPoxYAYntPetWJvQXSN9DZIkM50dNVabWtQZOM6RyhJMxtWP8YMEtLUieMGoput2AK7oUUDv7bBLovGDy3tcljinDSedxeLohlt43tn/UqtsOvgVGUrDEBlVcatsivtNF/jFnFjcAMNEONyVrR1Fm8H4rSx00v6DoNzukmVcZucd3HeTOdJdm9D4h4YCHkzBqm4jjvNJzFQ55aVGNU+dB6/Ed240Z6xqcQXFPTMXmVwX6lgmVsMN3X1tKSpdU2LHudwaWNbbxgBDe1r6wzwDS2I6AN3ebjxCgPrcof6xH3u6gDd6APagK5jNwaPxO2af9n0rfSbPhqq03b5ppE2deBizAdXHfh8OtdVNnXPB8tbUxds0/fUNELf9FU1Bd02fVsuP77pC3P5jk3fWXPys2mkVo9z0zfn6rQnw8lNHdQZN3XpOt4hbfpQZASYTevBOlUZLzTzpm9C+1gz+gdd/TobQoN1htIXZoMaWJ/4OQ2or3S/Gk+pcn243HfghrzNvquJk8aPyQrafMDkGOgJrjR3bmpupp6xOVDn3vR/D84a+w7zgWU3Nz3sAydV33TJD9TrN334nC0wwMszwEsXl7WZA1tq3oCWRwZ6QlcvczFgE13QiGUOBKhuZjqw43szNWIg3nQzl4KXdDP5ggf73szWGDxF3k/vGKxT/XyQwZMew43wUZrXZpx4BlKTbrDvZPho3uklnDXsQs3JnuN0qX/TSzyoTkC2tzFXrxj0pRsPeUvuiG6m/jgcfDdXyOHgu8lFbmTtbjZSUo98N30pacZjN9/JoXK7CVJJi7p2M6pcuLybgpU0Kbmbs5VVe79NW30prc9faWwGjrsxRLtpZFlDwY1r/jbB4tH35ymJEpAPBnfsTAtD3p3p6cKpzZKkfmPwFSMzazbZBgcwg1a4TD7TvvV+8nxYV8O6mR0w74YH4Gd1Cb3eeSx71HaX3jB1O4ObVln5aomgY0aXmaTA8C3uesBqEOmYDm/i1O3w2EjEWMxGizkIjIIfi01lSYHt9FDd2sNuqrSo+zYwfh7OM27cqLQY5KU3416NoSoDOes3DBVj7pslccZjOFRoA2sP1z5ug32pvdXNkmxcyDgc0NC4stV7ZIuB4ril3AVabHwb1mLQceATU7fDhWWVvfvhemoqA+dvM0IvBm6TG+5Gqcrg/2IQQKPy4JTh7hyydBv73gLNV56iO7KbXZD5Hdzwr92U9aypqt0c96xlALtJ8f4dNrPosxtIwAOWh0/Sc/p5uGnGhUeaj3J3JwDtdFHnxCJsPkBaPcxT2Ea9aesnn29UVyFSMZ42NeOKJciVXgx61cLGsLspjCXvrloQ37twXshuf5Cdjpz0mIqc5MlXwISbaiOc4+6aZXPjfl83lj0XTNL7aNcK0djRlVYGu9GFHV2tvY88Wt7ftxJ2rrTuQzhTrS+f4Nu6+Ql6ndDgG7+SKoHUdrGob7zeYAJ/8oYjB3nt7lCK6pzsbmlyVy3s7oGKrriU+3pm1MRqCnyDRXQluAGB/hldJxl7M9Nftri5bS642w039xoEBXN2t5YF193DtQ9LkUm0G+suaNLCfb6ycEzXcJfZoEx1dGPGknTT3q4fgiL24SZjR77nYwxFpS2rQu/grrGJnIX2DJOzTEOle3uZkKZNeTrXUAiuby/60bYg9NMdPU/P8rcnbbySG/rNzUbq9nDc3V2JKDs9zofJ7Bl2d9ffLlDSlgYODqO6SJsqA3cRLY8q6O7i0YQWx5AXvcgVp39NZ6EwC9puvidOGyr++5Az1aKGLwkTMiuMbY6eEmnVGViEFyye0/XTeVyhkLt4l5wWu7DNteXC9y9JzxfXnWcHtUWswF6+rjiCjHWkedPmTAnlouO5Alctujb8wGMNpkZRgavmXd8WXyv7NrDljR5LHIeiHIHnp7umrYBeQewK7ASeFuwu5Ahc/j7UR2bnLw4vD1gz6jwCjjviVF8xcBvF1NTLZhqxazP/f+nXH357//Xjt7/8+OmXX37/+uXzzx8e///Hz18+/PTl8x+//nD90+8f3//2Yf3tvw==);lineShape=1;strokeColor=default;" vertex="1" parent="1">
          <mxGeometry x="40.235423716071075" y="1564.123021181593" width="96.96634686778316" height="470.59552414311315" as="geometry" />
        </mxCell>
        <mxCell id="nPFasPomJ1m4DBFbavHR-272" value="Feed" style="text;strokeColor=none;align=center;fillColor=none;html=1;verticalAlign=middle;whiteSpace=wrap;rounded=0;" vertex="1" parent="1">
          <mxGeometry x="58.71999999999992" y="1613.4099999999999" width="60" height="30" as="geometry" />
        </mxCell>
        <mxCell id="nPFasPomJ1m4DBFbavHR-273" value="Mentors" style="text;strokeColor=#d6b656;align=center;fillColor=#fff2cc;html=1;verticalAlign=middle;whiteSpace=wrap;rounded=0;" vertex="1" parent="1">
          <mxGeometry x="58.71999999999992" y="1660" width="60" height="30" as="geometry" />
        </mxCell>
        <mxCell id="nPFasPomJ1m4DBFbavHR-274" value="Events" style="text;strokeColor=none;align=center;fillColor=none;html=1;verticalAlign=middle;whiteSpace=wrap;rounded=0;" vertex="1" parent="1">
          <mxGeometry x="58.71999999999992" y="1700" width="60" height="30" as="geometry" />
        </mxCell>
        <mxCell id="nPFasPomJ1m4DBFbavHR-275" value="Groups" style="text;strokeColor=none;align=center;fillColor=none;html=1;verticalAlign=middle;whiteSpace=wrap;rounded=0;" vertex="1" parent="1">
          <mxGeometry x="58.71999999999992" y="1740" width="60" height="30" as="geometry" />
        </mxCell>
        <mxCell id="nPFasPomJ1m4DBFbavHR-276" value="Check" style="text;strokeColor=none;align=center;fillColor=none;html=1;verticalAlign=middle;whiteSpace=wrap;rounded=0;" vertex="1" parent="1">
          <mxGeometry x="53.46999999999992" y="1780" width="60" height="30" as="geometry" />
        </mxCell>
      </root>
    </mxGraphModel>
  </diagram>
</mxfile>
